<svg width="773" height="660" viewBox="0 0 773 660" fill="none" xmlns="http://www.w3.org/2000/svg">
<path d="M-4.9126e-06 658.887C-4.9126e-06 659.151 173.062 659.345 386.482 659.345C599.903 659.345 773 659.151 773 658.887C773 658.623 599.973 658.429 386.482 658.429C172.991 658.429 -4.9126e-06 658.64 -4.9126e-06 658.887Z" fill="#263238"/>
<path d="M615.759 298.3H478.811L452.651 337.056L427.125 298.3H292.607C290.562 298.3 288.537 297.898 286.648 297.115C284.758 296.332 283.042 295.185 281.596 293.739C280.15 292.293 279.002 290.576 278.22 288.687C277.437 286.798 277.034 284.773 277.034 282.728V16.0004C277.032 13.9538 277.433 11.9269 278.215 10.0355C278.996 8.14411 280.143 6.42531 281.589 4.97738C283.036 3.52945 284.753 2.38079 286.644 1.59709C288.534 0.813383 290.561 0.410002 292.607 0.410004H615.759C617.806 0.410002 619.832 0.813383 621.723 1.59709C623.613 2.38079 625.331 3.52945 626.777 4.97738C628.223 6.42531 629.37 8.14411 630.152 10.0355C630.933 11.9269 631.334 13.9538 631.332 16.0004V282.798C631.313 286.916 629.664 290.859 626.746 293.764C623.828 296.669 619.877 298.3 615.759 298.3Z" fill="#FAFAFA"/>
<path d="M615.759 298.3H616.605C617.453 298.246 618.296 298.122 619.124 297.93C621.949 297.293 624.538 295.875 626.597 293.838C628.655 291.801 630.101 289.227 630.768 286.409C630.93 285.742 631.054 285.065 631.138 284.384C631.138 283.679 631.226 282.957 631.138 282.217C631.138 280.737 631.138 279.187 631.138 277.584C631.138 271.148 631.138 263.755 631.138 255.405C631.138 221.934 631.05 173.701 630.997 114.035C630.997 84.1751 630.997 51.4971 630.997 16.4055C631.072 13.1193 630.084 9.89671 628.18 7.21761C626.275 4.53852 623.556 2.54625 620.428 1.53745C618.301 0.890829 616.074 0.640049 613.857 0.797568H528.594H404.77H293.118C292.396 0.797568 291.726 0.797568 291.039 0.797568C290.357 0.878137 289.68 1.00169 289.014 1.16751C286.32 1.81548 283.858 3.19725 281.902 5.15946C279.946 7.12167 278.572 9.58755 277.933 12.2833C277.483 14.7756 277.335 17.313 277.493 19.8407V132.585C277.493 171.604 277.493 209.409 277.493 245.645V279.116C277.39 281.281 277.484 283.451 277.774 285.599C278.183 287.674 279.02 289.641 280.234 291.374C281.448 293.106 283.01 294.565 284.821 295.658C286.621 296.747 288.633 297.438 290.722 297.684C292.783 297.895 294.985 297.772 297.099 297.807H334.816H427.125H427.319L427.424 297.966L452.915 336.721H452.386L478.582 297.966L478.67 297.842H478.811L579.857 298.3L478.899 298.424L479.128 298.3C471.024 310.373 462.316 323.321 453.003 337.144L452.739 337.549L452.474 337.144L426.931 298.388L427.213 298.547H334.904H297.152C295.003 298.547 292.907 298.635 290.687 298.424C287.373 298.045 284.259 296.641 281.78 294.409C279.301 292.176 277.581 289.226 276.858 285.969C276.544 283.77 276.437 281.547 276.541 279.328V245.857C276.541 209.62 276.541 171.869 276.541 132.796V16.1413C276.5 12.5251 277.687 9.00181 279.907 6.1475C282.128 3.29319 285.252 1.27668 288.767 0.427629C289.475 0.254384 290.192 0.124951 290.916 0.0400699C291.638 0.0400699 292.378 0.0400699 293.083 0.0400699H613.874C616.176 -0.109203 618.486 0.159364 620.692 0.832795C622.882 1.57306 624.889 2.77448 626.576 4.35604C628.256 5.89835 629.584 7.78511 630.469 9.88753C631.328 11.9824 631.753 14.2297 631.72 16.4936C631.72 51.5851 631.72 84.2632 631.72 114.123C631.72 173.789 631.614 222.093 631.579 255.493C631.579 263.843 631.579 271.236 631.579 277.672C631.579 279.275 631.579 280.825 631.579 282.305C631.579 283.045 631.579 283.785 631.491 284.489C631.415 285.184 631.291 285.873 631.121 286.55C630.43 289.398 628.952 291.993 626.855 294.04C624.759 296.087 622.128 297.502 619.265 298.124C618.436 298.298 617.593 298.398 616.746 298.424L615.759 298.3Z" fill="#263238"/>
<path d="M414.688 164.417C414.688 167.94 412.098 170.019 407.941 170.019H404.823V174.3H401.299V158.78H408.011C412.098 158.85 414.688 161 414.688 164.417ZM411.041 164.417C411.041 162.655 409.949 161.704 407.747 161.704H404.823V167.095H407.747C409.949 167.165 411.041 166.179 411.041 164.417Z" fill="#263238"/>
<path d="M427.424 167.57V174.37H424.183V172.89C423.781 173.465 423.232 173.922 422.594 174.213C421.956 174.505 421.251 174.62 420.554 174.546C417.77 174.546 416.097 172.996 416.097 170.935C416.097 168.874 417.594 167.412 421.223 167.412H423.971C423.971 165.932 423.091 165.069 421.223 165.069C419.988 165.059 418.784 165.448 417.788 166.179L416.537 163.765C418.071 162.785 419.861 162.283 421.681 162.321C425.328 162.268 427.424 163.959 427.424 167.57ZM423.901 170.6V169.385H421.523C419.902 169.385 419.391 169.984 419.391 170.777C419.391 171.569 420.131 172.221 421.347 172.221C421.901 172.274 422.457 172.144 422.931 171.852C423.405 171.559 423.77 171.12 423.971 170.6H423.901Z" fill="#263238"/>
<path d="M429.397 173.225L430.542 170.741C431.802 171.486 433.237 171.881 434.7 171.886C436.285 171.886 436.884 171.481 436.884 170.812C436.884 168.856 429.679 170.812 429.679 166.091C429.679 163.836 431.723 162.233 435.211 162.233C436.798 162.208 438.369 162.564 439.791 163.272L438.646 165.738C437.572 165.132 436.355 164.828 435.122 164.857C433.572 164.857 432.903 165.333 432.903 165.95C432.903 167.993 440.108 165.95 440.108 170.724C440.108 172.943 438.047 174.511 434.471 174.511C432.697 174.524 430.95 174.081 429.397 173.225Z" fill="#263238"/>
<path d="M441.165 173.225L442.31 170.741C443.564 171.483 444.993 171.878 446.45 171.886C448.053 171.886 448.652 171.481 448.652 170.812C448.652 168.856 441.447 170.812 441.447 166.091C441.447 163.836 443.49 162.233 446.961 162.233C448.554 162.206 450.131 162.562 451.559 163.272L450.396 165.738C449.35 165.144 448.164 164.84 446.961 164.857C445.411 164.857 444.759 165.333 444.759 165.95C444.759 167.993 451.946 165.95 451.946 170.724C451.946 172.943 449.885 174.511 446.327 174.511C444.523 174.542 442.743 174.098 441.165 173.225Z" fill="#263238"/>
<path d="M472.997 162.444L468.681 174.37H465.352L462.674 166.971L459.908 174.37H456.544L452.245 162.444H455.504L458.323 170.512L461.247 162.444H464.172L467.008 170.512L469.914 162.444H472.997Z" fill="#263238"/>
<path d="M473.403 168.416C473.318 167.105 473.629 165.799 474.296 164.667C474.962 163.535 475.954 162.63 477.141 162.069C478.329 161.507 479.657 161.316 480.955 161.519C482.253 161.722 483.46 162.31 484.419 163.208C485.378 164.105 486.046 165.27 486.335 166.551C486.624 167.833 486.521 169.171 486.04 170.393C485.559 171.616 484.722 172.665 483.637 173.406C482.552 174.146 481.269 174.544 479.956 174.546C479.116 174.604 478.273 174.489 477.48 174.207C476.686 173.925 475.96 173.483 475.345 172.907C474.73 172.332 474.24 171.637 473.906 170.864C473.572 170.091 473.401 169.258 473.403 168.416ZM483.003 168.416C482.959 167.821 482.741 167.252 482.378 166.778C482.014 166.305 481.521 165.948 480.957 165.751C480.393 165.554 479.785 165.526 479.206 165.671C478.626 165.815 478.102 166.125 477.697 166.563C477.291 167.002 477.023 167.548 476.924 168.137C476.825 168.726 476.9 169.33 477.14 169.877C477.38 170.423 477.774 170.888 478.274 171.214C478.775 171.539 479.359 171.712 479.956 171.71C480.375 171.709 480.79 171.621 481.174 171.452C481.558 171.282 481.903 171.035 482.186 170.725C482.469 170.415 482.685 170.05 482.819 169.653C482.954 169.255 483.005 168.834 482.968 168.416H483.003Z" fill="#263238"/>
<path d="M496.198 162.268V165.456H495.423C494.984 165.415 494.541 165.474 494.128 165.628C493.715 165.781 493.341 166.027 493.037 166.345C492.732 166.664 492.503 167.047 492.367 167.467C492.231 167.887 492.192 168.331 492.252 168.768V174.405H488.729V162.479H492.041V164.047C492.534 163.431 493.171 162.947 493.896 162.636C494.621 162.326 495.412 162.199 496.198 162.268Z" fill="#263238"/>
<path d="M510.291 157.934V174.37H506.997V172.996C506.535 173.52 505.961 173.931 505.317 174.2C504.673 174.469 503.976 174.587 503.28 174.546C501.644 174.546 500.076 173.897 498.92 172.741C497.764 171.584 497.114 170.016 497.114 168.381C497.114 166.745 497.764 165.177 498.92 164.021C500.076 162.865 501.644 162.215 503.28 162.215C503.936 162.189 504.591 162.305 505.199 162.554C505.806 162.803 506.354 163.18 506.803 163.66V157.881L510.291 157.934ZM506.909 168.504C506.864 167.909 506.647 167.34 506.283 166.866C505.92 166.393 505.426 166.036 504.862 165.839C504.299 165.642 503.69 165.614 503.111 165.759C502.532 165.903 502.007 166.213 501.602 166.651C501.197 167.09 500.928 167.637 500.829 168.225C500.73 168.814 500.805 169.418 501.045 169.965C501.285 170.512 501.679 170.976 502.18 171.302C502.68 171.627 503.264 171.8 503.861 171.798C504.292 171.804 504.719 171.717 505.114 171.544C505.508 171.372 505.862 171.117 506.15 170.797C506.439 170.477 506.655 170.099 506.786 169.688C506.917 169.278 506.959 168.844 506.909 168.416V168.504Z" fill="#263238"/>
<path d="M367.318 201.129H344.875C339.543 201.129 335.221 205.451 335.221 210.783V249.239C335.221 254.571 339.543 258.893 344.875 258.893H367.318C372.649 258.893 376.971 254.571 376.971 249.239V210.783C376.971 205.451 372.649 201.129 367.318 201.129Z" fill="#EBEBEB"/>
<path d="M465.845 201.129H444.529C439.198 201.129 434.876 205.451 434.876 210.783V249.239C434.876 254.571 439.198 258.893 444.529 258.893H465.845C471.177 258.893 475.499 254.571 475.499 249.239V210.783C475.499 205.451 471.177 201.129 465.845 201.129Z" fill="#EBEBEB"/>
<path d="M417.013 201.129H395.697C390.366 201.129 386.043 205.451 386.043 210.783V249.239C386.043 254.571 390.366 258.893 395.697 258.893H417.013C422.344 258.893 426.666 254.571 426.666 249.239V210.783C426.666 205.451 422.344 201.129 417.013 201.129Z" fill="#EBEBEB"/>
<path d="M515.593 201.129H493.133C487.801 201.129 483.479 205.451 483.479 210.783V249.239C483.479 254.571 487.801 258.893 493.133 258.893H515.593C520.925 258.893 525.247 254.571 525.247 249.239V210.783C525.247 205.451 520.925 201.129 515.593 201.129Z" fill="#EBEBEB"/>
<path d="M563.492 201.129H541.031C535.7 201.129 531.377 205.451 531.377 210.783V249.239C531.377 254.571 535.7 258.893 541.031 258.893H563.492C568.823 258.893 573.146 254.571 573.146 249.239V210.783C573.146 205.451 568.823 201.129 563.492 201.129Z" fill="#EBEBEB"/>
<path d="M361.416 228.487L365.873 230.901L363.865 234.265L359.373 231.588V236.556H355.532V231.553L351.023 234.265L349.05 230.901L353.524 228.487L349.05 226.021L351.023 222.656L355.532 225.369V220.366H359.373V225.369L363.865 222.656L365.873 226.021L361.416 228.487Z" fill="#347CCC"/>
<path d="M410.143 228.223L414.617 230.636L412.609 234.001L408.099 231.359L408.187 236.326H404.329V231.323L399.82 234.036L397.864 230.672L402.321 228.258L397.864 225.792L399.82 222.427L404.329 225.14V220.137H408.187L408.099 225.14L412.609 222.427L414.617 225.792L410.143 228.223Z" fill="#347CCC"/>
<path d="M460.067 228.223L464.542 230.636L462.533 234.001L457.936 231.359L458.024 236.327H454.166V231.323L449.656 234.036L447.736 230.636L452.193 228.223L447.736 225.757L449.691 222.392L454.201 225.105V220.102H458.059L457.971 225.105L462.481 222.392L464.489 225.757L460.067 228.223Z" fill="#347CCC"/>
<path d="M508.265 228.223L512.722 230.636L510.714 234.001L506.204 231.359L506.292 236.326H502.434V231.323L497.924 234.036L495.951 230.672L500.426 228.258L495.951 225.792L497.924 222.427L502.434 225.14V220.137H506.292L506.204 225.14L510.714 222.427L512.722 225.792L508.265 228.223Z" fill="#347CCC"/>
<path d="M366.895 259.263H345.297C342.626 259.258 340.066 258.195 338.177 256.306C336.289 254.418 335.226 251.857 335.221 249.186V210.853C335.226 208.182 336.289 205.622 338.177 203.733C340.066 201.845 342.626 200.782 345.297 200.777H366.895C369.567 200.777 372.13 201.839 374.02 203.728C375.91 205.618 376.971 208.181 376.971 210.853V249.186C376.967 251.857 375.904 254.418 374.015 256.306C372.126 258.195 369.566 259.258 366.895 259.263ZM345.297 201.411C342.815 201.416 340.436 202.405 338.682 204.162C336.928 205.919 335.943 208.3 335.943 210.783V249.116C335.943 251.597 336.929 253.976 338.683 255.73C340.437 257.485 342.817 258.47 345.297 258.47H366.895C369.377 258.47 371.759 257.485 373.516 255.731C375.273 253.978 376.262 251.598 376.267 249.116V210.853C376.262 208.369 375.273 205.988 373.517 204.232C371.76 202.475 369.379 201.486 366.895 201.482L345.297 201.411Z" fill="#263238"/>
<path d="M417.066 259.263H395.451C392.779 259.258 390.219 258.195 388.33 256.306C386.442 254.418 385.379 251.857 385.374 249.186V210.853C385.379 208.182 386.442 205.622 388.33 203.733C390.219 201.845 392.779 200.782 395.451 200.777H417.066C419.735 200.782 422.293 201.845 424.179 203.734C426.065 205.624 427.124 208.184 427.124 210.853V249.186C427.124 251.856 426.065 254.416 424.179 256.305C422.293 258.194 419.735 259.258 417.066 259.263ZM395.451 201.411C392.968 201.416 390.589 202.405 388.835 204.162C387.081 205.919 386.096 208.3 386.096 210.783V249.116C386.096 251.597 387.082 253.976 388.836 255.73C390.59 257.485 392.97 258.47 395.451 258.47H417.066C419.546 258.47 421.926 257.485 423.68 255.73C425.434 253.976 426.42 251.597 426.42 249.116V210.853C426.42 208.371 425.435 205.99 423.681 204.233C421.927 202.476 419.548 201.486 417.066 201.482L395.451 201.411Z" fill="#263238"/>
<path d="M465.845 259.263H444.212C441.541 259.258 438.981 258.195 437.092 256.306C435.204 254.418 434.141 251.857 434.136 249.186V210.853C434.141 208.182 435.204 205.622 437.092 203.733C438.981 201.845 441.541 200.782 444.212 200.777H465.828C468.497 200.782 471.055 201.845 472.941 203.734C474.827 205.624 475.886 208.184 475.886 210.853V249.186C475.886 251.853 474.83 254.41 472.948 256.299C471.065 258.188 468.512 259.253 465.845 259.263ZM444.212 201.411C441.73 201.416 439.351 202.405 437.597 204.162C435.843 205.919 434.858 208.3 434.858 210.783V249.116C434.858 251.597 435.844 253.976 437.598 255.73C439.352 257.485 441.732 258.47 444.212 258.47H465.828C467.056 258.47 468.272 258.228 469.407 257.758C470.542 257.288 471.573 256.599 472.442 255.73C473.311 254.862 474 253.83 474.47 252.696C474.94 251.561 475.182 250.344 475.182 249.116V210.853C475.182 208.371 474.197 205.99 472.443 204.233C470.689 202.476 468.31 201.486 465.828 201.482L444.212 201.411Z" fill="#263238"/>
<path d="M515.171 259.263H493.538C490.867 259.258 488.307 258.195 486.418 256.306C484.529 254.418 483.466 251.857 483.461 249.186V210.853C483.461 208.181 484.523 205.618 486.413 203.728C488.302 201.839 490.865 200.777 493.538 200.777H515.135C517.806 200.782 520.367 201.845 522.255 203.733C524.144 205.622 525.207 208.182 525.212 210.853V249.186C525.207 251.851 524.149 254.406 522.268 256.294C520.387 258.182 517.836 259.249 515.171 259.263ZM493.538 201.411C491.054 201.416 488.673 202.405 486.916 204.161C485.16 205.918 484.171 208.299 484.166 210.783V249.116C484.171 251.598 485.16 253.978 486.917 255.731C488.674 257.485 491.055 258.47 493.538 258.47H515.135C517.616 258.47 519.996 257.485 521.75 255.73C523.504 253.976 524.49 251.597 524.49 249.116V210.853C524.49 208.371 523.505 205.99 521.751 204.233C519.997 202.476 517.618 201.486 515.135 201.482L493.538 201.411Z" fill="#263238"/>
<path d="M563.069 259.263H541.471C538.8 259.258 536.24 258.195 534.351 256.306C532.463 254.418 531.399 251.857 531.395 249.186V210.853C531.395 208.181 532.456 205.618 534.346 203.728C536.236 201.839 538.799 200.777 541.471 200.777H563.069C565.74 200.782 568.3 201.845 570.189 203.733C572.077 205.622 573.141 208.182 573.145 210.853V249.186C573.141 251.857 572.077 254.418 570.189 256.306C568.3 258.195 565.74 259.258 563.069 259.263ZM541.471 201.411C538.987 201.416 536.606 202.405 534.85 204.161C533.093 205.918 532.104 208.299 532.099 210.783V249.116C532.104 251.598 533.094 253.978 534.851 255.731C536.608 257.485 538.989 258.47 541.471 258.47H563.069C565.55 258.47 567.929 257.485 569.683 255.73C571.437 253.976 572.423 251.597 572.423 249.116V210.853C572.423 208.371 571.438 205.99 569.684 204.233C567.93 202.476 565.551 201.486 563.069 201.482L541.471 201.411Z" fill="#263238"/>
<path d="M563.844 243.919C560.005 244.383 556.134 244.536 552.27 244.377C548.406 244.536 544.536 244.383 540.697 243.919C544.537 243.466 548.406 243.313 552.27 243.461C556.134 243.313 560.004 243.466 563.844 243.919Z" fill="#347CCC"/>
<path d="M456.086 141.234C481.858 141.234 502.751 120.341 502.751 94.5687C502.751 68.7961 481.858 47.9033 456.086 47.9033C430.313 47.9033 409.42 68.7961 409.42 94.5687C409.42 120.341 430.313 141.234 456.086 141.234Z" fill="#347CCC"/>
<path d="M447.876 86.0777H447.101V81.7265C447.047 80.498 447.243 79.2712 447.675 78.1202C448.108 76.9691 448.77 75.9177 449.62 75.0292C450.47 74.1407 451.492 73.4337 452.622 72.9506C453.753 72.4675 454.97 72.2185 456.2 72.2185C457.43 72.2185 458.647 72.4675 459.778 72.9506C460.909 73.4337 461.93 74.1407 462.78 75.0292C463.63 75.9177 464.292 76.9691 464.725 78.1202C465.158 79.2712 465.353 80.498 465.299 81.7265V85.2498H464.524V81.7265C464.576 80.6012 464.399 79.4771 464.004 78.4221C463.609 77.3672 463.004 76.4032 462.226 75.5886C461.448 74.7739 460.513 74.1255 459.477 73.6825C458.441 73.2394 457.327 73.011 456.2 73.011C455.074 73.011 453.959 73.2394 452.923 73.6825C451.887 74.1255 450.952 74.7739 450.174 75.5886C449.396 76.4032 448.791 77.3672 448.397 78.4221C448.002 79.4771 447.825 80.6012 447.876 81.7265V86.0777Z" fill="white"/>
<path d="M467.66 116.501H444.53C444.025 116.503 443.524 116.406 443.057 116.213C442.59 116.021 442.166 115.738 441.809 115.381C441.452 115.024 441.169 114.6 440.977 114.133C440.785 113.666 440.687 113.166 440.689 112.661V89.5305C440.689 88.512 441.094 87.5352 441.814 86.815C442.534 86.0948 443.511 85.6902 444.53 85.6902H467.66C468.677 85.6948 469.651 86.1009 470.37 86.8201C471.089 87.5393 471.495 88.5134 471.5 89.5305V112.661C471.5 113.679 471.095 114.656 470.375 115.376C469.655 116.096 468.678 116.501 467.66 116.501ZM444.53 86.4653C443.717 86.4653 442.937 86.7882 442.362 87.363C441.787 87.9379 441.464 88.7176 441.464 89.5305V112.661C441.464 113.063 441.544 113.462 441.698 113.834C441.852 114.206 442.078 114.543 442.362 114.828C442.647 115.113 442.985 115.338 443.357 115.493C443.728 115.647 444.127 115.726 444.53 115.726H467.66C468.062 115.726 468.461 115.647 468.833 115.493C469.205 115.338 469.542 115.113 469.827 114.828C470.112 114.543 470.338 114.206 470.492 113.834C470.646 113.462 470.725 113.063 470.725 112.661V89.5305C470.725 88.7176 470.402 87.9379 469.827 87.363C469.252 86.7882 468.473 86.4653 467.66 86.4653H444.53Z" fill="white"/>
<path d="M456.209 101.862C455.486 101.865 454.779 101.654 454.177 101.255C453.574 100.855 453.104 100.286 452.826 99.6189C452.548 98.9519 452.474 98.2172 452.614 97.5082C452.754 96.7992 453.102 96.1479 453.613 95.6368C454.124 95.1258 454.775 94.7781 455.484 94.638C456.193 94.4978 456.928 94.5715 457.595 94.8497C458.262 95.1279 458.831 95.598 459.231 96.2004C459.63 96.8027 459.841 97.5102 459.838 98.2329C459.833 99.1939 459.45 100.114 458.77 100.794C458.09 101.473 457.17 101.857 456.209 101.862ZM456.209 95.3791C455.645 95.3791 455.093 95.5464 454.624 95.86C454.154 96.1736 453.788 96.6193 453.572 97.1408C453.356 97.6623 453.3 98.2361 453.41 98.7896C453.52 99.3432 453.792 99.8517 454.191 100.251C454.59 100.65 455.099 100.922 455.652 101.032C456.206 101.142 456.78 101.085 457.301 100.869C457.823 100.653 458.268 100.288 458.582 99.8184C458.896 99.3491 459.063 98.7973 459.063 98.2329C459.065 97.8575 458.993 97.4853 458.85 97.138C458.708 96.7907 458.498 96.4752 458.232 96.2097C457.967 95.9442 457.651 95.7341 457.304 95.5915C456.957 95.4489 456.584 95.3767 456.209 95.3791Z" fill="white"/>
<path d="M456.473 101.298H455.698V107.851H456.473V101.298Z" fill="white"/>
<path d="M614.086 29.9656C615.796 22.1931 610.882 14.5057 603.109 12.7954C595.337 11.0851 587.649 15.9995 585.939 23.772C584.229 31.5445 589.143 39.2319 596.916 40.9422C604.688 42.6525 612.376 37.7381 614.086 29.9656Z" fill="#E0E0E0"/>
<path d="M595.578 32.5914C595.518 32.5906 595.459 32.5777 595.405 32.5534C595.35 32.5292 595.301 32.4942 595.261 32.4504C595.219 32.4109 595.185 32.3631 595.162 32.3101C595.139 32.2571 595.127 32.1999 595.127 32.1421C595.127 32.0844 595.139 32.0272 595.162 31.9742C595.185 31.9212 595.219 31.8734 595.261 31.8339L604.597 22.4973C604.637 22.4551 604.685 22.4216 604.738 22.3986C604.791 22.3756 604.848 22.3638 604.906 22.3638C604.963 22.3638 605.021 22.3756 605.074 22.3986C605.127 22.4216 605.174 22.4551 605.214 22.4973C605.256 22.5383 605.29 22.5876 605.314 22.6421C605.337 22.6966 605.349 22.7552 605.349 22.8144C605.349 22.8736 605.337 22.9321 605.314 22.9866C605.29 23.0411 605.256 23.0904 605.214 23.1314L595.877 32.4504C595.8 32.5346 595.692 32.5851 595.578 32.5914Z" fill="white"/>
<path d="M604.897 32.5914C604.783 32.5851 604.675 32.5346 604.598 32.4504L595.261 23.1314C595.218 23.0904 595.184 23.0411 595.161 22.9866C595.138 22.9321 595.126 22.8736 595.126 22.8144C595.126 22.7552 595.138 22.6966 595.161 22.6421C595.184 22.5876 595.218 22.5383 595.261 22.4973C595.301 22.4551 595.348 22.4216 595.401 22.3986C595.454 22.3756 595.511 22.3638 595.569 22.3638C595.627 22.3638 595.684 22.3756 595.737 22.3986C595.79 22.4216 595.838 22.4551 595.878 22.4973L605.214 31.8339C605.256 31.8734 605.29 31.9212 605.313 31.9742C605.336 32.0272 605.348 32.0844 605.348 32.1421C605.348 32.1999 605.336 32.2571 605.313 32.3101C605.29 32.3631 605.256 32.4109 605.214 32.4504C605.174 32.4942 605.125 32.5292 605.07 32.5534C605.016 32.5777 604.957 32.5906 604.897 32.5914Z" fill="white"/>
<path d="M678.824 570.559C678.824 570.559 725.366 516.988 742.929 463.417C760.493 409.846 752.16 415.994 752.16 415.994C752.16 415.994 728.449 468.033 710.445 493.171C692.441 518.309 660.38 555.18 660.38 555.18L678.824 570.559Z" fill="#455A64"/>
<path d="M669.557 424.327C669.871 423.775 670.369 423.351 670.963 423.128C671.558 422.905 672.212 422.898 672.811 423.107C673.41 423.317 673.917 423.73 674.243 424.275C674.569 424.819 674.694 425.461 674.596 426.089C671.759 444.92 665.629 489.067 665.788 517.693C666.087 554.898 665.788 569.273 665.788 569.273H646.41C646.41 569.273 649.933 492.361 654.231 468.861C657.367 452.46 663.885 434.21 669.557 424.327Z" fill="#455A64"/>
<path d="M658.988 563.002C650.868 544.609 645.497 525.123 643.045 505.168C641.46 491.48 644.296 472.965 648.524 448.267C650.166 439.235 650.985 430.072 650.973 420.892C650.963 419.87 650.615 418.88 649.982 418.078C649.349 417.275 648.468 416.705 647.477 416.457C646.485 416.209 645.44 416.298 644.504 416.708C643.568 417.118 642.795 417.828 642.305 418.725C639.963 422.9 633.198 437.152 631.471 446.083C626.786 470.464 621.483 482.654 625.535 505.802C629.587 528.95 644.613 564.57 644.613 564.57L658.988 563.002Z" fill="#455A64"/>
<path d="M641.548 564.57C641.548 564.57 590.461 454.75 586.938 438.455C583.414 422.16 571.347 384.62 569.938 386.751C568.529 388.883 566.415 408.701 575.593 431.373C584.771 454.045 624.125 567.917 624.125 567.917H641.548" fill="#455A64"/>
<path d="M664.59 559.655C665.096 559.372 665.574 559.042 666.017 558.668C666.933 557.981 668.307 557.012 669.981 555.656C673.381 552.978 678.155 548.909 683.721 543.536C698.078 529.366 710.516 513.375 720.715 495.972C730.905 478.559 739.383 460.199 746.03 441.15C748.602 433.857 750.469 427.885 751.685 423.745C752.319 421.667 752.742 420.046 753.041 418.954C753.228 418.38 753.363 417.79 753.446 417.192C753.195 417.714 752.988 418.256 752.83 418.813C752.442 419.993 751.931 421.579 751.279 423.552C749.941 427.656 747.95 433.575 745.308 440.833C738.462 459.741 729.919 477.989 719.782 495.355C709.584 512.675 697.263 528.654 683.105 542.919C677.626 548.363 672.958 552.502 669.646 555.251C668.008 556.66 666.669 557.682 665.823 558.422C665.379 558.799 664.967 559.211 664.59 559.655Z" fill="#263238"/>
<path d="M658.988 506.965C659.254 505.909 659.407 504.829 659.446 503.741C659.693 501.468 660.01 498.456 660.397 494.933C661.208 487.499 662.476 477.316 664.273 465.989C666.07 454.662 668.096 444.603 669.663 437.31C670.421 433.787 671.038 430.88 671.531 428.643C671.816 427.593 672.004 426.52 672.094 425.437C671.677 426.44 671.347 427.477 671.108 428.537C670.544 430.563 669.787 433.487 668.906 437.134C667.144 444.409 665.013 454.539 663.198 465.831C661.384 477.123 660.239 487.393 659.675 494.862C659.376 498.579 659.164 501.609 659.076 503.67C658.955 504.764 658.926 505.866 658.988 506.965Z" fill="#263238"/>
<path d="M647.027 417.862C646.776 418.302 646.575 418.769 646.428 419.253L644.895 423.34C644.208 425.102 643.433 427.286 642.693 429.876C641.953 432.466 640.931 435.355 640.209 438.684L638.941 443.846C638.518 445.607 638.219 447.545 637.831 449.5C636.985 453.394 636.475 457.622 635.858 462.061C634.757 471.72 634.345 481.445 634.625 491.163C635.039 500.883 636.146 510.561 637.937 520.124C638.87 524.493 639.698 528.685 640.791 532.455C641.337 534.375 641.777 536.26 642.323 538.022L643.961 543.166C644.93 546.407 646.128 549.244 647.062 551.763C647.996 554.282 648.824 556.413 649.722 558.122L651.484 562.086C651.669 562.556 651.905 563.005 652.188 563.425C652.069 562.935 651.904 562.457 651.695 561.998C651.272 560.976 650.726 559.637 650.057 557.964C649.387 556.29 648.454 554.088 647.59 551.534C646.727 548.979 645.565 546.249 644.631 542.919C644.138 541.316 643.627 539.625 643.081 537.863C642.535 536.102 642.129 534.235 641.618 532.314C640.562 528.492 639.857 524.334 638.87 519.983C637.153 510.465 636.082 500.843 635.664 491.18C635.387 481.518 635.763 471.848 636.792 462.237C637.391 457.815 637.866 453.605 638.659 449.712C639.029 447.774 639.311 445.872 639.716 444.075C640.121 442.278 640.526 440.551 640.914 438.913C641.601 435.619 642.535 432.712 643.222 430.105C643.909 427.498 644.631 425.313 645.247 423.517L646.569 419.377C646.771 418.888 646.924 418.381 647.027 417.862Z" fill="#263238"/>
<path d="M570.484 388.953C570.465 389.117 570.465 389.283 570.484 389.447C570.484 389.834 570.625 390.292 570.713 390.874C570.942 392.124 571.224 393.974 571.717 396.335C572.704 401.056 574.36 407.856 577.002 416.1C579.644 424.344 583.027 434.033 587.167 444.656C591.306 455.279 596.08 466.87 600.625 479.201C605.17 491.533 608.782 503.529 612.111 514.434C615.441 525.338 618.559 535.133 621.589 543.219C623.908 549.629 626.584 555.904 629.604 562.015C630.643 564.182 631.595 565.803 632.194 566.93L632.916 568.181C633.074 568.463 633.163 568.604 633.18 568.586C633.147 568.425 633.088 568.27 633.004 568.128L632.387 566.825C631.841 565.679 630.961 564.024 629.974 561.822C627.931 557.47 625.147 551.076 622.258 542.955C619.369 534.833 616.269 525.074 613.027 514.152C609.786 503.23 606.21 491.251 601.594 478.92C596.979 466.588 592.222 454.979 588.047 444.374C583.872 433.769 580.314 424.168 577.671 415.959C575.029 407.75 573.285 401.021 572.175 396.335C571.611 393.992 571.259 392.16 570.96 390.909C570.836 390.345 570.713 389.887 570.625 389.517C570.613 389.322 570.565 389.131 570.484 388.953Z" fill="#263238"/>
<path d="M728.061 364.696C728.762 364.013 729.671 363.584 730.643 363.477C731.616 363.371 732.596 363.592 733.428 364.106C734.261 364.621 734.897 365.398 735.236 366.316C735.576 367.234 735.599 368.238 735.301 369.17C733.557 374.823 731.414 380.345 728.889 385.694C721.843 400.615 701.232 454.186 691.56 483.605C681.889 513.025 668.36 567.917 668.36 567.917L647.731 564.57C647.731 564.57 666.598 474.463 684.972 441.89C699.787 415.783 714.62 378.049 728.061 364.696Z" fill="#455A64"/>
<path d="M685.976 502.014C685.523 502.792 685.162 503.62 684.901 504.481C684.302 506.101 683.457 508.462 682.523 511.404C680.62 517.288 678.295 525.497 675.97 534.64C673.644 543.783 671.671 552.097 670.315 558.122C669.698 560.958 669.188 563.407 668.765 565.257C668.536 566.127 668.395 567.018 668.342 567.917C668.71 567.096 668.993 566.24 669.188 565.362C669.681 563.477 670.315 561.117 671.073 558.316C672.658 552.115 674.719 543.959 677.027 534.939C679.335 525.92 681.554 517.57 683.263 511.65C684.073 508.85 684.76 506.507 685.306 504.604C685.615 503.765 685.839 502.898 685.976 502.014Z" fill="#263238"/>
<path d="M657.931 566.243C657.989 566.066 658.025 565.883 658.037 565.697C658.037 565.257 658.177 564.728 658.283 564.076C658.495 562.649 658.688 560.553 659.129 557.823C659.886 552.397 661.225 544.593 663.445 535.062C666.086 523.921 669.309 512.925 673.098 502.12C677.344 489.894 682.646 476.682 688.654 463.012C700.791 435.725 712.911 411.502 720.891 393.604C724.908 384.655 727.938 377.38 730.087 372.289C731.126 369.752 731.849 367.761 732.395 366.422C732.641 365.806 732.817 365.295 732.976 364.89C733.055 364.716 733.108 364.532 733.135 364.344C733.027 364.497 732.939 364.663 732.87 364.837L732.201 366.334C731.584 367.744 730.756 369.681 729.682 372.13C727.515 377.151 724.291 384.461 720.187 393.269C712.048 411.044 699.805 435.231 687.649 462.572C681.642 476.26 676.34 489.507 672.147 501.785C668.386 512.642 665.228 523.699 662.687 534.904C660.974 542.465 659.645 550.109 658.706 557.805C658.336 560.518 658.213 562.649 658.054 564.076L657.931 565.715C657.91 565.89 657.91 566.068 657.931 566.243Z" fill="#263238"/>
<path d="M647.661 564.57C647.988 563.416 648.224 562.238 648.365 561.046C648.77 558.633 649.317 555.427 649.968 551.569C651.378 543.571 653.492 532.561 656.68 520.582C659.869 508.603 663.251 497.98 665.929 490.317C667.232 486.618 668.324 483.57 669.152 481.262C669.607 480.172 669.972 479.047 670.245 477.898C669.657 478.923 669.156 479.995 668.747 481.104C667.866 483.2 666.616 486.248 665.224 490.053C661.495 499.982 658.296 510.102 655.641 520.371C652.974 530.631 650.828 541.021 649.211 551.498C648.63 555.515 648.189 558.774 647.96 561.046C647.772 562.212 647.672 563.389 647.661 564.57Z" fill="#263238"/>
<path d="M605.311 561.61H685.835V659.715H605.311V561.61Z" fill="#347CCC"/>
<g opacity="0.3">
<path d="M605.311 561.61H685.835V659.715H605.311V561.61Z" fill="black"/>
</g>
<path d="M631.013 561.61H702.447V659.715H631.013V561.61Z" fill="#347CCC"/>
<path d="M134.747 343.345L177.078 337.215L261.76 349.74L285.524 358.143L281.314 410.111L199.891 425.102L144.964 408.825L124.195 378.26L134.747 343.345Z" fill="#FFBE9D"/>
<path d="M108.058 348.313L143.502 339.963C143.502 339.963 168.534 417.474 230.35 414.074C280.732 411.344 281.314 355.113 281.314 355.113L317.621 366.739C317.621 366.739 331.52 459.876 316.141 525.867C312.618 541.281 307.738 562.051 307.738 562.051L312.653 658.464L44.1111 658.887L108.058 348.313Z" fill="#347CCC"/>
<g opacity="0.3">
<path d="M213.333 639.756C200.261 639.421 188.212 640.531 175.14 640.214C159.462 639.826 143.66 639.439 128.176 641.975C116.584 643.896 105.275 647.419 93.6831 649.251C77.8285 651.752 60.9345 650.872 46.8415 643.244L49.114 630.084L102.632 617.154L213.333 639.756Z" fill="black"/>
</g>
<path d="M347.938 388.443C335.607 372.588 315.243 365.982 315.243 365.982L301.502 485.578L327.521 659.733L412.749 659.327C412.749 659.327 365.748 411.432 347.938 388.443Z" fill="#347CCC"/>
<path d="M112.198 347.432C112.198 347.432 54.8394 352.03 34.2637 446.083C24.9623 488.591 13.1243 538.392 9.79478 571.88C7.34613 596.156 20.5407 634.171 44.7454 637.289L75.1862 641.376C81.1547 642.236 87.2291 642.015 93.1195 640.725C112.339 636.303 114.259 623.108 117.782 609.015L126.59 580.97C131.452 554.299 106.596 549.261 92.8729 549.631L103.108 427.885L112.198 347.432Z" fill="#347CCC"/>
<path d="M322.342 432.483C322.476 432.907 322.565 433.344 322.606 433.787C322.747 434.738 322.941 436.006 323.187 437.574C323.293 438.402 323.434 439.336 323.575 440.322C323.716 441.309 323.786 442.419 323.91 443.599C324.156 445.942 324.438 448.62 324.561 451.597C324.969 458.56 325.016 465.539 324.702 472.507C324.283 481.029 323.436 489.525 322.166 497.963C320.844 506.965 319.189 515.456 317.497 523.136C315.806 530.817 314.168 537.705 312.723 543.483C311.279 549.261 310.063 553.894 309.2 557.1C308.777 558.633 308.443 559.866 308.178 560.782C308.083 561.219 307.942 561.644 307.756 562.051C307.793 561.609 307.876 561.172 308.002 560.747C308.214 559.796 308.496 558.562 308.848 557.012C309.641 553.683 310.75 549.032 312.124 543.324C313.498 537.617 315.084 530.641 316.687 522.96C318.29 515.279 319.964 506.806 321.267 497.839C322.571 488.873 323.487 480.223 323.874 472.454C324.262 464.686 324.28 457.551 323.874 451.632C323.786 448.655 323.557 445.995 323.364 443.634C323.281 442.46 323.193 441.368 323.099 440.358C322.994 439.371 322.888 438.455 322.8 437.609C322.624 436.042 322.483 434.773 322.395 433.804C322.334 433.367 322.316 432.924 322.342 432.483Z" fill="#263238"/>
<path d="M47.8633 582.573C47.9022 581.756 48.0382 580.946 48.2685 580.16C48.8306 578.039 49.5732 575.971 50.4882 573.977C53.498 567.327 58.1828 561.573 64.0838 557.278C69.9849 552.983 76.9002 550.293 84.1527 549.472C86.3324 549.207 88.5314 549.136 90.7236 549.261C91.5309 549.271 92.3346 549.371 93.1194 549.561C90.1754 549.578 87.2348 549.76 84.3113 550.107C77.2235 551.09 70.4879 553.808 64.7017 558.017C58.9154 562.227 54.2572 567.8 51.1399 574.241C49.9028 576.959 48.8091 579.741 47.8633 582.573Z" fill="#263238"/>
<path d="M61.1107 535.75C61.5651 535.635 62.0348 535.593 62.5023 535.626C63.7673 535.603 65.0325 535.662 66.2898 535.802C70.4487 536.225 74.5248 537.246 78.3922 538.832C82.2553 540.436 85.8729 542.577 89.1381 545.192C90.1231 545.979 91.0585 546.826 91.939 547.729C92.5556 548.38 92.8727 548.75 92.8374 548.803C92.8022 548.856 91.2872 547.57 88.7329 545.703C82.0897 540.824 74.3549 537.643 66.2017 536.437C63.0836 535.978 61.1107 535.908 61.1107 535.75Z" fill="#263238"/>
<path d="M120.495 414.074C120.367 413.241 120.319 412.397 120.354 411.555C120.354 409.934 120.248 407.609 120.055 404.738C119.027 389.72 114.913 375.075 107.97 361.719C106.649 359.164 105.504 357.121 104.676 355.747C104.211 355.047 103.816 354.304 103.495 353.527C104.058 354.154 104.559 354.832 104.993 355.553C105.909 356.892 107.142 358.883 108.516 361.419C115.829 374.732 119.987 389.546 120.671 404.72C120.777 407.609 120.777 410.005 120.671 411.573C120.699 412.41 120.64 413.249 120.495 414.074Z" fill="#263238"/>
<path d="M230.35 499.39C230.312 499.728 230.229 500.06 230.103 500.376C229.892 501.01 229.628 501.979 229.152 503.142C227.868 506.508 226.269 509.746 224.378 512.813C218.126 523.039 209.052 531.24 198.247 536.429C187.443 541.617 175.368 543.571 163.479 542.056C159.893 541.61 156.355 540.838 152.909 539.748C151.694 539.378 150.778 538.973 150.161 538.744C149.837 538.639 149.525 538.504 149.227 538.339C149.227 538.251 150.584 538.709 153.015 539.396C156.474 540.366 160.01 541.038 163.584 541.404C175.338 542.787 187.243 540.802 197.912 535.681C208.581 530.56 217.576 522.513 223.85 512.478C225.768 509.464 227.441 506.301 228.853 503.018C229.716 500.693 230.28 499.354 230.35 499.39Z" fill="#263238"/>
<path d="M109.468 631.599C109.379 631.511 108.481 632.797 106.332 634.559C103.188 636.932 99.5904 638.635 95.7621 639.562C90.1231 640.973 84.2976 641.49 78.4982 641.095C71.945 640.619 64.7047 639.844 57.2002 638.734C50.1314 637.819 43.1691 636.214 36.413 633.942C33.5931 632.703 31.0117 630.98 28.7852 628.851C26.8217 627.01 25.051 624.974 23.5004 622.774C21.2031 619.595 19.2374 616.189 17.6341 612.609C17.088 611.323 16.6653 610.337 16.401 609.65C16.2968 609.289 16.1426 608.945 15.943 608.628C16.0093 608.993 16.1035 609.352 16.2248 609.702C16.4362 610.425 16.8062 611.464 17.317 612.75C18.795 616.427 20.6925 619.92 22.9719 623.161C24.5123 625.418 26.2834 627.508 28.2568 629.397C30.5285 631.611 33.1773 633.4 36.0783 634.682C42.8764 637.044 49.9022 638.691 57.0417 639.597C64.599 640.725 71.8217 641.464 78.4277 641.905C84.3153 642.251 90.2203 641.656 95.9206 640.143C99.7777 639.148 103.38 637.347 106.49 634.858C107.31 634.151 108.059 633.366 108.728 632.515C109.012 632.243 109.261 631.935 109.468 631.599Z" fill="#263238"/>
<path d="M118.927 444.022C118.698 444.022 112.638 467.434 105.433 496.465C98.2281 525.497 92.5733 549.067 92.82 549.138C93.0666 549.208 99.109 525.708 106.314 496.677C113.519 467.645 119.174 444.075 118.927 444.022Z" fill="#263238"/>
<path d="M126.238 576.637C126.426 576.008 126.527 575.356 126.538 574.699C126.714 572.943 126.755 571.176 126.661 569.414C126.46 566.726 125.568 564.135 124.071 561.892C123.224 560.558 122.238 559.318 121.129 558.193C119.902 557.02 118.535 556.002 117.06 555.163C111.842 552.425 106.194 550.602 100.36 549.772C98.6083 549.52 96.8439 549.367 95.075 549.314C94.4268 549.218 93.7678 549.218 93.1196 549.314C93.1196 549.455 95.8853 549.561 100.272 550.353C105.976 551.336 111.491 553.202 116.62 555.885C118.034 556.689 119.346 557.659 120.53 558.774C121.6 559.847 122.556 561.028 123.384 562.297C124.843 564.387 125.752 566.81 126.027 569.344C126.183 571.101 126.236 572.865 126.185 574.628C126.125 575.298 126.143 575.972 126.238 576.637Z" fill="#263238"/>
<g opacity="0.3">
<path d="M319.7 511.457C334.339 486.671 334.656 454.468 321.884 428.66C325.974 456.158 325.091 484.166 319.277 511.351" fill="black"/>
</g>
<path d="M296.358 622.633C291.742 613.93 255.753 590.923 255.753 590.923L265.494 588.669L276.258 593.214C277.072 596.862 278.651 600.297 280.891 603.29C284.837 608.927 291.549 603.096 291.549 603.096L287.004 581.305L265.723 568.498C265.723 568.498 245.711 571.563 242.47 573.113L233.944 580.917C230.191 583.859 219.375 595.433 216.415 595.786C213.456 596.138 120.495 575.263 120.495 575.263C107.759 585.357 101.117 605.386 99.0385 619.849C99.0385 619.849 96.766 626.896 99.2323 630.807L213.262 639.756L237.432 646.432C243.904 649.109 250.534 651.386 257.285 653.25C265.318 655.011 270.726 652.351 270.955 647.965C271.184 643.578 264.931 643.032 264.931 643.032C259.598 641.119 254.407 638.835 249.393 636.197C245.722 633.751 242.699 630.451 240.585 626.579L249.199 627.6C249.199 627.6 267.52 640.319 274.408 644.054C281.296 647.789 282.652 640.936 283.216 638.769C283.78 636.602 262.64 616.027 262.64 616.027C262.64 616.027 282.741 628.358 286.352 631.529C289.963 634.7 295.319 635.598 296.464 633.502C297.609 631.406 300.956 631.335 296.358 622.633Z" fill="#FFBE9D"/>
<path d="M197.249 624.641C197.146 624.179 197.111 623.704 197.143 623.232C197.123 622.678 197.158 622.123 197.249 621.576C197.32 620.843 197.455 620.118 197.654 619.409C198.8 615.294 200.785 611.462 203.485 608.152C206.117 604.831 209.067 601.775 212.293 599.027C213.559 597.818 214.946 596.744 216.433 595.821C215.261 597.108 214.014 598.326 212.698 599.467C209.63 602.321 206.78 605.401 204.172 608.681C201.532 611.905 199.524 615.599 198.253 619.567C197.337 622.633 197.425 624.659 197.249 624.641Z" fill="#EB996E"/>
<path d="M254.924 590.272C252.863 590.576 250.759 590.388 248.785 589.723C246.81 589.059 245.02 587.937 243.562 586.449C243.703 586.255 245.905 587.894 249.058 588.915C252.211 589.937 254.924 590.025 254.924 590.272Z" fill="#EB996E"/>
<path d="M260.914 614.124C254.711 612.179 248.688 609.703 242.91 606.725C246.055 607.556 249.121 608.665 252.07 610.037C255.129 611.147 258.087 612.514 260.914 614.124Z" fill="#EB996E"/>
<path d="M241.606 626.315C239.984 625.943 238.411 625.381 236.921 624.641C235.321 624.176 233.783 623.519 232.34 622.686C235.702 623.028 238.906 624.283 241.606 626.315Z" fill="#EB996E"/>
<path d="M257.902 615.71C256.609 616.601 255.427 617.641 254.378 618.81C253.527 620.143 252.841 621.575 252.335 623.073C252.229 623.073 252.123 622.492 252.335 621.576C252.55 620.384 253.045 619.261 253.779 618.299C254.508 617.337 255.456 616.564 256.545 616.044C257.338 615.657 257.902 615.621 257.902 615.71Z" fill="#EB996E"/>
<path d="M266.393 602.409C266.516 602.621 264.93 603.484 263.891 605.298C263.362 606.464 262.932 607.672 262.605 608.91C262.35 608.235 262.269 607.506 262.371 606.792C262.472 606.077 262.753 605.4 263.186 604.823C264.367 602.779 266.357 602.18 266.393 602.409Z" fill="#EB996E"/>
<path d="M263.539 578.627C263.433 578.627 263.116 578.275 262.852 577.482C262.58 576.443 262.58 575.351 262.852 574.311C263.104 573.267 263.627 572.307 264.367 571.528C264.948 570.947 265.424 570.735 265.494 570.823C264.757 571.979 264.165 573.222 263.733 574.523C263.482 575.876 263.417 577.257 263.539 578.627Z" fill="#EB996E"/>
<path d="M98.2986 634.066C98.4159 633.196 98.4631 632.318 98.4396 631.441C98.4396 630.595 98.4395 629.574 98.5629 628.376C98.6862 627.178 98.6686 625.821 98.8447 624.341C99.5056 616.524 101.182 608.825 103.83 601.44C105.318 597.406 107.12 593.495 109.221 589.743C110.278 587.982 111.194 586.414 112.251 584.987C112.744 584.265 113.237 583.578 113.713 582.908C114.188 582.239 114.699 581.64 115.175 581.147C118.962 576.478 121.869 574.1 121.728 573.959C120.989 574.429 120.304 574.979 119.685 575.597C118.892 576.263 118.139 576.974 117.43 577.729C116.602 578.592 115.668 579.491 114.664 580.724C114.188 581.323 113.678 581.922 113.149 582.485C112.621 583.049 112.145 583.842 111.616 584.564C110.524 585.991 109.573 587.647 108.498 589.338C106.322 593.108 104.472 597.056 102.967 601.141C100.294 608.582 98.6872 616.363 98.1929 624.253C98.0696 625.751 98.0873 627.125 98.052 628.323C98.0168 629.521 98.052 630.56 98.052 631.406C98.0437 632.298 98.1263 633.19 98.2986 634.066Z" fill="#263238"/>
<g opacity="0.3">
<path d="M59.1729 552.591C69.8659 548.175 81.6453 547.1 92.9608 549.508C83.234 549.06 73.6101 551.661 65.4333 556.948C57.2565 562.234 50.9353 569.943 47.3524 578.997C46.5421 581.182 44.9214 583.771 42.596 583.437C40.2707 583.102 39.6365 580.407 39.6365 578.24C39.6189 566.842 48.656 556.977 59.1729 552.591Z" fill="black"/>
</g>
<path d="M323.082 424.415C323.609 424.319 324.119 424.147 324.597 423.904C325.566 423.534 326.922 422.918 328.578 422.142C332.9 419.985 337.026 417.457 340.909 414.585C344.779 411.728 348.397 408.545 351.726 405.072C352.994 403.733 353.998 402.606 354.632 401.813C355.267 401.021 355.619 400.545 355.566 400.492C355.513 400.439 353.91 402.078 351.268 404.614C347.834 407.926 344.192 411.016 340.363 413.863C336.524 416.687 332.505 419.258 328.331 421.561C325.02 423.376 322.976 424.292 323.082 424.415Z" fill="white"/>
<path d="M119.667 431.056C119.8 431.175 119.948 431.276 120.108 431.356L121.464 432.166C122.644 432.888 124.441 433.928 126.749 435.09C133.363 438.485 140.223 441.376 147.272 443.74C157.742 447.204 168.485 449.785 179.386 451.456C192.735 453.443 206.198 454.561 219.692 454.803C234.049 455.138 247.719 454.803 260.209 454.592C271.231 454.437 282.232 453.607 293.152 452.108C300.519 451.063 307.781 449.377 314.855 447.069C317.339 446.224 319.259 445.519 320.527 444.973L321.972 444.356C322.144 444.298 322.309 444.221 322.465 444.127L321.937 444.268L320.457 444.797C319.171 445.29 317.233 445.942 314.732 446.735C307.646 448.887 300.401 450.472 293.064 451.473C282.16 452.867 271.184 453.626 260.192 453.746C247.86 453.975 234.12 454.222 219.798 453.887C206.342 453.65 192.914 452.556 179.597 450.61C168.729 448.995 158.012 446.491 147.554 443.123C140.509 440.821 133.634 438.031 126.978 434.773C124.635 433.611 122.82 432.677 121.693 432.008L120.301 431.285C119.843 431.109 119.685 431.039 119.667 431.056Z" fill="white"/>
<path d="M322.412 493.84C323.155 493.772 323.888 493.618 324.596 493.382L330.463 491.779C335.395 490.388 342.195 488.397 349.7 486.16C357.204 483.923 363.969 481.826 368.866 480.276L374.644 478.409C375.361 478.203 376.056 477.932 376.723 477.598C375.98 477.667 375.247 477.82 374.539 478.056L368.672 479.659C363.74 481.051 356.94 483.042 349.435 485.279C341.931 487.516 335.166 489.595 330.269 491.145L324.491 493.03C323.771 493.226 323.074 493.498 322.412 493.84Z" fill="white"/>
<path d="M317.286 591.205C317.286 591.434 334.902 586.396 356.57 579.931C378.238 573.466 395.661 568.022 395.59 567.776C395.52 567.529 377.974 572.567 356.306 579.05C334.638 585.533 317.216 590.959 317.286 591.205Z" fill="white"/>
<path d="M62.6786 380.551C63.271 381.126 63.9202 381.639 64.6164 382.083C65.8848 383.017 67.7873 384.32 70.1655 385.871C82.6074 393.918 95.9523 400.475 109.925 405.407C112.603 406.341 114.787 407.045 116.32 407.486C117.096 407.768 117.899 407.969 118.716 408.085C117.982 407.705 117.216 407.392 116.426 407.151L110.137 404.808C104.852 402.782 97.6116 399.787 89.8604 396C82.1093 392.212 75.3094 388.302 70.4826 385.342L64.775 381.819C64.1194 381.328 63.4173 380.904 62.6786 380.551Z" fill="white"/>
<path d="M27.5872 480.646C28.5044 481.167 29.4582 481.62 30.441 482.002C32.2907 482.83 35.0388 483.922 38.4564 485.173C56.3208 491.679 75.0765 495.41 94.0708 496.236C97.7174 496.395 100.659 496.43 102.703 496.36C103.756 496.383 104.809 496.336 105.856 496.219C104.813 496.061 103.758 495.99 102.703 496.007C100.677 496.007 97.735 495.831 94.106 495.584C84.6704 494.985 75.2843 493.767 66.0082 491.938C56.7396 490.076 47.6012 487.616 38.6502 484.574C35.215 483.394 32.4493 482.39 30.5467 481.668C29.5912 481.243 28.6011 480.901 27.5872 480.646Z" fill="white"/>
<path d="M78.2162 640.742C78.23 640.411 78.2004 640.079 78.1282 639.756C78.0225 639.033 77.8639 638.117 77.6878 636.99C77.5116 635.862 77.2473 634.312 77.0712 632.586C76.895 630.859 76.5955 628.922 76.5251 626.737C76.5251 625.663 76.3842 624.518 76.3137 623.337C76.2432 622.157 76.3137 620.906 76.3137 619.638C76.3137 617.084 76.4194 614.353 76.5603 611.482C77.023 605.263 77.9714 599.09 79.3965 593.02C80.8917 586.964 82.853 581.033 85.2627 575.28C86.4606 572.673 87.5352 570.154 88.786 567.917C89.3849 566.789 89.931 565.679 90.5476 564.64L92.3092 561.716C93.3838 559.813 94.5464 558.193 95.4801 556.766C96.4138 555.339 97.2417 554.106 98.0345 553.137L99.6904 550.864C99.9029 550.613 100.081 550.335 100.219 550.036C99.9746 550.25 99.7505 550.486 99.5494 550.741L97.7878 552.925C96.8284 554.052 95.9287 555.228 95.0925 556.449C94.106 557.875 92.9081 559.461 91.7983 561.346L90.0367 564.27C89.4201 565.292 88.8564 566.419 88.2751 567.547C87.0067 569.784 85.8793 572.303 84.7518 574.928C79.6765 586.471 76.6941 598.824 75.9437 611.411C75.838 614.3 75.6795 617.048 75.7852 619.62C75.7852 620.906 75.7852 622.157 75.8909 623.355C75.9966 624.553 76.067 625.68 76.1551 626.772C76.2784 628.974 76.6308 630.912 76.8598 632.639C77.0888 634.365 77.353 635.845 77.6173 637.025C77.8815 638.205 78.0753 639.051 78.2339 639.791C78.1935 640.106 78.1876 640.425 78.2162 640.742Z" fill="white"/>
<path d="M10.2528 586.748C10.3409 586.748 10.3937 585.304 10.7989 582.767C11.4212 579.184 12.6105 575.723 14.3221 572.514C16.8292 567.75 20.2049 563.496 24.2753 559.972C29.2348 555.621 34.9813 552.261 41.2045 550.071C47.464 547.98 54.002 546.84 60.5999 546.689C65.9982 546.539 71.4004 546.745 76.7716 547.306C81.3695 547.728 85.0865 548.204 87.6584 548.486L90.618 548.803C90.9629 548.85 91.3125 548.85 91.6573 548.803C91.334 548.684 90.9964 548.607 90.6532 548.574L87.7113 548.081C85.157 547.676 81.4399 547.13 76.8421 546.601C71.4414 545.957 66.0027 545.686 60.5647 545.791C53.8772 545.923 47.2485 547.069 40.905 549.191C34.5734 551.433 28.7351 554.879 23.7116 559.338C19.5948 562.953 16.21 567.324 13.7408 572.215C12.0688 575.528 10.9784 579.103 10.517 582.785C10.3785 583.777 10.3078 584.778 10.3056 585.78C10.2518 586.099 10.2341 586.424 10.2528 586.748Z" fill="white"/>
<path d="M199.768 535.75C200.094 535.849 200.431 535.909 200.772 535.926L203.644 536.225L214.213 537.106C223.145 537.793 235.494 538.639 249.129 539.343C262.764 540.048 275.148 540.488 284.115 540.594C288.589 540.594 292.218 540.594 294.684 540.594H297.556C297.894 540.605 298.232 540.569 298.56 540.488C298.23 540.42 297.893 540.391 297.556 540.4H294.684L284.115 540.136C275.183 539.872 262.816 539.343 249.182 538.621L214.266 536.648L203.696 536.049L200.807 535.926C200.47 535.822 200.121 535.762 199.768 535.75Z" fill="white"/>
<g opacity="0.3">
<path d="M189.533 539.414C178.435 542.673 163.109 543.465 152.239 539.414C160.695 551.446 177.026 555.797 191.207 551.886C205.388 547.975 218.441 533.794 219.533 519.12C212.663 528.368 200.631 536.119 189.533 539.414Z" fill="black"/>
</g>
<path d="M99.5318 527.805C99.8238 527.912 100.124 527.994 100.43 528.051L102.985 528.597C105.222 529.055 108.446 529.654 112.462 530.359C120.477 531.768 131.593 533.495 143.907 535.01C156.221 536.525 167.442 537.511 175.616 538.075C179.668 538.357 182.962 538.551 185.235 538.639L187.842 538.727C188.145 538.776 188.455 538.776 188.758 538.727C188.464 538.651 188.163 538.604 187.859 538.586L185.252 538.322L175.669 537.458C167.566 536.736 156.397 535.697 144.066 534.129C131.734 532.561 120.654 530.993 112.621 529.76L103.108 528.28L100.501 527.91C100.186 527.818 99.8584 527.783 99.5318 527.805Z" fill="white"/>
<g opacity="0.3">
<path d="M117.994 449.377C120.777 481.263 112.092 512.901 103.478 543.73C103.095 545.645 102.288 547.451 101.117 549.014C100.512 549.796 99.6704 550.36 98.7179 550.624C97.7654 550.887 96.7532 550.836 95.8325 550.477C93.1372 549.103 93.5071 545.192 94.2646 542.303L118.205 450.698" fill="black"/>
</g>
<path d="M564.036 481.139L527.835 658.887H213.561C211.898 658.887 210.303 658.226 209.127 657.05C207.951 655.874 207.29 654.279 207.29 652.616C207.29 650.952 207.951 649.357 209.127 648.181C210.303 647.005 211.898 646.344 213.561 646.344H276.839L310.398 481.034C310.712 479.494 311.544 478.109 312.756 477.109C313.968 476.108 315.486 475.554 317.057 475.537L557.236 472.912C558.26 472.899 559.274 473.116 560.203 473.546C561.132 473.977 561.953 474.61 562.605 475.399C563.257 476.188 563.724 477.113 563.972 478.107C564.22 479.1 564.242 480.136 564.036 481.139Z" fill="#E0E0E0"/>
<path d="M564.036 481.139C564.083 480.965 564.118 480.789 564.142 480.611C564.21 480.073 564.21 479.528 564.142 478.99C564.018 477.928 563.654 476.908 563.077 476.008C562.5 475.107 561.726 474.35 560.813 473.793C560.169 473.411 559.467 473.137 558.734 472.983C557.921 472.831 557.093 472.778 556.268 472.824H550.613L536.52 472.948L445.708 473.811L382.396 474.445L346.917 474.815L328.314 475.009L318.819 475.097C318.008 475.097 317.251 475.097 316.388 475.097C315.541 475.18 314.717 475.419 313.957 475.801C312.384 476.54 311.133 477.823 310.433 479.413C310.126 480.19 309.908 481 309.782 481.826L309.288 484.222C308.971 485.807 308.636 487.411 308.319 489.014C307.65 492.237 306.998 495.479 306.329 498.72L302.312 518.503C299.599 531.833 296.828 545.474 293.997 559.426C288.325 587.295 282.424 616.273 276.381 646.15L276.804 645.798H214.583C213.765 645.759 212.944 645.806 212.135 645.939C210.449 646.356 208.987 647.402 208.048 648.863C207.514 649.64 207.148 650.52 206.976 651.447C206.803 652.373 206.828 653.326 207.047 654.243C207.266 655.159 207.675 656.02 208.248 656.768C208.821 657.517 209.545 658.137 210.373 658.587C211.284 659.079 212.298 659.351 213.333 659.38H295.195H380.282H527.835H528.099V659.116C539.18 604.506 548.182 560.042 554.418 529.249C557.501 513.853 559.914 501.873 561.553 493.735C562.363 489.665 562.979 486.565 563.314 484.469C563.649 482.372 563.896 481.298 563.896 481.298C563.896 481.298 563.649 482.372 563.209 484.451L561.271 493.682C559.597 501.821 557.131 513.8 553.96 529.161L527.36 658.993L527.694 658.711H380.141H213.209C212.312 658.676 211.433 658.442 210.637 658.024C209.918 657.629 209.289 657.088 208.792 656.435C208.294 655.782 207.94 655.032 207.75 654.233C207.561 653.435 207.542 652.605 207.693 651.799C207.844 650.992 208.163 650.226 208.629 649.55C209.456 648.336 210.717 647.485 212.152 647.172C212.904 647.052 213.665 647.005 214.425 647.031H277.192V646.696C283.252 616.749 289.118 587.823 294.808 559.954C297.638 546.026 300.404 532.385 303.105 519.032L307.227 498.984C307.879 495.725 308.531 492.502 309.183 489.278C309.517 487.675 309.834 486.072 310.169 484.469L310.645 482.09C310.76 481.311 310.967 480.549 311.261 479.818C311.85 478.415 312.918 477.267 314.274 476.577C314.954 476.241 315.687 476.027 316.44 475.942C317.18 475.942 318.026 475.942 318.801 475.942L328.314 475.837L346.917 475.625L382.378 475.203L445.691 474.463L536.502 473.353L550.595 473.159L556.25 473.071C557.063 473.021 557.878 473.063 558.681 473.194C559.393 473.354 560.076 473.621 560.707 473.987C561.614 474.52 562.387 475.255 562.964 476.135C563.541 477.015 563.908 478.016 564.036 479.06C564.125 479.751 564.125 480.449 564.036 481.139Z" fill="#263238"/>
<path d="M419.231 562.544C419.231 564.596 419.84 566.602 420.98 568.308C422.12 570.015 423.74 571.345 425.636 572.13C427.532 572.915 429.618 573.121 431.631 572.72C433.644 572.32 435.493 571.332 436.944 569.881C438.395 568.43 439.383 566.581 439.784 564.568C440.184 562.555 439.978 560.469 439.193 558.573C438.408 556.677 437.078 555.057 435.372 553.916C433.665 552.776 431.659 552.168 429.607 552.168C426.855 552.168 424.216 553.261 422.27 555.207C420.324 557.153 419.231 559.792 419.231 562.544Z" fill="white"/>
<path d="M563.755 482.584C563.755 482.584 563.385 482.584 562.662 482.584H547.266L502.327 482.795L354.086 483.835L332.647 484.011H327.363C326.461 483.969 325.558 484.022 324.667 484.169C323.765 484.346 322.904 484.693 322.131 485.191C320.56 486.183 319.422 487.73 318.942 489.525C318.537 491.286 318.255 492.907 317.903 494.598C315.243 507.986 312.618 520.899 310.24 533.195C305.377 557.858 300.991 579.966 297.327 598.587L288.677 642.627C287.691 647.824 286.916 651.858 286.37 654.624C286.123 655.98 285.929 657.02 285.788 657.759C285.647 658.499 285.63 658.816 285.63 658.816C285.63 658.816 285.735 658.464 285.876 657.777C286.017 657.09 286.264 656.015 286.546 654.659C287.109 651.893 287.937 647.877 289.012 642.698C291.126 632.269 294.156 617.225 297.926 598.657L311.032 533.301C313.481 520.97 316.071 508.092 318.731 494.704C319.083 493.048 319.4 491.321 319.752 489.701C320.19 488.118 321.201 486.756 322.589 485.878C323.281 485.458 324.046 485.171 324.843 485.032C325.676 484.895 326.52 484.848 327.363 484.892H332.647L354.086 484.733L502.344 483.429L547.266 482.936L559.492 482.76H562.662L563.755 482.584Z" fill="#263238"/>
<path d="M144.048 212.633C143.686 229.068 146.808 245.393 153.208 260.535C159.609 275.677 169.143 289.292 181.183 300.485C186.738 284.454 192.275 268.423 197.795 252.392" fill="#263238"/>
<path d="M269.194 116.977C254.942 109.19 237.731 108.063 221.806 111.251C205.881 114.44 191.048 121.645 176.99 129.784C169.098 134.346 161.241 139.367 155.569 146.484C145.228 159.502 134.993 180.888 134.007 197.571C133.196 210.994 138.34 244.589 144.013 256.779C149.209 267.965 173.573 276.491 185.605 279.257L295.953 150.835C293.958 143.7 290.565 137.033 285.971 131.22C281.378 125.408 275.675 120.566 269.194 116.977Z" fill="#263238"/>
<path d="M288.219 134.276L261.795 129.555C276.258 163.994 280.186 242.739 288.448 279.169C298.208 265.076 320.844 221.916 319.629 204.776C318.413 187.635 319.558 131.369 288.219 134.276Z" fill="#263238"/>
<path d="M162.774 191.599C164.201 171.481 177.237 154.992 196.773 150.007L257.708 134.47C284.026 131.633 301.607 164.012 303.334 190.436C305.254 219.803 306.434 250.772 302.999 272.686C296.111 316.727 262.358 322.435 262.358 322.435C262.358 322.435 262.358 343.398 262.358 356.258L241.976 440.657L176.286 349.898L162.686 192.163C162.633 191.388 162.774 192.603 162.774 191.599Z" fill="#FFBE9D"/>
<path d="M290.104 223.713C290.119 225.186 289.558 226.607 288.542 227.673C287.525 228.739 286.133 229.366 284.661 229.421C283.942 229.478 283.218 229.392 282.533 229.165C281.849 228.939 281.216 228.578 280.672 228.104C280.129 227.629 279.686 227.051 279.37 226.403C279.053 225.755 278.87 225.05 278.83 224.33C278.815 222.86 279.373 221.442 280.386 220.376C281.399 219.311 282.786 218.682 284.255 218.622C284.976 218.562 285.701 218.647 286.388 218.872C287.075 219.097 287.71 219.458 288.255 219.933C288.8 220.407 289.245 220.986 289.562 221.636C289.88 222.285 290.064 222.991 290.104 223.713Z" fill="#263238"/>
<path d="M296.657 207.683C295.952 208.422 291.672 205.269 285.594 205.287C279.517 205.304 275.024 208.37 274.408 207.63C274.073 207.295 274.795 205.974 276.733 204.547C279.359 202.72 282.484 201.748 285.682 201.763C288.842 201.752 291.924 202.739 294.49 204.582C296.428 206.027 297.062 207.348 296.657 207.683Z" fill="#263238"/>
<path d="M237.114 223.713C237.129 225.186 236.569 226.607 235.552 227.673C234.535 228.739 233.143 229.366 231.671 229.421C230.95 229.481 230.225 229.395 229.538 229.169C228.85 228.942 228.216 228.58 227.672 228.103C227.128 227.627 226.685 227.045 226.37 226.394C226.056 225.743 225.875 225.035 225.84 224.312C225.825 222.842 226.383 221.424 227.396 220.359C228.409 219.293 229.797 218.664 231.266 218.605C231.988 218.545 232.714 218.63 233.402 218.856C234.09 219.083 234.726 219.445 235.271 219.921C235.817 220.398 236.261 220.979 236.578 221.63C236.894 222.282 237.077 222.99 237.114 223.713Z" fill="#263238"/>
<path d="M238.999 207.682C238.295 208.422 233.996 205.269 227.919 205.287C221.841 205.304 217.349 208.37 216.733 207.63C216.415 207.295 217.12 205.974 219.058 204.547C221.672 202.737 224.775 201.766 227.954 201.763C231.113 201.758 234.193 202.744 236.762 204.582C238.7 206.027 239.334 207.348 238.999 207.682Z" fill="#263238"/>
<path d="M257.902 255.422C257.902 255.088 261.654 254.418 267.784 253.661C269.334 253.502 270.797 253.185 271.061 252.128C271.189 250.523 270.82 248.918 270.004 247.53C268.536 243.784 266.997 239.844 265.388 235.71C258.976 218.904 254.343 205.075 255.012 204.829C255.682 204.582 261.442 217.988 267.855 234.776C269.405 238.91 270.879 242.868 272.276 246.65C273.258 248.522 273.551 250.679 273.104 252.745C272.881 253.294 272.534 253.784 272.091 254.178C271.648 254.572 271.121 254.859 270.55 255.017C269.697 255.263 268.813 255.388 267.925 255.387C261.848 255.74 258.025 255.775 257.902 255.422Z" fill="#263238"/>
<path d="M203.925 306.739C203.925 306.739 218.265 337.056 262.341 332.775V322.417C241.793 322.7 221.57 317.272 203.925 306.739Z" fill="#EB996E"/>
<path d="M237.079 185.715C236.48 187.371 230.42 186.596 223.286 187.477C216.151 188.358 210.391 190.313 209.439 188.833C209.017 188.111 210.021 186.561 212.346 184.958C215.432 182.98 218.948 181.771 222.599 181.434C226.245 180.989 229.945 181.411 233.397 182.667C236.022 183.636 237.343 184.922 237.079 185.715Z" fill="#263238"/>
<path d="M294.737 189.08C293.68 190.471 289.452 189.08 284.449 188.992C279.446 188.904 275.148 189.943 274.161 188.498C273.739 187.794 274.408 186.42 276.258 185.099C278.759 183.531 281.668 182.74 284.618 182.825C287.569 182.91 290.428 183.866 292.835 185.574C294.632 186.983 295.213 188.41 294.737 189.08Z" fill="#263238"/>
<path d="M291.373 150.183C288.677 143.559 281.402 139.613 274.267 139.226C267.133 138.838 260.174 141.569 253.938 145.145C227.707 160.312 214.213 196.937 188.3 212.633C181.923 216.491 173.626 212.95 168.2 218.058C162.774 223.167 159.268 231.341 162.263 238.159C158.55 233.548 155.518 228.428 153.261 222.956C151.288 217.371 151.042 210.906 154.001 205.78C156.238 201.887 160.202 198.927 161.277 194.576C162.246 190.736 160.731 186.737 160.889 182.791C161.338 178.781 162.72 174.932 164.923 171.552C175.088 153.601 189.058 137.359 207.044 127.247C218.786 120.467 232.154 117.014 245.711 117.258C259.346 117.564 272.421 122.745 282.564 131.862C288.36 137.27 294.455 142.855 291.373 150.183Z" fill="#263238"/>
<path d="M168.834 223.52C168.376 222.251 145.387 213.972 145.087 238.388C144.788 262.117 168.728 257.448 168.781 256.761C168.834 256.074 168.834 223.52 168.834 223.52Z" fill="#FFBE9D"/>
<path d="M161.541 247.707C161.435 247.707 161.136 247.988 160.431 248.306C159.435 248.702 158.326 248.702 157.33 248.306C154.847 247.372 152.768 243.355 152.697 239.092C152.649 237.054 153.058 235.032 153.895 233.173C154.13 232.435 154.539 231.765 155.088 231.219C155.637 230.673 156.309 230.268 157.049 230.038C157.521 229.914 158.022 229.962 158.464 230.171C158.905 230.38 159.258 230.739 159.462 231.183C159.779 231.852 159.621 232.328 159.762 232.363C159.902 232.398 160.272 231.975 160.079 230.989C159.949 230.406 159.626 229.885 159.163 229.509C158.844 229.258 158.48 229.073 158.09 228.965C157.7 228.856 157.292 228.825 156.89 228.875C155.912 229.057 154.998 229.488 154.236 230.127C153.473 230.766 152.889 231.59 152.539 232.521C151.502 234.56 150.987 236.824 151.041 239.11C151.147 243.901 153.543 248.394 156.978 249.415C157.61 249.607 158.277 249.655 158.929 249.554C159.582 249.453 160.203 249.207 160.748 248.834C161.506 248.288 161.629 247.759 161.541 247.707Z" fill="#EB996E"/>
<path d="M159.392 211.329C159.889 211.107 160.367 210.841 160.819 210.536C161.735 209.955 163.144 209.18 164.8 208C169.479 204.581 173.778 200.671 177.624 196.338C183.22 189.852 188.448 183.06 193.285 175.991C199.112 167.328 205.659 159.172 212.857 151.61C216.698 147.832 220.939 144.483 225.505 141.622C229.784 139.013 234.362 136.931 239.14 135.421C247.251 132.819 255.78 131.773 264.279 132.338C270.013 132.688 275.676 133.795 281.12 135.632C283.075 136.231 284.52 136.883 285.524 137.27C286.023 137.499 286.542 137.682 287.074 137.817C286.605 137.535 286.116 137.288 285.612 137.077C284.199 136.401 282.746 135.812 281.261 135.315C275.822 133.291 270.121 132.057 264.331 131.651C255.732 130.947 247.078 131.904 238.841 134.469C233.969 135.97 229.301 138.065 224.942 140.706C220.308 143.609 216.002 147.005 212.099 150.835C204.856 158.472 198.29 166.724 192.475 175.498C187.69 182.567 182.539 189.382 177.043 195.915C173.274 200.257 169.091 204.222 164.553 207.753C162.932 208.969 161.576 209.796 160.713 210.431C160.248 210.693 159.806 210.994 159.392 211.329Z" fill="#455A64"/>
<path d="M158.846 251.899C157.678 251.684 156.472 251.922 155.473 252.564C154.474 253.207 153.758 254.206 153.47 255.358C153.182 256.511 153.344 257.729 153.923 258.766C154.502 259.803 155.454 260.58 156.586 260.94C157.718 261.299 158.945 261.213 160.016 260.7C161.087 260.187 161.922 259.285 162.351 258.178C162.781 257.071 162.772 255.841 162.327 254.74C161.882 253.639 161.034 252.749 159.955 252.252" fill="white"/>
<path d="M159.955 252.252C160.974 253.073 161.717 254.185 162.087 255.44C162.256 256.087 162.26 256.766 162.1 257.415C161.94 258.064 161.621 258.663 161.171 259.157C160.641 259.782 159.939 260.236 159.153 260.463C158.366 260.69 157.53 260.679 156.749 260.433C155.968 260.186 155.277 259.715 154.763 259.077C154.249 258.44 153.935 257.665 153.86 256.849C153.788 256.192 153.879 255.526 154.125 254.912C154.371 254.297 154.764 253.753 155.27 253.326C156.276 252.52 157.506 252.04 158.793 251.952C158.793 251.952 158.44 251.705 157.683 251.688C156.608 251.697 155.567 252.062 154.723 252.727C154.064 253.216 153.542 253.867 153.209 254.617C152.875 255.367 152.742 256.191 152.821 257.008C152.888 258.03 153.261 259.008 153.892 259.814C154.524 260.621 155.383 261.218 156.359 261.528C157.335 261.838 158.382 261.847 159.363 261.553C160.344 261.258 161.214 260.675 161.858 259.879C162.392 259.259 162.757 258.512 162.917 257.709C163.078 256.907 163.028 256.077 162.774 255.299C162.494 254.272 161.873 253.372 161.012 252.745C160.396 252.269 159.973 252.199 159.955 252.252Z" fill="#263238"/>
<path d="M165.363 218.041C164.994 224.524 164.694 231.359 167.689 237.119C170.684 242.88 178.259 246.808 183.86 243.584C188.458 240.96 189.832 235.058 190.625 229.826C192.862 214.711 193.902 199.438 196.28 184.341L165.363 218.041Z" fill="#263238"/>
<path d="M285.524 138.909C285.524 139.032 283.428 138.504 279.64 138.38C274.265 138.298 268.926 139.274 263.926 141.252C260.478 142.587 257.183 144.288 254.097 146.325C250.559 148.7 247.171 151.288 243.95 154.076C236.486 160.389 229.814 167.582 224.079 175.498C221.066 179.726 218.388 184.077 215.499 188.111C212.755 192.033 209.563 195.622 205.987 198.804C199.834 204.018 193.108 208.516 185.939 212.21C179.862 215.416 174.788 217.671 171.283 219.256L167.231 221.018C166.764 221.247 166.274 221.424 165.769 221.547C166.185 221.244 166.634 220.99 167.108 220.789L171.071 218.834C174.595 217.072 179.51 214.747 185.481 211.452C192.521 207.662 199.125 203.114 205.176 197.888C208.668 194.739 211.778 191.192 214.442 187.318C217.279 183.337 219.939 178.986 222.986 174.705C228.784 166.704 235.553 159.455 243.139 153.125C246.428 150.329 249.887 147.74 253.498 145.374C256.669 143.338 260.054 141.654 263.592 140.353C268.715 138.412 274.187 137.56 279.658 137.852C281.134 137.938 282.601 138.144 284.044 138.468C284.555 138.547 285.053 138.695 285.524 138.909Z" fill="#455A64"/>
<path d="M164.712 203.384C164.071 203.935 163.367 204.408 162.615 204.793L156.591 208.317L154.582 209.462C153.789 209.942 152.898 210.237 151.975 210.325C151.414 210.386 150.849 210.256 150.372 209.955C150.117 209.776 149.906 209.543 149.753 209.271C149.601 209 149.511 208.698 149.491 208.387C149.543 207.298 149.931 206.252 150.601 205.392L157.648 194.224L158.599 195.087C153.947 198.513 148.248 200.214 142.48 199.896C141.743 199.891 141.011 199.766 140.313 199.526C139.923 199.399 139.564 199.19 139.261 198.913C138.957 198.637 138.715 198.3 138.552 197.923C138.416 197.521 138.383 197.092 138.453 196.674C138.524 196.256 138.697 195.862 138.957 195.527C139.349 194.987 139.797 194.491 140.296 194.048C143.428 191.019 146.147 187.589 148.381 183.848C150.352 180.333 152.071 176.683 153.525 172.926C153.415 174.017 153.16 175.089 152.768 176.114C151.881 178.965 150.7 181.717 149.245 184.323C147.08 188.208 144.375 191.767 141.212 194.893C140.331 195.739 139.45 196.655 139.785 197.448C140.119 198.24 141.423 198.575 142.674 198.575C145.387 198.711 148.104 198.384 150.707 197.606C153.3 196.845 155.748 195.654 157.947 194.083L160.766 192.004L158.881 194.946L151.834 206.027C151.284 206.69 150.936 207.497 150.83 208.352C150.83 209.021 151.429 209.409 152.187 209.356C153.71 209.056 155.159 208.457 156.45 207.594L162.651 204.424C163.299 204.006 163.99 203.657 164.712 203.384Z" fill="#455A64"/>
<path d="M234.877 266.591C235.32 264.786 236.382 263.194 237.88 262.092C239.377 260.991 241.214 260.451 243.069 260.566C244.424 260.733 245.716 261.234 246.83 262.024C247.943 262.814 248.842 263.869 249.446 265.094C250.036 266.326 250.373 267.664 250.437 269.029C250.501 270.394 250.289 271.757 249.816 273.039L249.675 273.602C248.409 274.966 246.754 275.905 244.935 276.293C243.116 276.681 241.221 276.498 239.51 275.769C237.835 274.964 236.472 273.627 235.634 271.967C234.797 270.308 234.53 268.418 234.877 266.591Z" fill="#EB996E"/>
<path d="M254.096 273.779C254.096 272.863 247.948 273.144 243.315 268.106C238.682 263.068 239.052 256.479 238.189 256.479C237.801 256.479 237.061 257.994 237.132 260.778C237.258 264.375 238.649 267.812 241.06 270.484C243.387 273.055 246.621 274.621 250.08 274.853C252.617 274.959 254.149 274.201 254.096 273.779Z" fill="#263238"/>
<path d="M47.0002 647.102C47.1347 647.119 47.2709 647.119 47.4054 647.102L48.6385 647.225L53.342 647.613C57.429 647.947 63.348 648.335 70.6764 648.775C85.3155 649.638 105.557 650.537 127.929 650.907C150.302 651.277 170.596 651.065 185.252 650.678C192.581 650.502 198.517 650.29 202.604 650.114L207.325 649.867H202.604L185.235 650.167C170.578 650.378 150.319 650.484 127.947 650.167C105.574 649.85 85.3507 649.004 70.7116 648.3L53.3596 647.436L48.6385 647.225H47.4229L47.0002 647.102Z" fill="white"/>
</svg>
