<svg width="960" height="1080" viewBox="0 0 960 1080" fill="none" xmlns="http://www.w3.org/2000/svg">
<rect width="960" height="1080" fill="#9BC31C"/>
<path d="M78 843.887C78 844.151 251.062 844.345 464.482 844.345C677.903 844.345 851 844.151 851 843.887C851 843.623 677.973 843.429 464.482 843.429C250.991 843.429 78 843.64 78 843.887Z" fill="#263238"/>
<path d="M693.759 483.3H556.811L530.651 522.056L505.125 483.3H370.607C368.562 483.3 366.537 482.898 364.648 482.115C362.758 481.332 361.042 480.185 359.596 478.739C358.15 477.293 357.002 475.576 356.22 473.687C355.437 471.798 355.034 469.773 355.034 467.728V201C355.032 198.954 355.433 196.927 356.215 195.036C356.996 193.144 358.143 191.425 359.589 189.977C361.036 188.529 362.753 187.381 364.644 186.597C366.534 185.813 368.561 185.41 370.607 185.41H693.759C695.806 185.41 697.832 185.813 699.723 186.597C701.613 187.381 703.331 188.529 704.777 189.977C706.223 191.425 707.37 193.144 708.152 195.036C708.933 196.927 709.334 198.954 709.332 201V467.798C709.313 471.916 707.664 475.859 704.746 478.764C701.828 481.669 697.877 483.3 693.759 483.3Z" fill="#FAFAFA"/>
<path d="M693.759 483.3H694.605C695.453 483.246 696.296 483.122 697.124 482.93C699.949 482.293 702.538 480.875 704.597 478.838C706.655 476.801 708.101 474.227 708.768 471.409C708.93 470.742 709.054 470.065 709.138 469.384C709.138 468.679 709.226 467.957 709.138 467.217C709.138 465.737 709.138 464.187 709.138 462.584C709.138 456.148 709.138 448.755 709.138 440.405C709.138 406.934 709.05 358.701 708.997 299.035C708.997 269.175 708.997 236.497 708.997 201.406C709.072 198.119 708.084 194.897 706.18 192.218C704.275 189.539 701.556 187.546 698.428 186.537C696.301 185.891 694.074 185.64 691.857 185.798H606.594H482.77H371.118C370.396 185.798 369.726 185.798 369.039 185.798C368.357 185.878 367.68 186.002 367.014 186.168C364.32 186.815 361.858 188.197 359.902 190.159C357.946 192.122 356.572 194.588 355.933 197.283C355.483 199.776 355.335 202.313 355.493 204.841V317.585C355.493 356.604 355.493 394.409 355.493 430.645V464.116C355.39 466.281 355.484 468.451 355.774 470.599C356.183 472.674 357.02 474.641 358.234 476.374C359.448 478.106 361.01 479.565 362.821 480.658C364.621 481.747 366.633 482.438 368.722 482.684C370.783 482.895 372.985 482.772 375.099 482.807H412.816H505.125H505.319L505.424 482.966L530.915 521.721H530.386L556.582 482.966L556.67 482.842H556.811L657.857 483.3L556.899 483.424L557.128 483.3C549.024 495.373 540.316 508.321 531.003 522.144L530.739 522.549L530.474 522.144L504.931 483.388L505.213 483.547H412.904H375.152C373.003 483.547 370.907 483.635 368.687 483.424C365.373 483.045 362.259 481.641 359.78 479.409C357.301 477.176 355.581 474.226 354.858 470.969C354.544 468.77 354.437 466.547 354.541 464.328V430.857C354.541 394.62 354.541 356.869 354.541 317.796V201.141C354.5 197.525 355.687 194.002 357.907 191.147C360.128 188.293 363.252 186.277 366.767 185.428C367.475 185.254 368.192 185.125 368.916 185.04C369.638 185.04 370.378 185.04 371.083 185.04H691.874C694.176 184.891 696.486 185.159 698.692 185.833C700.882 186.573 702.889 187.774 704.576 189.356C706.256 190.898 707.584 192.785 708.469 194.888C709.328 196.982 709.753 199.23 709.72 201.494C709.72 236.585 709.72 269.263 709.72 299.123C709.72 358.789 709.614 407.093 709.579 440.493C709.579 448.843 709.579 456.236 709.579 462.672C709.579 464.275 709.579 465.825 709.579 467.305C709.579 468.045 709.579 468.785 709.491 469.489C709.415 470.184 709.291 470.873 709.121 471.55C708.43 474.398 706.952 476.993 704.855 479.04C702.759 481.087 700.128 482.502 697.265 483.124C696.436 483.298 695.593 483.398 694.746 483.424L693.759 483.3Z" fill="#263238"/>
<path d="M492.688 349.417C492.688 352.94 490.098 355.019 485.941 355.019H482.823V359.3H479.299V343.78H486.011C490.098 343.85 492.688 346 492.688 349.417ZM489.041 349.417C489.041 347.655 487.949 346.704 485.747 346.704H482.823V352.095H485.747C487.949 352.165 489.041 351.179 489.041 349.417Z" fill="#263238"/>
<path d="M505.424 352.57V359.37H502.183V357.89C501.781 358.465 501.232 358.922 500.594 359.213C499.956 359.505 499.251 359.62 498.554 359.546C495.77 359.546 494.097 357.996 494.097 355.935C494.097 353.874 495.594 352.412 499.223 352.412H501.971C501.971 350.932 501.091 350.069 499.223 350.069C497.988 350.059 496.784 350.448 495.788 351.179L494.537 348.765C496.071 347.785 497.861 347.283 499.681 347.321C503.328 347.268 505.424 348.959 505.424 352.57ZM501.901 355.6V354.385H499.523C497.902 354.385 497.391 354.984 497.391 355.777C497.391 356.569 498.131 357.221 499.347 357.221C499.901 357.274 500.457 357.144 500.931 356.852C501.405 356.559 501.77 356.12 501.971 355.6H501.901Z" fill="#263238"/>
<path d="M507.397 358.225L508.542 355.741C509.802 356.486 511.237 356.881 512.7 356.886C514.285 356.886 514.884 356.481 514.884 355.812C514.884 353.856 507.679 355.812 507.679 351.091C507.679 348.836 509.723 347.233 513.211 347.233C514.798 347.208 516.369 347.564 517.791 348.272L516.646 350.738C515.572 350.132 514.355 349.828 513.122 349.857C511.572 349.857 510.903 350.333 510.903 350.95C510.903 352.993 518.108 350.95 518.108 355.724C518.108 357.943 516.047 359.511 512.471 359.511C510.697 359.524 508.95 359.081 507.397 358.225Z" fill="#263238"/>
<path d="M519.165 358.225L520.31 355.741C521.564 356.483 522.993 356.878 524.45 356.886C526.053 356.886 526.652 356.481 526.652 355.812C526.652 353.856 519.447 355.812 519.447 351.091C519.447 348.836 521.49 347.233 524.961 347.233C526.554 347.206 528.131 347.562 529.559 348.272L528.396 350.738C527.35 350.144 526.164 349.84 524.961 349.857C523.411 349.857 522.759 350.333 522.759 350.95C522.759 352.993 529.946 350.95 529.946 355.724C529.946 357.943 527.885 359.511 524.327 359.511C522.523 359.542 520.743 359.098 519.165 358.225Z" fill="#263238"/>
<path d="M550.997 347.444L546.681 359.37H543.352L540.674 351.971L537.908 359.37H534.544L530.245 347.444H533.504L536.323 355.512L539.247 347.444H542.172L545.008 355.512L547.914 347.444H550.997Z" fill="#263238"/>
<path d="M551.403 353.416C551.318 352.105 551.629 350.799 552.296 349.667C552.962 348.535 553.954 347.63 555.141 347.069C556.329 346.507 557.657 346.316 558.955 346.519C560.253 346.722 561.46 347.31 562.419 348.208C563.378 349.105 564.046 350.27 564.335 351.551C564.624 352.833 564.521 354.171 564.04 355.393C563.559 356.616 562.722 357.665 561.637 358.406C560.552 359.146 559.269 359.544 557.956 359.546C557.116 359.604 556.273 359.489 555.48 359.207C554.686 358.925 553.96 358.483 553.345 357.907C552.73 357.332 552.24 356.637 551.906 355.864C551.572 355.091 551.401 354.258 551.403 353.416ZM561.003 353.416C560.959 352.821 560.741 352.252 560.378 351.778C560.014 351.305 559.521 350.948 558.957 350.751C558.393 350.554 557.785 350.526 557.206 350.671C556.626 350.815 556.102 351.125 555.697 351.563C555.291 352.002 555.023 352.548 554.924 353.137C554.825 353.726 554.9 354.33 555.14 354.877C555.38 355.423 555.774 355.888 556.274 356.214C556.775 356.539 557.359 356.712 557.956 356.71C558.375 356.709 558.79 356.621 559.174 356.452C559.558 356.282 559.903 356.035 560.186 355.725C560.469 355.415 560.685 355.05 560.819 354.653C560.954 354.255 561.005 353.834 560.968 353.416H561.003Z" fill="#263238"/>
<path d="M574.198 347.268V350.456H573.423C572.984 350.415 572.541 350.474 572.128 350.628C571.715 350.781 571.341 351.027 571.037 351.345C570.732 351.664 570.503 352.047 570.367 352.467C570.231 352.887 570.192 353.331 570.252 353.768V359.405H566.729V347.479H570.041V349.047C570.534 348.431 571.171 347.947 571.896 347.636C572.621 347.326 573.412 347.199 574.198 347.268Z" fill="#263238"/>
<path d="M588.291 342.934V359.37H584.997V357.996C584.535 358.52 583.961 358.931 583.317 359.2C582.673 359.469 581.976 359.587 581.28 359.546C579.644 359.546 578.076 358.897 576.92 357.741C575.764 356.584 575.114 355.016 575.114 353.381C575.114 351.745 575.764 350.177 576.92 349.021C578.076 347.865 579.644 347.215 581.28 347.215C581.936 347.189 582.591 347.305 583.199 347.554C583.806 347.803 584.354 348.18 584.803 348.66V342.881L588.291 342.934ZM584.909 353.504C584.864 352.909 584.647 352.34 584.283 351.866C583.92 351.393 583.426 351.036 582.862 350.839C582.299 350.642 581.69 350.614 581.111 350.759C580.532 350.903 580.007 351.213 579.602 351.651C579.197 352.09 578.928 352.637 578.829 353.225C578.73 353.814 578.805 354.418 579.045 354.965C579.285 355.512 579.679 355.976 580.18 356.302C580.68 356.627 581.264 356.8 581.861 356.798C582.292 356.804 582.719 356.717 583.114 356.544C583.508 356.372 583.862 356.117 584.15 355.797C584.439 355.477 584.655 355.099 584.786 354.688C584.917 354.278 584.959 353.844 584.909 353.416V353.504Z" fill="#263238"/>
<path d="M445.318 386.129H422.875C417.543 386.129 413.221 390.451 413.221 395.783V434.239C413.221 439.571 417.543 443.893 422.875 443.893H445.318C450.649 443.893 454.971 439.571 454.971 434.239V395.783C454.971 390.451 450.649 386.129 445.318 386.129Z" fill="#EBEBEB"/>
<path d="M543.845 386.129H522.529C517.198 386.129 512.876 390.451 512.876 395.783V434.239C512.876 439.571 517.198 443.893 522.529 443.893H543.845C549.177 443.893 553.499 439.571 553.499 434.239V395.783C553.499 390.451 549.177 386.129 543.845 386.129Z" fill="#EBEBEB"/>
<path d="M495.013 386.129H473.697C468.366 386.129 464.043 390.451 464.043 395.783V434.239C464.043 439.571 468.366 443.893 473.697 443.893H495.013C500.344 443.893 504.666 439.571 504.666 434.239V395.783C504.666 390.451 500.344 386.129 495.013 386.129Z" fill="#EBEBEB"/>
<path d="M593.593 386.129H571.133C565.801 386.129 561.479 390.451 561.479 395.783V434.239C561.479 439.571 565.801 443.893 571.133 443.893H593.593C598.925 443.893 603.247 439.571 603.247 434.239V395.783C603.247 390.451 598.925 386.129 593.593 386.129Z" fill="#EBEBEB"/>
<path d="M641.492 386.129H619.031C613.7 386.129 609.377 390.451 609.377 395.783V434.239C609.377 439.571 613.7 443.893 619.031 443.893H641.492C646.823 443.893 651.146 439.571 651.146 434.239V395.783C651.146 390.451 646.823 386.129 641.492 386.129Z" fill="#EBEBEB"/>
<path d="M439.416 413.487L443.873 415.901L441.865 419.265L437.373 416.588V421.556H433.532V416.553L429.023 419.265L427.05 415.901L431.524 413.487L427.05 411.021L429.023 407.656L433.532 410.369V405.366H437.373V410.369L441.865 407.656L443.873 411.021L439.416 413.487Z" fill="#347CCC"/>
<path d="M488.143 413.223L492.617 415.636L490.609 419.001L486.099 416.359L486.187 421.326H482.329V416.323L477.82 419.036L475.864 415.672L480.321 413.258L475.864 410.792L477.82 407.427L482.329 410.14V405.137H486.187L486.099 410.14L490.609 407.427L492.617 410.792L488.143 413.223Z" fill="#347CCC"/>
<path d="M538.067 413.223L542.542 415.636L540.533 419.001L535.936 416.359L536.024 421.327H532.166V416.323L527.656 419.036L525.736 415.636L530.193 413.223L525.736 410.757L527.691 407.392L532.201 410.105V405.102H536.059L535.971 410.105L540.481 407.392L542.489 410.757L538.067 413.223Z" fill="#347CCC"/>
<path d="M586.265 413.223L590.722 415.636L588.714 419.001L584.204 416.359L584.292 421.326H580.434V416.323L575.924 419.036L573.951 415.672L578.426 413.258L573.951 410.792L575.924 407.427L580.434 410.14V405.137H584.292L584.204 410.14L588.714 407.427L590.722 410.792L586.265 413.223Z" fill="#347CCC"/>
<path d="M444.895 444.263H423.297C420.626 444.258 418.066 443.195 416.177 441.306C414.289 439.418 413.226 436.857 413.221 434.186V395.853C413.226 393.182 414.289 390.622 416.177 388.733C418.066 386.845 420.626 385.782 423.297 385.777H444.895C447.567 385.777 450.13 386.839 452.02 388.728C453.91 390.618 454.971 393.181 454.971 395.853V434.186C454.967 436.857 453.904 439.418 452.015 441.306C450.126 443.195 447.566 444.258 444.895 444.263ZM423.297 386.411C420.815 386.416 418.436 387.405 416.682 389.162C414.928 390.919 413.943 393.3 413.943 395.783V434.116C413.943 436.597 414.929 438.976 416.683 440.73C418.437 442.485 420.817 443.47 423.297 443.47H444.895C447.377 443.47 449.759 442.485 451.516 440.731C453.273 438.978 454.262 436.598 454.267 434.116V395.853C454.262 393.369 453.273 390.988 451.517 389.232C449.76 387.475 447.379 386.486 444.895 386.482L423.297 386.411Z" fill="#263238"/>
<path d="M495.066 444.263H473.451C470.779 444.258 468.219 443.195 466.33 441.306C464.442 439.418 463.379 436.857 463.374 434.186V395.853C463.379 393.182 464.442 390.622 466.33 388.733C468.219 386.845 470.779 385.782 473.451 385.777H495.066C497.735 385.782 500.293 386.845 502.179 388.734C504.065 390.624 505.124 393.184 505.124 395.853V434.186C505.124 436.856 504.065 439.416 502.179 441.305C500.293 443.194 497.735 444.258 495.066 444.263ZM473.451 386.411C470.968 386.416 468.589 387.405 466.835 389.162C465.081 390.919 464.096 393.3 464.096 395.783V434.116C464.096 436.597 465.082 438.976 466.836 440.73C468.59 442.485 470.97 443.47 473.451 443.47H495.066C497.546 443.47 499.926 442.485 501.68 440.73C503.434 438.976 504.42 436.597 504.42 434.116V395.853C504.42 393.371 503.435 390.99 501.681 389.233C499.927 387.476 497.548 386.486 495.066 386.482L473.451 386.411Z" fill="#263238"/>
<path d="M543.845 444.263H522.212C519.541 444.258 516.981 443.195 515.092 441.306C513.204 439.418 512.141 436.857 512.136 434.186V395.853C512.141 393.182 513.204 390.622 515.092 388.733C516.981 386.845 519.541 385.782 522.212 385.777H543.828C546.497 385.782 549.055 386.845 550.941 388.734C552.827 390.624 553.886 393.184 553.886 395.853V434.186C553.886 436.853 552.83 439.41 550.948 441.299C549.065 443.188 546.512 444.253 543.845 444.263ZM522.212 386.411C519.73 386.416 517.351 387.405 515.597 389.162C513.843 390.919 512.858 393.3 512.858 395.783V434.116C512.858 436.597 513.844 438.976 515.598 440.73C517.352 442.485 519.732 443.47 522.212 443.47H543.828C545.056 443.47 546.272 443.228 547.407 442.758C548.542 442.288 549.573 441.599 550.442 440.73C551.311 439.862 552 438.83 552.47 437.696C552.94 436.561 553.182 435.344 553.182 434.116V395.853C553.182 393.371 552.197 390.99 550.443 389.233C548.689 387.476 546.31 386.486 543.828 386.482L522.212 386.411Z" fill="#263238"/>
<path d="M593.171 444.263H571.538C568.867 444.258 566.307 443.195 564.418 441.306C562.529 439.418 561.466 436.857 561.461 434.186V395.853C561.461 393.181 562.523 390.618 564.413 388.728C566.302 386.839 568.865 385.777 571.538 385.777H593.135C595.806 385.782 598.367 386.845 600.255 388.733C602.144 390.622 603.207 393.182 603.212 395.853V434.186C603.207 436.851 602.149 439.406 600.268 441.294C598.387 443.182 595.836 444.249 593.171 444.263ZM571.538 386.411C569.054 386.416 566.673 387.405 564.916 389.161C563.16 390.918 562.171 393.299 562.166 395.783V434.116C562.171 436.598 563.16 438.978 564.917 440.731C566.674 442.485 569.055 443.47 571.538 443.47H593.135C595.616 443.47 597.996 442.485 599.75 440.73C601.504 438.976 602.49 436.597 602.49 434.116V395.853C602.49 393.371 601.505 390.99 599.751 389.233C597.997 387.476 595.618 386.486 593.135 386.482L571.538 386.411Z" fill="#263238"/>
<path d="M641.069 444.263H619.471C616.8 444.258 614.24 443.195 612.351 441.306C610.463 439.418 609.399 436.857 609.395 434.186V395.853C609.395 393.181 610.456 390.618 612.346 388.728C614.236 386.839 616.799 385.777 619.471 385.777H641.069C643.74 385.782 646.3 386.845 648.189 388.733C650.077 390.622 651.141 393.182 651.145 395.853V434.186C651.141 436.857 650.077 439.418 648.189 441.306C646.3 443.195 643.74 444.258 641.069 444.263ZM619.471 386.411C616.987 386.416 614.606 387.405 612.85 389.161C611.093 390.918 610.104 393.299 610.099 395.783V434.116C610.104 436.598 611.094 438.978 612.851 440.731C614.608 442.485 616.989 443.47 619.471 443.47H641.069C643.55 443.47 645.929 442.485 647.683 440.73C649.437 438.976 650.423 436.597 650.423 434.116V395.853C650.423 393.371 649.438 390.99 647.684 389.233C645.93 387.476 643.551 386.486 641.069 386.482L619.471 386.411Z" fill="#263238"/>
<path d="M641.844 428.919C638.005 429.383 634.134 429.536 630.27 429.377C626.406 429.536 622.536 429.383 618.697 428.919C622.537 428.466 626.406 428.313 630.27 428.461C634.134 428.313 638.004 428.466 641.844 428.919Z" fill="#347CCC"/>
<path d="M534.086 326.234C559.858 326.234 580.751 305.341 580.751 279.569C580.751 253.796 559.858 232.903 534.086 232.903C508.313 232.903 487.42 253.796 487.42 279.569C487.42 305.341 508.313 326.234 534.086 326.234Z" fill="#347CCC"/>
<path d="M525.876 271.078H525.101V266.727C525.047 265.498 525.243 264.271 525.675 263.12C526.108 261.969 526.77 260.918 527.62 260.029C528.47 259.141 529.492 258.434 530.622 257.951C531.753 257.468 532.97 257.218 534.2 257.218C535.43 257.218 536.647 257.468 537.778 257.951C538.909 258.434 539.93 259.141 540.78 260.029C541.63 260.918 542.292 261.969 542.725 263.12C543.158 264.271 543.353 265.498 543.299 266.727V270.25H542.524V266.727C542.576 265.601 542.399 264.477 542.004 263.422C541.609 262.367 541.004 261.403 540.226 260.589C539.448 259.774 538.513 259.125 537.477 258.682C536.441 258.239 535.327 258.011 534.2 258.011C533.074 258.011 531.959 258.239 530.923 258.682C529.887 259.125 528.952 259.774 528.174 260.589C527.396 261.403 526.791 262.367 526.397 263.422C526.002 264.477 525.825 265.601 525.876 266.727V271.078Z" fill="white"/>
<path d="M545.66 301.501H522.53C522.025 301.503 521.524 301.406 521.057 301.213C520.59 301.021 520.166 300.738 519.809 300.381C519.452 300.024 519.169 299.6 518.977 299.133C518.785 298.666 518.687 298.166 518.689 297.661V274.531C518.689 273.512 519.094 272.535 519.814 271.815C520.534 271.095 521.511 270.69 522.53 270.69H545.66C546.677 270.695 547.651 271.101 548.37 271.82C549.089 272.539 549.495 273.513 549.5 274.531V297.661C549.5 298.679 549.095 299.656 548.375 300.376C547.655 301.096 546.678 301.501 545.66 301.501ZM522.53 271.465C521.717 271.465 520.937 271.788 520.362 272.363C519.787 272.938 519.464 273.718 519.464 274.531V297.661C519.464 298.063 519.544 298.462 519.698 298.834C519.852 299.206 520.078 299.543 520.362 299.828C520.647 300.113 520.985 300.338 521.357 300.493C521.728 300.647 522.127 300.726 522.53 300.726H545.66C546.062 300.726 546.461 300.647 546.833 300.493C547.205 300.338 547.542 300.113 547.827 299.828C548.112 299.543 548.338 299.206 548.492 298.834C548.646 298.462 548.725 298.063 548.725 297.661V274.531C548.725 273.718 548.402 272.938 547.827 272.363C547.252 271.788 546.473 271.465 545.66 271.465H522.53Z" fill="white"/>
<path d="M534.209 286.862C533.486 286.865 532.779 286.654 532.177 286.255C531.574 285.855 531.104 285.286 530.826 284.619C530.548 283.952 530.474 283.217 530.614 282.508C530.754 281.799 531.102 281.148 531.613 280.637C532.124 280.126 532.775 279.778 533.484 279.638C534.193 279.498 534.928 279.572 535.595 279.85C536.262 280.128 536.831 280.598 537.231 281.2C537.63 281.803 537.841 282.51 537.838 283.233C537.833 284.194 537.45 285.114 536.77 285.794C536.09 286.473 535.17 286.857 534.209 286.862ZM534.209 280.379C533.645 280.379 533.093 280.546 532.624 280.86C532.154 281.174 531.788 281.619 531.572 282.141C531.356 282.662 531.3 283.236 531.41 283.79C531.52 284.343 531.792 284.852 532.191 285.251C532.59 285.65 533.099 285.922 533.652 286.032C534.206 286.142 534.78 286.085 535.301 285.869C535.823 285.653 536.268 285.288 536.582 284.818C536.896 284.349 537.063 283.797 537.063 283.233C537.065 282.857 536.993 282.485 536.85 282.138C536.708 281.791 536.498 281.475 536.232 281.21C535.967 280.944 535.651 280.734 535.304 280.592C534.957 280.449 534.584 280.377 534.209 280.379Z" fill="white"/>
<path d="M534.473 286.298H533.698V292.851H534.473V286.298Z" fill="white"/>
<path d="M692.086 214.966C693.796 207.193 688.882 199.506 681.109 197.795C673.337 196.085 665.649 200.999 663.939 208.772C662.229 216.544 667.143 224.232 674.916 225.942C682.688 227.653 690.376 222.738 692.086 214.966Z" fill="#E0E0E0"/>
<path d="M673.578 217.591C673.518 217.591 673.459 217.578 673.405 217.553C673.35 217.529 673.301 217.494 673.261 217.45C673.219 217.411 673.185 217.363 673.162 217.31C673.139 217.257 673.127 217.2 673.127 217.142C673.127 217.084 673.139 217.027 673.162 216.974C673.185 216.921 673.219 216.873 673.261 216.834L682.597 207.497C682.637 207.455 682.685 207.422 682.738 207.399C682.791 207.376 682.848 207.364 682.906 207.364C682.963 207.364 683.021 207.376 683.074 207.399C683.127 207.422 683.174 207.455 683.214 207.497C683.256 207.538 683.29 207.588 683.314 207.642C683.337 207.697 683.349 207.755 683.349 207.814C683.349 207.874 683.337 207.932 683.314 207.987C683.29 208.041 683.256 208.09 683.214 208.131L673.877 217.45C673.8 217.535 673.692 217.585 673.578 217.591Z" fill="white"/>
<path d="M682.897 217.591C682.783 217.585 682.675 217.535 682.598 217.45L673.261 208.131C673.218 208.09 673.184 208.041 673.161 207.987C673.138 207.932 673.126 207.874 673.126 207.814C673.126 207.755 673.138 207.697 673.161 207.642C673.184 207.588 673.218 207.538 673.261 207.497C673.301 207.455 673.348 207.422 673.401 207.399C673.454 207.376 673.511 207.364 673.569 207.364C673.627 207.364 673.684 207.376 673.737 207.399C673.79 207.422 673.838 207.455 673.878 207.497L683.214 216.834C683.256 216.873 683.29 216.921 683.313 216.974C683.336 217.027 683.348 217.084 683.348 217.142C683.348 217.2 683.336 217.257 683.313 217.31C683.29 217.363 683.256 217.411 683.214 217.45C683.174 217.494 683.125 217.529 683.07 217.553C683.016 217.578 682.957 217.591 682.897 217.591Z" fill="white"/>
<path d="M756.824 755.559C756.824 755.559 803.366 701.988 820.929 648.417C838.493 594.846 830.16 600.994 830.16 600.994C830.16 600.994 806.449 653.033 788.445 678.171C770.441 703.309 738.38 740.18 738.38 740.18L756.824 755.559Z" fill="#455A64"/>
<path d="M747.557 609.327C747.871 608.775 748.369 608.351 748.963 608.128C749.558 607.905 750.212 607.898 750.811 608.107C751.41 608.317 751.917 608.73 752.243 609.275C752.569 609.819 752.694 610.461 752.596 611.089C749.759 629.92 743.629 674.067 743.788 702.693C744.087 739.898 743.788 754.273 743.788 754.273H724.41C724.41 754.273 727.933 677.361 732.231 653.861C735.367 637.46 741.885 619.21 747.557 609.327Z" fill="#455A64"/>
<path d="M736.988 748.002C728.868 729.609 723.497 710.123 721.045 690.168C719.46 676.48 722.296 657.965 726.524 633.267C728.166 624.235 728.985 615.072 728.973 605.892C728.963 604.87 728.615 603.88 727.982 603.078C727.349 602.275 726.468 601.705 725.477 601.457C724.485 601.209 723.44 601.298 722.504 601.708C721.568 602.118 720.795 602.828 720.305 603.725C717.963 607.9 711.198 622.152 709.471 631.083C704.786 655.464 699.483 667.654 703.535 690.802C707.587 713.95 722.613 749.57 722.613 749.57L736.988 748.002Z" fill="#455A64"/>
<path d="M719.548 749.57C719.548 749.57 668.461 639.75 664.938 623.455C661.414 607.16 649.347 569.62 647.938 571.751C646.529 573.883 644.415 593.701 653.593 616.373C662.771 639.045 702.125 752.917 702.125 752.917H719.548" fill="#455A64"/>
<path d="M742.59 744.655C743.096 744.372 743.574 744.042 744.017 743.668C744.933 742.981 746.307 742.012 747.981 740.656C751.381 737.978 756.155 733.909 761.721 728.536C776.078 714.366 788.516 698.375 798.715 680.972C808.905 663.559 817.383 645.199 824.03 626.15C826.602 618.857 828.469 612.885 829.685 608.745C830.319 606.667 830.742 605.046 831.041 603.954C831.228 603.38 831.363 602.79 831.446 602.192C831.195 602.714 830.988 603.256 830.83 603.813C830.442 604.993 829.931 606.579 829.279 608.552C827.941 612.656 825.95 618.575 823.308 625.833C816.462 644.741 807.919 662.989 797.782 680.355C787.584 697.675 775.263 713.654 761.105 727.919C755.626 733.363 750.958 737.502 747.646 740.251C746.008 741.66 744.669 742.682 743.823 743.422C743.379 743.799 742.967 744.211 742.59 744.655Z" fill="#263238"/>
<path d="M736.988 691.965C737.254 690.909 737.407 689.829 737.446 688.741C737.693 686.468 738.01 683.456 738.397 679.933C739.208 672.499 740.476 662.316 742.273 650.989C744.07 639.662 746.096 629.603 747.663 622.31C748.421 618.787 749.038 615.88 749.531 613.643C749.816 612.593 750.004 611.52 750.094 610.437C749.677 611.44 749.347 612.477 749.108 613.537C748.544 615.563 747.787 618.487 746.906 622.134C745.144 629.409 743.013 639.539 741.198 650.831C739.384 662.123 738.239 672.393 737.675 679.862C737.376 683.579 737.164 686.609 737.076 688.67C736.955 689.764 736.926 690.866 736.988 691.965Z" fill="#263238"/>
<path d="M725.027 602.862C724.776 603.302 724.575 603.769 724.428 604.253L722.895 608.34C722.208 610.102 721.433 612.286 720.693 614.876C719.953 617.466 718.931 620.355 718.209 623.684L716.941 628.846C716.518 630.607 716.219 632.545 715.831 634.5C714.985 638.394 714.475 642.622 713.858 647.061C712.757 656.72 712.345 666.445 712.625 676.163C713.039 685.883 714.146 695.561 715.937 705.124C716.87 709.493 717.698 713.685 718.791 717.455C719.337 719.375 719.777 721.26 720.323 723.022L721.961 728.166C722.93 731.407 724.128 734.244 725.062 736.763C725.996 739.282 726.824 741.413 727.722 743.122L729.484 747.086C729.669 747.556 729.905 748.005 730.188 748.425C730.069 747.935 729.904 747.457 729.695 746.998C729.272 745.976 728.726 744.637 728.057 742.964C727.387 741.29 726.454 739.088 725.59 736.534C724.727 733.979 723.565 731.249 722.631 727.919C722.138 726.316 721.627 724.625 721.081 722.863C720.535 721.102 720.129 719.235 719.618 717.314C718.562 713.492 717.857 709.334 716.87 704.983C715.153 695.465 714.082 685.843 713.664 676.18C713.387 666.518 713.763 656.848 714.792 647.237C715.391 642.815 715.866 638.605 716.659 634.712C717.029 632.774 717.311 630.872 717.716 629.075C718.121 627.278 718.526 625.551 718.914 623.913C719.601 620.619 720.535 617.712 721.222 615.105C721.909 612.498 722.631 610.313 723.247 608.517L724.569 604.377C724.771 603.888 724.924 603.381 725.027 602.862Z" fill="#263238"/>
<path d="M648.484 573.953C648.465 574.117 648.465 574.283 648.484 574.447C648.484 574.834 648.625 575.292 648.713 575.874C648.942 577.124 649.224 578.974 649.717 581.335C650.704 586.056 652.36 592.856 655.002 601.1C657.644 609.344 661.027 619.033 665.167 629.656C669.306 640.279 674.08 651.87 678.625 664.201C683.17 676.533 686.782 688.529 690.111 699.434C693.441 710.338 696.559 720.133 699.589 728.219C701.908 734.629 704.584 740.904 707.604 747.015C708.643 749.182 709.595 750.803 710.194 751.93L710.916 753.181C711.074 753.463 711.163 753.604 711.18 753.586C711.147 753.425 711.088 753.27 711.004 753.128L710.387 751.825C709.841 750.679 708.961 749.024 707.974 746.822C705.931 742.47 703.147 736.076 700.258 727.955C697.369 719.833 694.269 710.074 691.027 699.152C687.786 688.23 684.21 676.251 679.594 663.92C674.979 651.588 670.222 639.979 666.047 629.374C661.872 618.769 658.314 609.168 655.671 600.959C653.029 592.75 651.285 586.021 650.175 581.335C649.611 578.992 649.259 577.16 648.96 575.909C648.836 575.345 648.713 574.887 648.625 574.517C648.613 574.322 648.565 574.131 648.484 573.953Z" fill="#263238"/>
<path d="M806.061 549.696C806.762 549.013 807.671 548.584 808.643 548.477C809.616 548.371 810.596 548.592 811.428 549.106C812.261 549.621 812.897 550.398 813.236 551.316C813.576 552.234 813.599 553.238 813.301 554.17C811.557 559.823 809.414 565.345 806.889 570.694C799.843 585.615 779.232 639.186 769.56 668.605C759.889 698.025 746.36 752.917 746.36 752.917L725.731 749.57C725.731 749.57 744.598 659.463 762.972 626.89C777.787 600.783 792.62 563.049 806.061 549.696Z" fill="#455A64"/>
<path d="M763.976 687.014C763.523 687.792 763.162 688.62 762.901 689.481C762.302 691.101 761.457 693.462 760.523 696.404C758.62 702.288 756.295 710.497 753.97 719.64C751.644 728.783 749.671 737.097 748.315 743.122C747.698 745.958 747.188 748.407 746.765 750.257C746.536 751.127 746.395 752.018 746.342 752.917C746.71 752.096 746.993 751.24 747.188 750.362C747.681 748.477 748.315 746.117 749.073 743.316C750.658 737.115 752.719 728.959 755.027 719.939C757.335 710.92 759.554 702.57 761.263 696.65C762.073 693.85 762.76 691.507 763.306 689.604C763.615 688.765 763.839 687.898 763.976 687.014Z" fill="#263238"/>
<path d="M735.931 751.243C735.989 751.066 736.025 750.883 736.037 750.697C736.037 750.257 736.177 749.728 736.283 749.076C736.495 747.649 736.688 745.553 737.129 742.823C737.886 737.397 739.225 729.593 741.445 720.062C744.086 708.921 747.309 697.925 751.098 687.12C755.344 674.894 760.646 661.682 766.654 648.012C778.791 620.725 790.911 596.502 798.891 578.604C802.908 569.655 805.938 562.38 808.087 557.289C809.126 554.752 809.849 552.761 810.395 551.422C810.641 550.806 810.817 550.295 810.976 549.89C811.055 549.716 811.108 549.532 811.135 549.344C811.027 549.497 810.939 549.663 810.87 549.837L810.201 551.334C809.584 552.744 808.756 554.681 807.682 557.13C805.515 562.151 802.291 569.461 798.187 578.269C790.048 596.044 777.805 620.231 765.649 647.572C759.642 661.26 754.34 674.507 750.147 686.785C746.386 697.642 743.228 708.699 740.687 719.904C738.974 727.465 737.645 735.109 736.706 742.805C736.336 745.518 736.213 747.649 736.054 749.076L735.931 750.715C735.91 750.89 735.91 751.068 735.931 751.243Z" fill="#263238"/>
<path d="M725.661 749.57C725.988 748.416 726.224 747.238 726.365 746.046C726.77 743.633 727.317 740.427 727.968 736.569C729.378 728.571 731.492 717.561 734.68 705.582C737.869 693.603 741.251 682.98 743.929 675.317C745.232 671.618 746.324 668.57 747.152 666.262C747.607 665.172 747.972 664.047 748.245 662.898C747.657 663.923 747.156 664.995 746.747 666.104C745.866 668.2 744.616 671.248 743.224 675.053C739.495 684.982 736.296 695.102 733.641 705.371C730.974 715.631 728.828 726.021 727.211 736.498C726.63 740.515 726.189 743.774 725.96 746.046C725.772 747.212 725.672 748.389 725.661 749.57Z" fill="#263238"/>
<path d="M683.311 746.61H763.835V844.715H683.311V746.61Z" fill="#347CCC"/>
<g opacity="0.3">
<path d="M683.311 746.61H763.835V844.715H683.311V746.61Z" fill="black"/>
</g>
<path d="M709.013 746.61H780.447V844.715H709.013V746.61Z" fill="#347CCC"/>
<path d="M212.747 528.345L255.078 522.215L339.76 534.74L363.524 543.143L359.314 595.111L277.891 610.102L222.964 593.825L202.195 563.26L212.747 528.345Z" fill="#FFBE9D"/>
<path d="M186.058 533.313L221.502 524.963C221.502 524.963 246.534 602.474 308.35 599.074C358.732 596.344 359.314 540.113 359.314 540.113L395.621 551.739C395.621 551.739 409.52 644.876 394.141 710.867C390.618 726.281 385.738 747.051 385.738 747.051L390.653 843.464L122.111 843.887L186.058 533.313Z" fill="#347CCC"/>
<g opacity="0.3">
<path d="M291.333 824.756C278.261 824.421 266.212 825.531 253.14 825.214C237.462 824.826 221.66 824.439 206.176 826.975C194.584 828.896 183.275 832.419 171.683 834.251C155.828 836.752 138.935 835.872 124.842 828.244L127.114 815.084L180.632 802.154L291.333 824.756Z" fill="black"/>
</g>
<path d="M425.938 573.443C413.607 557.588 393.243 550.982 393.243 550.982L379.502 670.578L405.521 844.733L490.749 844.327C490.749 844.327 443.748 596.432 425.938 573.443Z" fill="#347CCC"/>
<path d="M190.198 532.432C190.198 532.432 132.839 537.03 112.264 631.083C102.962 673.591 91.1243 723.392 87.7948 756.88C85.3461 781.156 98.5407 819.171 122.745 822.289L153.186 826.376C159.155 827.236 165.229 827.015 171.12 825.725C190.339 821.303 192.259 808.108 195.782 794.015L204.59 765.97C209.452 739.299 184.596 734.261 170.873 734.631L181.108 612.885L190.198 532.432Z" fill="#347CCC"/>
<path d="M400.342 617.483C400.476 617.907 400.565 618.344 400.606 618.787C400.747 619.738 400.941 621.006 401.187 622.574C401.293 623.402 401.434 624.336 401.575 625.322C401.716 626.309 401.786 627.419 401.91 628.599C402.156 630.942 402.438 633.62 402.561 636.597C402.969 643.56 403.016 650.539 402.702 657.507C402.283 666.029 401.436 674.525 400.166 682.963C398.844 691.965 397.189 700.456 395.497 708.136C393.806 715.817 392.168 722.705 390.723 728.483C389.279 734.261 388.063 738.894 387.2 742.1C386.777 743.633 386.443 744.866 386.178 745.782C386.083 746.219 385.942 746.644 385.756 747.051C385.793 746.609 385.876 746.172 386.002 745.747C386.214 744.796 386.496 743.562 386.848 742.012C387.641 738.683 388.75 734.032 390.124 728.324C391.498 722.617 393.084 715.641 394.687 707.96C396.29 700.279 397.964 691.806 399.267 682.839C400.571 673.873 401.487 665.223 401.874 657.454C402.262 649.686 402.28 642.551 401.874 636.632C401.786 633.655 401.557 630.995 401.364 628.634C401.281 627.46 401.193 626.368 401.099 625.358C400.994 624.371 400.888 623.455 400.8 622.609C400.624 621.042 400.483 619.773 400.395 618.804C400.334 618.367 400.316 617.924 400.342 617.483Z" fill="#263238"/>
<path d="M125.863 767.573C125.902 766.756 126.038 765.946 126.268 765.16C126.831 763.039 127.573 760.971 128.488 758.977C131.498 752.327 136.183 746.573 142.084 742.278C147.985 737.983 154.9 735.293 162.153 734.472C164.332 734.207 166.531 734.136 168.724 734.261C169.531 734.271 170.335 734.371 171.119 734.561C168.175 734.578 165.235 734.76 162.311 735.107C155.224 736.09 148.488 738.808 142.702 743.017C136.915 747.227 132.257 752.8 129.14 759.241C127.903 761.959 126.809 764.741 125.863 767.573Z" fill="#263238"/>
<path d="M139.111 720.75C139.565 720.635 140.035 720.593 140.502 720.626C141.767 720.603 143.032 720.662 144.29 720.802C148.449 721.225 152.525 722.246 156.392 723.832C160.255 725.436 163.873 727.577 167.138 730.192C168.123 730.979 169.059 731.826 169.939 732.729C170.556 733.38 170.873 733.75 170.837 733.803C170.802 733.856 169.287 732.57 166.733 730.703C160.09 725.824 152.355 722.643 144.202 721.437C141.084 720.978 139.111 720.908 139.111 720.75Z" fill="#263238"/>
<path d="M198.495 599.074C198.367 598.241 198.319 597.397 198.354 596.555C198.354 594.934 198.248 592.609 198.055 589.738C197.027 574.72 192.913 560.075 185.97 546.719C184.649 544.164 183.504 542.121 182.676 540.747C182.211 540.047 181.816 539.304 181.495 538.527C182.058 539.154 182.559 539.832 182.993 540.553C183.909 541.892 185.142 543.883 186.516 546.419C193.829 559.732 197.987 574.546 198.671 589.72C198.777 592.609 198.777 595.005 198.671 596.573C198.699 597.41 198.64 598.249 198.495 599.074Z" fill="#263238"/>
<path d="M308.35 684.39C308.312 684.728 308.229 685.06 308.103 685.376C307.892 686.01 307.628 686.979 307.152 688.142C305.868 691.508 304.269 694.746 302.378 697.813C296.126 708.039 287.052 716.24 276.247 721.429C265.443 726.617 253.368 728.571 241.479 727.056C237.893 726.61 234.355 725.838 230.909 724.748C229.694 724.378 228.778 723.973 228.161 723.744C227.837 723.639 227.525 723.504 227.227 723.339C227.227 723.251 228.584 723.709 231.015 724.396C234.474 725.366 238.01 726.038 241.584 726.404C253.338 727.787 265.243 725.802 275.912 720.681C286.581 715.56 295.576 707.513 301.85 697.478C303.768 694.464 305.441 691.301 306.853 688.018C307.716 685.693 308.28 684.354 308.35 684.39Z" fill="#263238"/>
<path d="M187.468 816.599C187.379 816.511 186.481 817.797 184.332 819.559C181.188 821.932 177.59 823.635 173.762 824.562C168.123 825.973 162.298 826.49 156.498 826.095C149.945 825.619 142.705 824.844 135.2 823.734C128.131 822.819 121.169 821.214 114.413 818.942C111.593 817.703 109.012 815.98 106.785 813.851C104.822 812.01 103.051 809.974 101.5 807.774C99.2031 804.595 97.2374 801.189 95.6341 797.609C95.088 796.323 94.6653 795.337 94.401 794.65C94.2968 794.289 94.1426 793.945 93.943 793.628C94.0093 793.993 94.1035 794.352 94.2248 794.702C94.4362 795.425 94.8062 796.464 95.317 797.75C96.795 801.427 98.6925 804.92 100.972 808.161C102.512 810.418 104.283 812.508 106.257 814.397C108.529 816.611 111.177 818.4 114.078 819.682C120.876 822.044 127.902 823.691 135.042 824.597C142.599 825.725 149.822 826.464 156.428 826.905C162.315 827.251 168.22 826.656 173.921 825.143C177.778 824.148 181.38 822.347 184.49 819.858C185.31 819.151 186.059 818.366 186.728 817.515C187.012 817.243 187.261 816.935 187.468 816.599Z" fill="#263238"/>
<path d="M196.927 629.022C196.698 629.022 190.638 652.434 183.433 681.465C176.228 710.497 170.573 734.067 170.82 734.138C171.067 734.208 177.109 710.708 184.314 681.677C191.519 652.645 197.174 629.075 196.927 629.022Z" fill="#263238"/>
<path d="M204.238 761.637C204.426 761.008 204.527 760.356 204.538 759.699C204.714 757.943 204.755 756.176 204.661 754.414C204.46 751.726 203.568 749.135 202.071 746.892C201.224 745.558 200.238 744.318 199.129 743.193C197.902 742.02 196.535 741.002 195.06 740.163C189.842 737.425 184.194 735.602 178.36 734.772C176.608 734.52 174.844 734.367 173.075 734.314C172.427 734.218 171.768 734.218 171.12 734.314C171.12 734.455 173.885 734.561 178.272 735.353C183.976 736.336 189.491 738.202 194.62 740.885C196.034 741.689 197.346 742.659 198.53 743.774C199.6 744.847 200.556 746.028 201.384 747.297C202.843 749.387 203.752 751.81 204.027 754.344C204.183 756.101 204.236 757.865 204.185 759.628C204.125 760.298 204.143 760.972 204.238 761.637Z" fill="#263238"/>
<g opacity="0.3">
<path d="M397.7 696.457C412.339 671.671 412.656 639.468 399.884 613.66C403.974 641.158 403.091 669.166 397.277 696.351" fill="black"/>
</g>
<path d="M374.358 807.633C369.742 798.93 333.753 775.923 333.753 775.923L343.494 773.669L354.258 778.214C355.072 781.862 356.651 785.297 358.891 788.29C362.837 793.927 369.549 788.096 369.549 788.096L365.004 766.305L343.723 753.498C343.723 753.498 323.711 756.563 320.47 758.113L311.944 765.917C308.191 768.859 297.375 780.433 294.415 780.786C291.456 781.138 198.495 760.263 198.495 760.263C185.759 770.357 179.117 790.386 177.039 804.849C177.039 804.849 174.766 811.896 177.232 815.807L291.262 824.756L315.432 831.432C321.904 834.109 328.534 836.386 335.285 838.25C343.318 840.011 348.726 837.351 348.955 832.965C349.184 828.578 342.931 828.032 342.931 828.032C337.598 826.119 332.407 823.835 327.393 821.197C323.722 818.751 320.699 815.451 318.585 811.579L327.199 812.6C327.199 812.6 345.52 825.319 352.408 829.054C359.296 832.789 360.652 825.936 361.216 823.769C361.78 821.602 340.64 801.027 340.64 801.027C340.64 801.027 360.741 813.358 364.352 816.529C367.963 819.7 373.319 820.598 374.464 818.502C375.609 816.406 378.956 816.335 374.358 807.633Z" fill="#FFBE9D"/>
<path d="M275.249 809.641C275.146 809.179 275.111 808.704 275.143 808.232C275.123 807.678 275.158 807.123 275.249 806.576C275.32 805.843 275.455 805.118 275.654 804.409C276.8 800.294 278.785 796.462 281.485 793.152C284.117 789.831 287.067 786.775 290.293 784.027C291.559 782.818 292.946 781.744 294.433 780.821C293.261 782.108 292.014 783.326 290.698 784.467C287.63 787.321 284.78 790.401 282.172 793.681C279.532 796.905 277.524 800.599 276.253 804.567C275.337 807.633 275.425 809.659 275.249 809.641Z" fill="#EB996E"/>
<path d="M332.924 775.272C330.863 775.576 328.759 775.388 326.785 774.723C324.81 774.059 323.02 772.937 321.562 771.449C321.703 771.255 323.905 772.894 327.058 773.915C330.211 774.937 332.924 775.025 332.924 775.272Z" fill="#EB996E"/>
<path d="M338.914 799.124C332.712 797.179 326.688 794.703 320.91 791.725C324.056 792.556 327.121 793.665 330.071 795.037C333.129 796.147 336.087 797.514 338.914 799.124Z" fill="#EB996E"/>
<path d="M319.606 811.315C317.984 810.943 316.411 810.381 314.921 809.641C313.321 809.176 311.783 808.519 310.34 807.686C313.702 808.028 316.906 809.283 319.606 811.315Z" fill="#EB996E"/>
<path d="M335.902 800.71C334.609 801.601 333.427 802.641 332.378 803.81C331.527 805.143 330.841 806.575 330.335 808.073C330.229 808.073 330.124 807.492 330.335 806.576C330.55 805.384 331.045 804.261 331.78 803.299C332.508 802.337 333.456 801.564 334.545 801.044C335.338 800.657 335.902 800.621 335.902 800.71Z" fill="#EB996E"/>
<path d="M344.393 787.409C344.516 787.621 342.93 788.484 341.891 790.298C341.362 791.464 340.932 792.672 340.605 793.91C340.35 793.235 340.269 792.506 340.371 791.792C340.472 791.077 340.753 790.4 341.186 789.823C342.367 787.779 344.357 787.18 344.393 787.409Z" fill="#EB996E"/>
<path d="M341.539 763.627C341.433 763.627 341.116 763.275 340.852 762.482C340.58 761.443 340.58 760.351 340.852 759.311C341.104 758.267 341.627 757.307 342.367 756.528C342.948 755.947 343.424 755.735 343.494 755.823C342.757 756.979 342.165 758.222 341.733 759.523C341.482 760.876 341.417 762.257 341.539 763.627Z" fill="#EB996E"/>
<path d="M176.299 819.066C176.416 818.196 176.463 817.318 176.44 816.441C176.44 815.595 176.44 814.574 176.563 813.376C176.686 812.178 176.669 810.821 176.845 809.341C177.506 801.524 179.182 793.825 181.83 786.44C183.318 782.406 185.12 778.495 187.221 774.743C188.278 772.982 189.194 771.414 190.251 769.987C190.744 769.265 191.237 768.578 191.713 767.908C192.188 767.239 192.699 766.64 193.175 766.147C196.962 761.478 199.869 759.1 199.728 758.959C198.989 759.429 198.304 759.979 197.685 760.597C196.892 761.263 196.139 761.974 195.43 762.729C194.602 763.592 193.668 764.491 192.664 765.724C192.188 766.323 191.678 766.922 191.149 767.485C190.621 768.049 190.145 768.842 189.616 769.564C188.524 770.991 187.573 772.647 186.498 774.338C184.322 778.108 182.472 782.056 180.967 786.141C178.294 793.582 176.687 801.363 176.193 809.253C176.07 810.751 176.087 812.125 176.052 813.323C176.017 814.521 176.052 815.56 176.052 816.406C176.044 817.298 176.126 818.19 176.299 819.066Z" fill="#263238"/>
<g opacity="0.3">
<path d="M137.173 737.591C147.866 733.175 159.645 732.1 170.961 734.508C161.234 734.06 151.61 736.661 143.433 741.948C135.257 747.234 128.935 754.943 125.352 763.997C124.542 766.182 122.921 768.771 120.596 768.437C118.271 768.102 117.637 765.407 117.637 763.24C117.619 751.842 126.656 741.977 137.173 737.591Z" fill="black"/>
</g>
<path d="M401.082 609.415C401.609 609.319 402.119 609.147 402.597 608.904C403.566 608.534 404.922 607.918 406.578 607.142C410.9 604.985 415.026 602.457 418.909 599.585C422.779 596.728 426.397 593.545 429.726 590.072C430.994 588.733 431.998 587.606 432.632 586.813C433.267 586.021 433.619 585.545 433.566 585.492C433.513 585.439 431.91 587.078 429.268 589.614C425.834 592.926 422.192 596.016 418.363 598.863C414.524 601.687 410.505 604.258 406.331 606.561C403.02 608.376 400.976 609.292 401.082 609.415Z" fill="white"/>
<path d="M197.667 616.056C197.8 616.175 197.948 616.276 198.108 616.356L199.464 617.166C200.644 617.888 202.441 618.928 204.749 620.09C211.363 623.485 218.223 626.376 225.272 628.74C235.742 632.204 246.485 634.785 257.386 636.456C270.735 638.443 284.198 639.561 297.692 639.803C312.049 640.138 325.719 639.803 338.209 639.592C349.231 639.437 360.232 638.607 371.152 637.108C378.519 636.063 385.781 634.377 392.855 632.069C395.339 631.224 397.259 630.519 398.527 629.973L399.972 629.356C400.144 629.298 400.309 629.221 400.465 629.127L399.937 629.268L398.457 629.797C397.171 630.29 395.233 630.942 392.732 631.735C385.646 633.887 378.401 635.472 371.064 636.473C360.16 637.867 349.184 638.626 338.192 638.746C325.86 638.975 312.12 639.222 297.798 638.887C284.342 638.65 270.914 637.556 257.597 635.61C246.729 633.995 236.012 631.491 225.554 628.123C218.509 625.821 211.634 623.031 204.978 619.773C202.635 618.611 200.82 617.677 199.693 617.008L198.301 616.285C197.843 616.109 197.685 616.039 197.667 616.056Z" fill="white"/>
<path d="M400.412 678.84C401.155 678.772 401.888 678.618 402.596 678.382L408.463 676.779C413.395 675.388 420.195 673.397 427.7 671.16C435.204 668.923 441.969 666.826 446.866 665.276L452.644 663.409C453.361 663.203 454.056 662.932 454.723 662.598C453.98 662.667 453.247 662.82 452.539 663.056L446.672 664.659C441.74 666.051 434.94 668.042 427.435 670.279C419.931 672.516 413.166 674.595 408.269 676.145L402.491 678.03C401.771 678.226 401.074 678.498 400.412 678.84Z" fill="white"/>
<path d="M395.286 776.205C395.286 776.434 412.902 771.396 434.57 764.931C456.238 758.466 473.661 753.022 473.59 752.776C473.52 752.529 455.974 757.567 434.306 764.05C412.638 770.533 395.216 775.959 395.286 776.205Z" fill="white"/>
<path d="M140.679 565.551C141.271 566.126 141.92 566.639 142.616 567.083C143.885 568.017 145.787 569.32 148.166 570.871C160.607 578.918 173.952 585.475 187.925 590.407C190.603 591.341 192.787 592.045 194.32 592.486C195.096 592.768 195.899 592.969 196.716 593.085C195.982 592.705 195.216 592.392 194.426 592.151L188.137 589.808C182.852 587.782 175.612 584.787 167.86 581C160.109 577.212 153.309 573.302 148.483 570.342L142.775 566.819C142.119 566.328 141.417 565.904 140.679 565.551Z" fill="white"/>
<path d="M105.587 665.646C106.504 666.167 107.458 666.62 108.441 667.002C110.291 667.83 113.039 668.922 116.456 670.173C134.321 676.679 153.077 680.41 172.071 681.236C175.717 681.395 178.659 681.43 180.703 681.36C181.756 681.383 182.809 681.336 183.856 681.219C182.813 681.061 181.758 680.99 180.703 681.007C178.677 681.007 175.735 680.831 172.106 680.584C162.67 679.985 153.284 678.767 144.008 676.938C134.74 675.076 125.601 672.616 116.65 669.574C113.215 668.394 110.449 667.39 108.547 666.668C107.591 666.243 106.601 665.901 105.587 665.646Z" fill="white"/>
<path d="M156.216 825.742C156.23 825.411 156.2 825.079 156.128 824.756C156.022 824.033 155.864 823.117 155.688 821.99C155.512 820.862 155.247 819.312 155.071 817.586C154.895 815.859 154.596 813.922 154.525 811.737C154.525 810.663 154.384 809.518 154.314 808.337C154.243 807.157 154.314 805.906 154.314 804.638C154.314 802.084 154.419 799.353 154.56 796.482C155.023 790.263 155.971 784.09 157.397 778.02C158.892 771.964 160.853 766.033 163.263 760.28C164.461 757.673 165.535 755.154 166.786 752.917C167.385 751.789 167.931 750.679 168.548 749.64L170.309 746.716C171.384 744.813 172.546 743.193 173.48 741.766C174.414 740.339 175.242 739.106 176.034 738.137L177.69 735.864C177.903 735.613 178.081 735.335 178.219 735.036C177.975 735.25 177.75 735.486 177.549 735.741L175.788 737.925C174.828 739.052 173.929 740.228 173.093 741.449C172.106 742.875 170.908 744.461 169.798 746.346L168.037 749.27C167.42 750.292 166.856 751.419 166.275 752.547C165.007 754.784 163.879 757.303 162.752 759.928C157.677 771.471 154.694 783.824 153.944 796.411C153.838 799.3 153.679 802.048 153.785 804.62C153.785 805.906 153.785 807.157 153.891 808.355C153.997 809.553 154.067 810.68 154.155 811.772C154.278 813.974 154.631 815.912 154.86 817.639C155.089 819.365 155.353 820.845 155.617 822.025C155.882 823.205 156.075 824.051 156.234 824.791C156.194 825.106 156.188 825.425 156.216 825.742Z" fill="white"/>
<path d="M88.2528 771.748C88.3409 771.748 88.3937 770.304 88.7989 767.767C89.4212 764.184 90.6105 760.723 92.3221 757.514C94.8292 752.75 98.2049 748.496 102.275 744.972C107.235 740.621 112.981 737.261 119.204 735.071C125.464 732.98 132.002 731.84 138.6 731.689C143.998 731.539 149.4 731.745 154.772 732.306C159.369 732.728 163.086 733.204 165.658 733.486L168.618 733.803C168.963 733.85 169.312 733.85 169.657 733.803C169.334 733.684 168.996 733.607 168.653 733.574L165.711 733.081C163.157 732.676 159.44 732.13 154.842 731.601C149.441 730.957 144.003 730.686 138.565 730.791C131.877 730.923 125.249 732.069 118.905 734.191C112.573 736.433 106.735 739.879 101.712 744.338C97.5948 747.953 94.21 752.324 91.7408 757.215C90.0688 760.528 88.9784 764.103 88.517 767.785C88.3785 768.777 88.3078 769.778 88.3056 770.78C88.2518 771.099 88.2341 771.424 88.2528 771.748Z" fill="white"/>
<path d="M277.768 720.75C278.094 720.849 278.431 720.909 278.772 720.926L281.644 721.225L292.213 722.106C301.145 722.793 313.494 723.639 327.129 724.343C340.764 725.048 353.148 725.488 362.115 725.594C366.589 725.594 370.218 725.594 372.684 725.594H375.556C375.894 725.605 376.232 725.569 376.56 725.488C376.23 725.42 375.893 725.391 375.556 725.4H372.684L362.115 725.136C353.183 724.872 340.816 724.343 327.182 723.621L292.266 721.648L281.696 721.049L278.807 720.926C278.47 720.822 278.121 720.762 277.768 720.75Z" fill="white"/>
<g opacity="0.3">
<path d="M267.533 724.414C256.435 727.673 241.109 728.465 230.239 724.414C238.695 736.446 255.026 740.797 269.207 736.886C283.388 732.975 296.441 718.794 297.533 704.12C290.663 713.368 278.631 721.119 267.533 724.414Z" fill="black"/>
</g>
<path d="M177.532 712.805C177.824 712.912 178.124 712.994 178.43 713.051L180.985 713.597C183.222 714.055 186.446 714.654 190.462 715.359C198.477 716.768 209.593 718.495 221.907 720.01C234.221 721.525 245.442 722.511 253.616 723.075C257.668 723.357 260.962 723.551 263.235 723.639L265.842 723.727C266.145 723.776 266.455 723.776 266.758 723.727C266.464 723.651 266.163 723.604 265.859 723.586L263.252 723.322L253.669 722.458C245.566 721.736 234.397 720.697 222.066 719.129C209.734 717.561 198.654 715.993 190.621 714.76L181.108 713.28L178.501 712.91C178.186 712.818 177.858 712.783 177.532 712.805Z" fill="white"/>
<g opacity="0.3">
<path d="M195.994 634.377C198.777 666.263 190.092 697.901 181.478 728.73C181.095 730.645 180.288 732.451 179.117 734.014C178.512 734.796 177.67 735.36 176.718 735.624C175.765 735.887 174.753 735.836 173.832 735.477C171.137 734.103 171.507 730.192 172.265 727.303L196.205 635.698" fill="black"/>
</g>
<path d="M642.036 666.139L605.835 843.887H291.561C289.898 843.887 288.303 843.226 287.127 842.05C285.951 840.874 285.29 839.279 285.29 837.616C285.29 835.952 285.951 834.357 287.127 833.181C288.303 832.005 289.898 831.344 291.561 831.344H354.839L388.398 666.034C388.712 664.494 389.544 663.109 390.756 662.109C391.968 661.108 393.486 660.554 395.057 660.537L635.236 657.912C636.26 657.899 637.274 658.116 638.203 658.546C639.132 658.977 639.953 659.61 640.605 660.399C641.257 661.188 641.724 662.113 641.972 663.107C642.22 664.1 642.242 665.136 642.036 666.139Z" fill="#E0E0E0"/>
<path d="M642.036 666.139C642.083 665.965 642.118 665.789 642.142 665.611C642.21 665.073 642.21 664.528 642.142 663.99C642.018 662.928 641.654 661.908 641.077 661.008C640.5 660.107 639.726 659.35 638.813 658.793C638.169 658.411 637.467 658.137 636.734 657.983C635.921 657.831 635.093 657.778 634.268 657.824H628.613L614.52 657.948L523.708 658.811L460.396 659.445L424.917 659.815L406.314 660.009L396.819 660.097C396.008 660.097 395.251 660.097 394.388 660.097C393.541 660.18 392.717 660.419 391.957 660.801C390.384 661.54 389.133 662.823 388.433 664.413C388.126 665.19 387.908 666 387.782 666.826L387.288 669.222C386.971 670.807 386.636 672.411 386.319 674.014C385.65 677.237 384.998 680.479 384.329 683.72L380.312 703.503C377.599 716.833 374.828 730.474 371.997 744.426C366.325 772.295 360.424 801.273 354.381 831.15L354.804 830.798H292.583C291.765 830.759 290.944 830.806 290.135 830.939C288.449 831.356 286.987 832.402 286.048 833.863C285.514 834.64 285.148 835.52 284.976 836.447C284.803 837.373 284.828 838.326 285.047 839.243C285.266 840.159 285.675 841.02 286.248 841.768C286.821 842.517 287.545 843.137 288.373 843.587C289.284 844.079 290.298 844.351 291.333 844.38H373.195H458.282H605.835H606.099V844.116C617.18 789.506 626.182 745.042 632.418 714.249C635.501 698.853 637.914 686.873 639.553 678.735C640.363 674.665 640.979 671.565 641.314 669.469C641.649 667.372 641.896 666.298 641.896 666.298C641.896 666.298 641.649 667.372 641.209 669.451L639.271 678.682C637.597 686.821 635.131 698.8 631.96 714.161L605.36 843.993L605.694 843.711H458.141H291.209C290.312 843.676 289.433 843.442 288.637 843.024C287.918 842.629 287.289 842.088 286.792 841.435C286.294 840.782 285.94 840.032 285.75 839.233C285.561 838.435 285.542 837.605 285.693 836.799C285.844 835.992 286.163 835.226 286.629 834.55C287.456 833.336 288.717 832.485 290.152 832.172C290.904 832.052 291.665 832.005 292.425 832.031H355.192V831.696C361.252 801.749 367.118 772.823 372.808 744.954C375.638 731.026 378.404 717.385 381.105 704.032L385.227 683.984C385.879 680.725 386.531 677.502 387.183 674.278C387.517 672.675 387.834 671.072 388.169 669.469L388.645 667.09C388.76 666.311 388.967 665.549 389.261 664.818C389.85 663.415 390.918 662.267 392.274 661.577C392.954 661.241 393.687 661.027 394.44 660.942C395.18 660.942 396.026 660.942 396.801 660.942L406.314 660.837L424.917 660.625L460.378 660.203L523.691 659.463L614.502 658.353L628.595 658.159L634.25 658.071C635.063 658.021 635.878 658.063 636.681 658.194C637.393 658.354 638.076 658.621 638.707 658.987C639.614 659.52 640.387 660.255 640.964 661.135C641.541 662.015 641.908 663.016 642.036 664.06C642.125 664.751 642.125 665.449 642.036 666.139Z" fill="#263238"/>
<path d="M497.231 747.544C497.231 749.596 497.84 751.602 498.98 753.308C500.12 755.015 501.74 756.345 503.636 757.13C505.532 757.915 507.618 758.121 509.631 757.72C511.644 757.32 513.493 756.332 514.944 754.881C516.395 753.43 517.383 751.581 517.784 749.568C518.184 747.555 517.978 745.469 517.193 743.573C516.408 741.677 515.078 740.057 513.372 738.916C511.665 737.776 509.659 737.168 507.607 737.168C504.855 737.168 502.216 738.261 500.27 740.207C498.324 742.153 497.231 744.792 497.231 747.544Z" fill="white"/>
<path d="M641.755 667.584C641.755 667.584 641.385 667.584 640.662 667.584H625.266L580.327 667.795L432.086 668.835L410.647 669.011H405.363C404.461 668.969 403.558 669.022 402.667 669.169C401.765 669.346 400.904 669.693 400.131 670.191C398.56 671.183 397.422 672.73 396.942 674.525C396.537 676.286 396.255 677.907 395.903 679.598C393.243 692.986 390.618 705.899 388.24 718.195C383.377 742.858 378.991 764.966 375.327 783.587L366.677 827.627C365.691 832.824 364.916 836.858 364.37 839.624C364.123 840.98 363.929 842.02 363.788 842.759C363.647 843.499 363.63 843.816 363.63 843.816C363.63 843.816 363.735 843.464 363.876 842.777C364.017 842.09 364.264 841.015 364.546 839.659C365.109 836.893 365.937 832.877 367.012 827.698C369.126 817.269 372.156 802.225 375.926 783.657L389.032 718.301C391.481 705.97 394.071 693.092 396.731 679.704C397.083 678.048 397.4 676.321 397.752 674.701C398.19 673.118 399.201 671.756 400.589 670.878C401.281 670.458 402.046 670.171 402.843 670.032C403.676 669.895 404.52 669.848 405.363 669.892H410.647L432.086 669.733L580.344 668.429L625.266 667.936L637.492 667.76H640.662L641.755 667.584Z" fill="#263238"/>
<path d="M222.048 397.633C221.686 414.068 224.808 430.393 231.208 445.535C237.609 460.677 247.143 474.292 259.183 485.485C264.738 469.454 270.275 453.423 275.795 437.392" fill="#263238"/>
<path d="M347.194 301.977C332.942 294.19 315.731 293.063 299.806 296.251C283.881 299.44 269.048 306.645 254.99 314.784C247.098 319.346 239.241 324.367 233.569 331.484C223.228 344.502 212.993 365.888 212.007 382.571C211.196 395.994 216.34 429.589 222.013 441.779C227.209 452.965 251.573 461.491 263.605 464.257L373.953 335.835C371.958 328.7 368.565 322.033 363.971 316.22C359.378 310.408 353.675 305.566 347.194 301.977Z" fill="#263238"/>
<path d="M366.219 319.276L339.795 314.555C354.258 348.994 358.186 427.739 366.448 464.169C376.208 450.076 398.844 406.916 397.629 389.776C396.413 372.635 397.558 316.369 366.219 319.276Z" fill="#263238"/>
<path d="M240.774 376.599C242.201 356.481 255.237 339.992 274.773 335.007L335.708 319.47C362.026 316.633 379.607 349.012 381.334 375.436C383.254 404.803 384.434 435.772 380.999 457.686C374.111 501.727 340.358 507.435 340.358 507.435C340.358 507.435 340.358 528.398 340.358 541.258L319.976 625.657L254.286 534.898L240.686 377.163C240.633 376.388 240.774 377.603 240.774 376.599Z" fill="#FFBE9D"/>
<path d="M368.104 408.713C368.119 410.186 367.558 411.607 366.542 412.673C365.525 413.739 364.133 414.366 362.661 414.421C361.942 414.478 361.218 414.392 360.533 414.165C359.849 413.939 359.216 413.578 358.672 413.104C358.129 412.629 357.686 412.051 357.37 411.403C357.053 410.755 356.87 410.05 356.83 409.33C356.815 407.86 357.373 406.442 358.386 405.376C359.399 404.311 360.786 403.682 362.255 403.622C362.976 403.562 363.701 403.647 364.388 403.872C365.075 404.097 365.71 404.458 366.255 404.933C366.8 405.407 367.245 405.986 367.562 406.636C367.88 407.285 368.064 407.991 368.104 408.713Z" fill="#263238"/>
<path d="M374.657 392.683C373.952 393.422 369.672 390.269 363.594 390.287C357.517 390.304 353.024 393.37 352.408 392.63C352.073 392.295 352.795 390.974 354.733 389.547C357.359 387.72 360.484 386.748 363.682 386.763C366.842 386.752 369.924 387.739 372.49 389.582C374.428 391.027 375.062 392.348 374.657 392.683Z" fill="#263238"/>
<path d="M315.114 408.713C315.129 410.186 314.569 411.607 313.552 412.673C312.535 413.739 311.143 414.366 309.671 414.421C308.95 414.481 308.225 414.395 307.538 414.169C306.85 413.942 306.216 413.58 305.672 413.103C305.128 412.627 304.685 412.045 304.37 411.394C304.056 410.743 303.875 410.035 303.84 409.312C303.825 407.842 304.383 406.424 305.396 405.359C306.409 404.293 307.797 403.664 309.266 403.605C309.988 403.545 310.714 403.63 311.402 403.856C312.09 404.083 312.726 404.445 313.271 404.921C313.817 405.398 314.261 405.979 314.578 406.63C314.894 407.282 315.077 407.99 315.114 408.713Z" fill="#263238"/>
<path d="M316.999 392.682C316.295 393.422 311.996 390.269 305.919 390.287C299.841 390.304 295.349 393.37 294.733 392.63C294.415 392.295 295.12 390.974 297.058 389.547C299.672 387.737 302.775 386.766 305.954 386.763C309.113 386.758 312.193 387.744 314.762 389.582C316.7 391.027 317.334 392.348 316.999 392.682Z" fill="#263238"/>
<path d="M335.902 440.422C335.902 440.088 339.654 439.418 345.784 438.661C347.334 438.502 348.797 438.185 349.061 437.128C349.189 435.523 348.82 433.918 348.004 432.53C346.536 428.784 344.997 424.844 343.388 420.71C336.976 403.904 332.343 390.075 333.012 389.829C333.682 389.582 339.442 402.988 345.855 419.776C347.405 423.91 348.879 427.868 350.276 431.65C351.258 433.522 351.551 435.679 351.104 437.745C350.881 438.294 350.534 438.784 350.091 439.178C349.648 439.572 349.121 439.859 348.55 440.017C347.697 440.263 346.813 440.388 345.925 440.387C339.848 440.74 336.025 440.775 335.902 440.422Z" fill="#263238"/>
<path d="M281.925 491.739C281.925 491.739 296.265 522.056 340.341 517.775V507.417C319.793 507.7 299.57 502.272 281.925 491.739Z" fill="#EB996E"/>
<path d="M315.079 370.715C314.48 372.371 308.42 371.596 301.286 372.477C294.151 373.358 288.391 375.313 287.439 373.833C287.017 373.111 288.021 371.561 290.346 369.958C293.432 367.98 296.948 366.771 300.599 366.434C304.245 365.989 307.945 366.411 311.397 367.667C314.022 368.636 315.343 369.922 315.079 370.715Z" fill="#263238"/>
<path d="M372.737 374.08C371.68 375.471 367.452 374.08 362.449 373.992C357.446 373.904 353.148 374.943 352.161 373.498C351.739 372.794 352.408 371.42 354.258 370.099C356.759 368.531 359.668 367.74 362.618 367.825C365.569 367.91 368.428 368.866 370.835 370.574C372.632 371.983 373.213 373.41 372.737 374.08Z" fill="#263238"/>
<path d="M369.373 335.183C366.677 328.559 359.402 324.613 352.267 324.226C345.133 323.838 338.174 326.569 331.938 330.145C305.707 345.312 292.213 381.937 266.3 397.633C259.923 401.491 251.626 397.95 246.2 403.058C240.774 408.167 237.268 416.341 240.263 423.159C236.55 418.548 233.518 413.428 231.261 407.956C229.288 402.371 229.042 395.906 232.001 390.78C234.238 386.887 238.202 383.927 239.277 379.576C240.246 375.736 238.731 371.737 238.889 367.791C239.338 363.781 240.72 359.932 242.923 356.552C253.088 338.601 267.058 322.359 285.044 312.247C296.786 305.467 310.154 302.014 323.711 302.258C337.346 302.564 350.421 307.745 360.564 316.862C366.36 322.27 372.455 327.855 369.373 335.183Z" fill="#263238"/>
<path d="M246.834 408.52C246.376 407.251 223.387 398.972 223.087 423.388C222.788 447.117 246.728 442.448 246.781 441.761C246.834 441.074 246.834 408.52 246.834 408.52Z" fill="#FFBE9D"/>
<path d="M239.541 432.707C239.435 432.707 239.136 432.988 238.431 433.306C237.435 433.702 236.326 433.702 235.33 433.306C232.847 432.372 230.768 428.355 230.697 424.092C230.649 422.054 231.058 420.032 231.895 418.173C232.13 417.435 232.539 416.765 233.088 416.219C233.637 415.673 234.309 415.268 235.049 415.038C235.521 414.914 236.022 414.962 236.464 415.171C236.905 415.38 237.258 415.739 237.462 416.183C237.779 416.852 237.621 417.328 237.762 417.363C237.902 417.398 238.272 416.975 238.079 415.989C237.949 415.406 237.626 414.885 237.163 414.509C236.844 414.258 236.48 414.073 236.09 413.965C235.7 413.856 235.292 413.825 234.89 413.875C233.912 414.057 232.998 414.488 232.236 415.127C231.473 415.766 230.889 416.59 230.539 417.521C229.502 419.56 228.987 421.824 229.041 424.11C229.147 428.901 231.543 433.394 234.978 434.415C235.61 434.607 236.277 434.655 236.929 434.554C237.582 434.453 238.203 434.207 238.748 433.834C239.506 433.288 239.629 432.759 239.541 432.707Z" fill="#EB996E"/>
<path d="M237.392 396.329C237.889 396.107 238.367 395.841 238.819 395.536C239.735 394.955 241.144 394.18 242.8 393C247.479 389.581 251.778 385.671 255.624 381.338C261.22 374.852 266.448 368.06 271.285 360.991C277.112 352.328 283.659 344.172 290.857 336.61C294.698 332.832 298.939 329.483 303.505 326.622C307.784 324.013 312.362 321.931 317.14 320.421C325.251 317.819 333.78 316.773 342.279 317.338C348.013 317.688 353.676 318.795 359.12 320.632C361.075 321.231 362.52 321.883 363.524 322.27C364.023 322.499 364.542 322.682 365.074 322.817C364.605 322.535 364.116 322.288 363.612 322.077C362.199 321.401 360.746 320.812 359.261 320.315C353.822 318.291 348.121 317.057 342.331 316.651C333.732 315.947 325.078 316.904 316.841 319.469C311.969 320.97 307.301 323.065 302.942 325.706C298.308 328.609 294.002 332.005 290.099 335.835C282.856 343.472 276.29 351.724 270.475 360.498C265.69 367.567 260.539 374.382 255.043 380.915C251.274 385.257 247.091 389.222 242.553 392.753C240.932 393.969 239.576 394.796 238.713 395.431C238.248 395.693 237.806 395.994 237.392 396.329Z" fill="#455A64"/>
<path d="M236.846 436.899C235.678 436.684 234.472 436.922 233.473 437.564C232.474 438.207 231.758 439.206 231.47 440.358C231.182 441.511 231.344 442.729 231.923 443.766C232.502 444.803 233.454 445.58 234.586 445.94C235.718 446.299 236.945 446.213 238.016 445.7C239.087 445.187 239.922 444.285 240.351 443.178C240.781 442.071 240.772 440.841 240.327 439.74C239.882 438.639 239.034 437.749 237.955 437.252" fill="white"/>
<path d="M237.955 437.252C238.974 438.073 239.717 439.185 240.087 440.44C240.256 441.087 240.26 441.766 240.1 442.415C239.94 443.064 239.621 443.663 239.171 444.157C238.641 444.782 237.939 445.236 237.153 445.463C236.366 445.69 235.53 445.679 234.749 445.433C233.968 445.186 233.277 444.715 232.763 444.077C232.249 443.44 231.935 442.665 231.86 441.849C231.788 441.192 231.879 440.526 232.125 439.912C232.371 439.297 232.764 438.753 233.27 438.326C234.276 437.52 235.506 437.04 236.793 436.952C236.793 436.952 236.44 436.705 235.683 436.688C234.608 436.697 233.567 437.062 232.723 437.727C232.064 438.216 231.542 438.867 231.209 439.617C230.875 440.367 230.742 441.191 230.821 442.008C230.888 443.03 231.261 444.008 231.892 444.814C232.524 445.621 233.383 446.218 234.359 446.528C235.335 446.838 236.382 446.847 237.363 446.553C238.344 446.258 239.214 445.675 239.858 444.879C240.392 444.259 240.757 443.512 240.917 442.709C241.078 441.907 241.028 441.077 240.774 440.299C240.494 439.272 239.873 438.372 239.012 437.745C238.396 437.269 237.973 437.199 237.955 437.252Z" fill="#263238"/>
<path d="M243.363 403.041C242.994 409.524 242.694 416.359 245.689 422.119C248.684 427.88 256.259 431.808 261.86 428.584C266.458 425.96 267.832 420.058 268.625 414.826C270.862 399.711 271.902 384.438 274.28 369.341L243.363 403.041Z" fill="#263238"/>
<path d="M363.524 323.909C363.524 324.032 361.428 323.504 357.64 323.38C352.265 323.298 346.926 324.274 341.926 326.252C338.478 327.587 335.183 329.288 332.097 331.325C328.559 333.7 325.171 336.288 321.95 339.076C314.486 345.389 307.814 352.582 302.079 360.498C299.066 364.726 296.388 369.077 293.499 373.111C290.755 377.033 287.563 380.622 283.987 383.804C277.834 389.018 271.108 393.516 263.939 397.21C257.862 400.416 252.788 402.671 249.283 404.256L245.231 406.018C244.764 406.247 244.274 406.424 243.769 406.547C244.185 406.244 244.634 405.99 245.108 405.789L249.071 403.834C252.595 402.072 257.51 399.747 263.481 396.452C270.521 392.662 277.125 388.114 283.176 382.888C286.668 379.739 289.778 376.192 292.442 372.318C295.279 368.337 297.939 363.986 300.986 359.705C306.784 351.704 313.553 344.455 321.139 338.125C324.428 335.329 327.887 332.74 331.498 330.374C334.669 328.338 338.054 326.654 341.592 325.353C346.715 323.412 352.187 322.56 357.658 322.852C359.134 322.938 360.601 323.144 362.044 323.468C362.555 323.547 363.053 323.695 363.524 323.909Z" fill="#455A64"/>
<path d="M242.712 388.384C242.071 388.935 241.367 389.408 240.615 389.793L234.591 393.317L232.582 394.462C231.789 394.942 230.898 395.237 229.975 395.325C229.414 395.386 228.849 395.256 228.372 394.955C228.117 394.776 227.906 394.543 227.753 394.271C227.601 394 227.511 393.698 227.491 393.387C227.543 392.298 227.931 391.252 228.601 390.392L235.648 379.224L236.599 380.087C231.947 383.513 226.248 385.214 220.48 384.896C219.743 384.891 219.011 384.766 218.313 384.526C217.923 384.399 217.564 384.19 217.261 383.913C216.957 383.637 216.715 383.3 216.552 382.923C216.416 382.521 216.383 382.092 216.453 381.674C216.524 381.256 216.697 380.862 216.957 380.527C217.349 379.987 217.797 379.491 218.296 379.048C221.428 376.019 224.147 372.589 226.381 368.848C228.352 365.333 230.071 361.683 231.525 357.926C231.415 359.017 231.16 360.089 230.768 361.114C229.881 363.965 228.7 366.717 227.245 369.323C225.08 373.208 222.375 376.767 219.212 379.893C218.331 380.739 217.45 381.655 217.785 382.448C218.119 383.24 219.423 383.575 220.674 383.575C223.387 383.711 226.104 383.384 228.707 382.606C231.3 381.845 233.748 380.654 235.947 379.083L238.766 377.004L236.881 379.946L229.834 391.027C229.284 391.69 228.936 392.497 228.83 393.352C228.83 394.021 229.429 394.409 230.187 394.356C231.71 394.056 233.159 393.457 234.45 392.594L240.651 389.424C241.299 389.006 241.99 388.657 242.712 388.384Z" fill="#455A64"/>
<path d="M312.877 451.591C313.32 449.786 314.382 448.194 315.88 447.092C317.377 445.991 319.214 445.451 321.069 445.566C322.424 445.733 323.716 446.234 324.83 447.024C325.943 447.814 326.842 448.869 327.446 450.094C328.036 451.326 328.373 452.664 328.437 454.029C328.501 455.394 328.289 456.757 327.816 458.039L327.675 458.602C326.409 459.966 324.754 460.905 322.935 461.293C321.116 461.681 319.221 461.498 317.51 460.769C315.835 459.964 314.472 458.627 313.634 456.967C312.797 455.308 312.53 453.418 312.877 451.591Z" fill="#EB996E"/>
<path d="M332.096 458.779C332.096 457.863 325.948 458.144 321.315 453.106C316.682 448.068 317.052 441.479 316.189 441.479C315.801 441.479 315.061 442.994 315.132 445.778C315.258 449.375 316.649 452.812 319.06 455.484C321.387 458.055 324.621 459.621 328.08 459.853C330.617 459.959 332.149 459.201 332.096 458.779Z" fill="#263238"/>
<path d="M125 832.102C125.135 832.119 125.271 832.119 125.405 832.102L126.638 832.225L131.342 832.613C135.429 832.947 141.348 833.335 148.676 833.775C163.315 834.638 183.557 835.537 205.929 835.907C228.302 836.277 248.596 836.065 263.252 835.678C270.581 835.502 276.517 835.29 280.604 835.114L285.325 834.867H280.604L263.235 835.167C248.578 835.378 228.319 835.484 205.947 835.167C183.574 834.85 163.351 834.004 148.712 833.3L131.36 832.436L126.638 832.225H125.423L125 832.102Z" fill="white"/>
</svg>
