<svg width="459" height="81" viewBox="0 0 459 81" fill="none" xmlns="http://www.w3.org/2000/svg">
<g clip-path="url(#clip0_8_287)">
<path fill-rule="evenodd" clip-rule="evenodd" d="M0.38208 74.055V76.1812H229.5H458.618V74.055V71.9287H229.5H0.38208V74.055Z" fill="#9BC31C"/>
<path fill-rule="evenodd" clip-rule="evenodd" d="M255.055 24.7527C254.752 24.8487 254.3 25.1305 254.051 25.3784L253.597 25.8292V41.6728C253.597 50.388 253.649 57.6597 253.712 57.8335C254.218 59.2307 257.171 59.4749 258.562 58.2356L259.143 57.7168V51.6856C259.143 44.2498 259.257 43.7443 261.151 42.7152C262.577 41.9413 263.977 42.2475 265.232 43.607C266.293 44.7564 266.41 45.5972 266.414 52.0695C266.416 55.2516 266.48 57.9562 266.557 58.0789C267.299 59.266 270.445 59.3741 271.508 58.2478L271.957 57.7715V51.5957C271.957 44.7662 271.875 44.0262 270.862 41.7663C268.606 36.7338 263.177 35.4301 260.009 39.1614L259.143 40.1795V33.0001C259.143 26.1596 259.126 25.8049 258.774 25.4671C257.96 24.6871 256.28 24.3639 255.055 24.7527ZM364.566 24.8572C361.997 25.5898 360.124 27.5739 359.181 30.5652C358.791 31.8009 358.783 32.118 358.831 44.935L358.881 58.0412L359.507 58.4871C360.438 59.1518 361.469 59.2696 362.717 58.8541C364.414 58.2891 364.331 58.7581 364.331 49.71V41.7554L366.961 41.753C370.432 41.7493 371.318 41.1479 370.948 39.0508C370.658 37.4239 370.395 37.3012 367.171 37.3012H364.303L364.364 34.48C364.452 30.5215 364.969 29.8654 368.191 29.6236C370.656 29.4389 371.527 28.2203 370.743 26.0491C370.202 24.5461 367.493 24.0237 364.566 24.8572ZM194.927 25.6919C194.071 26.0552 193.657 28.637 194.244 29.9468C194.686 30.9334 195.06 31.0233 198.722 31.0233H201.96V44.3008C201.96 53.0197 202.028 57.7108 202.157 57.9671C202.944 59.526 206.678 59.3668 207.455 57.7424C207.635 57.3645 207.693 54.1472 207.695 44.1356L207.697 31.0233H211.045C214.158 31.0233 214.418 30.9941 214.781 30.6102C215.892 29.4341 215.776 26.4342 214.593 25.7648C214.218 25.5521 195.418 25.4817 194.927 25.6919ZM398.397 25.834C396.935 26.3941 397.035 25.1816 397.035 42.3945V57.7715L397.488 58.2527C398.28 59.0898 399.042 59.1688 406.349 59.17C414.625 59.1712 414.821 59.108 414.821 56.4374C414.821 53.8653 414.418 53.7037 408.022 53.7037H402.772V40.4262C402.772 31.3015 402.708 27.0211 402.566 26.7404C402.074 25.766 399.841 25.2812 398.397 25.834ZM418.831 26.0114L417.977 26.467L417.927 42.2098C417.872 59.9622 417.747 58.4823 419.352 58.9537C420.282 59.2283 433.729 59.2477 434.403 58.9768C435.854 58.3924 435.854 54.4813 434.403 53.8969C434.138 53.79 431.56 53.7037 428.674 53.7037H423.427V40.2512C423.427 27.8291 423.402 26.7732 423.1 26.4537C422.177 25.4756 420.214 25.2727 418.831 26.0114ZM439.45 25.8632C439.163 26.0321 438.84 26.3455 438.733 26.5594C438.461 27.0964 438.462 57.4301 438.733 57.9671C439.421 59.3291 443.106 59.4081 443.936 58.0789C444.014 57.9562 444.078 55.3367 444.079 52.2591L444.082 46.6628L447.86 46.5668C455.727 46.3663 458.676 43.7383 458.941 36.6937C459.156 30.9953 457.367 27.6845 453.237 26.1378C451.631 25.5351 440.384 25.3116 439.45 25.8632ZM374.34 27.9724C373.053 28.5909 373.106 27.987 373.174 41.4042C373.24 54.8239 373.23 54.6976 374.445 56.4727C376.344 59.2502 383.692 60.2392 384.891 57.8796C385.847 56.0013 384.726 54.1168 382.641 54.0961C378.764 54.0573 378.867 54.2395 378.867 47.3019V41.7554H381.343C384.678 41.7554 385.296 41.3593 385.244 39.2561C385.204 37.5977 384.852 37.4093 381.666 37.3461L378.867 37.2903V33.3597C378.867 31.1982 378.781 29.1923 378.676 28.9007C378.258 27.7379 375.884 27.2301 374.34 27.9724ZM451.082 31.2772C452.663 32.1654 453.359 33.7279 453.358 36.3899C453.355 40.6862 452.148 41.7505 447.095 41.9145L444.082 42.0117V36.3924V30.7742L447.286 30.858C449.776 30.9249 450.621 31.0172 451.082 31.2772ZM219.839 37.4786C217.117 38.5344 215.527 39.9912 214.349 42.5063L213.544 44.2279L213.469 47.3966C213.328 53.3732 214.659 56.3864 218.254 58.2344C224.671 61.5319 234.594 57.6852 230.392 53.5287C229.754 52.8981 228.953 53.0051 226.848 54.0038C223.097 55.785 219.172 54.0718 219.172 50.6528V49.8558L223.524 49.8461C228.309 49.8339 229.315 49.7549 230.169 49.3224C232.535 48.1256 232.23 43.0566 229.608 39.9851C227.487 37.5017 222.85 36.3122 219.839 37.4786ZM239.757 37.5977C235.621 39.1431 234.271 41.7991 234.292 48.3504C234.308 53.2797 235.093 55.8518 237.054 57.4034C242.213 61.4833 252.504 59.1311 250.327 54.3695C249.612 52.807 248.535 52.5385 246.766 53.4838C243.88 55.0256 240.71 54.1253 240.041 51.5726C239.787 50.6042 239.767 46.2266 240.011 45.1124C240.625 42.307 243.635 41.4516 247.058 43.1089C248.959 44.0299 250.347 42.9412 250.347 40.527C250.347 37.7969 243.955 36.0291 239.757 37.5977ZM284.344 37.481C283.297 37.9269 282.405 38.6571 281.674 39.668L281.159 40.38L281.101 39.3023C280.987 37.2101 277.937 36.4373 276.364 38.1031C275.803 38.696 275.756 57.3548 276.312 58.0838C277.289 59.3595 279.592 59.4361 280.938 58.2356L281.52 57.7168L281.521 51.8119C281.522 48.1183 281.601 45.6033 281.734 45.0966C282.572 41.8927 286.25 41.3143 287.999 44.1113L288.596 45.065L288.616 51.055C288.636 57.7363 288.654 57.8772 289.507 58.4871C290.759 59.379 293.341 59.1639 294.04 58.1081C294.39 57.5783 294.476 46.2691 294.143 44.3652C293.226 39.1018 288.436 35.7351 284.344 37.481ZM303.992 37.4786C299.377 39.2464 297.585 42.2195 297.585 48.1098C297.585 54.6976 300.266 58.4653 305.619 59.4008C312.453 60.5964 317.344 54.0147 316.145 45.2376C315.364 39.5186 309.103 35.5212 303.992 37.4786ZM323.502 37.5187C320.509 38.634 319.182 40.6327 319.211 43.9837C319.241 47.297 320.746 48.8437 325.221 50.162C328.297 51.0671 329.141 51.654 329.141 52.8836C329.141 55.3136 325.282 55.706 321.994 53.6089C320.559 52.694 319.98 52.688 319.241 53.5785C315.215 58.4349 327.99 62.0046 332.537 57.294C333.585 56.209 334.131 54.7036 334.136 52.8824C334.146 49.3953 332.598 47.4975 328.759 46.2946C325.558 45.291 325.213 45.155 324.599 44.6641C323.546 43.8185 323.897 42.482 325.331 41.8745C326.621 41.3277 327.74 41.482 330.614 42.6022L331.8 43.0652L332.335 42.6423C333.74 41.533 334.039 39.6546 332.963 38.7021C331.298 37.2307 326.043 36.5722 323.502 37.5187ZM342.733 37.6025C340.239 38.583 338.157 40.6497 337.185 43.1065C336.495 44.8512 336.363 50.3758 336.961 52.4595C339.715 62.0605 353.102 61.5246 355.061 51.7354C356.977 42.16 350.38 34.5966 342.733 37.6025ZM223.629 41.5391C225.277 41.9437 226.44 43.3689 226.44 44.98C226.44 46.1391 226.203 46.2108 222.414 46.2108H219.129L219.205 44.7905C219.276 43.4746 219.333 43.3142 219.971 42.6375C220.92 41.6327 222.311 41.2147 223.629 41.5391ZM308.723 42.8926C311.118 44.5207 311.453 51.0659 309.251 53.1727C306.288 56.0073 303.135 53.4607 303.135 48.2362C303.135 43.3325 305.726 40.8551 308.723 42.8926ZM347.601 42.7808C349.246 43.8294 349.606 44.8184 349.601 48.2799C349.593 53.3696 347.157 55.6197 343.93 53.5166C341.583 51.9857 341.479 44.6434 343.783 43.0457C345.091 42.1381 346.444 42.0433 347.601 42.7808Z" fill="#4C4C4C"/>
<path fill-rule="evenodd" clip-rule="evenodd" d="M101.746 3.29821C101.062 3.39177 100.157 3.51205 99.7375 3.56551C95.7832 4.06245 92.156 5.65167 90.0308 7.8168C89.3216 8.54094 88.7399 9.21162 88.7399 9.3076C88.7399 9.40359 88.5758 9.66846 88.375 9.89688C87.5935 10.785 86.5562 13.8359 86.3439 15.8662C86.0731 18.4626 86.2383 46.1513 86.5344 47.732C87.1403 50.9687 89.6154 54.8397 91.8484 56.0414C92.242 56.254 92.5656 56.4982 92.5656 56.5845C92.5656 56.6707 92.6723 56.74 92.8043 56.74C92.9363 56.74 93.3872 56.9149 93.8084 57.1288C95.9599 58.2235 99.5298 59.0667 103.086 59.3194C107.24 59.6147 112.614 59.413 115.109 58.8675C118.89 58.04 119.862 57.7205 122.017 56.593C123.41 55.864 126.607 52.8471 126.607 52.2639C126.607 52.1436 126.766 51.8022 126.957 51.507C127.358 50.8922 128.099 48.9871 128.231 48.2362C128.279 47.958 128.43 47.2739 128.564 46.7175C129.003 44.8877 128.893 16.566 128.44 15.221C128.385 15.0582 128.299 14.6973 128.248 14.4179C128.042 13.2746 127.945 12.8797 127.779 12.4945C127.683 12.2722 127.467 11.7607 127.3 11.3585C127.134 10.9564 126.867 10.5117 126.707 10.3719C126.548 10.231 126.417 9.99043 126.417 9.83734C126.417 9.68425 126.331 9.55789 126.225 9.55789C126.12 9.55789 126.034 9.44004 126.034 9.29424C126.034 8.76693 122.651 5.94084 121.631 5.61643C121.37 5.53381 120.969 5.33941 120.737 5.18632C120.342 4.92267 117.789 4.10254 116.95 3.97011C116.739 3.9373 115.792 3.75991 114.845 3.57523C112.888 3.19494 103.889 3.00418 101.746 3.29821ZM26.1529 24.4927C26.0898 47.0637 26.1357 46.0796 25.0697 47.9057C24.7163 48.5108 23.8269 49.4536 23.6169 49.4463C23.5642 49.4439 23.2842 49.5691 22.9961 49.7234C21.7672 50.3819 17.7176 50.795 16.5105 50.3843C16.2821 50.3078 15.9379 50.2106 15.7462 50.1693C14.8018 49.9676 13.574 49.2058 12.9486 48.4318C12.0352 47.3019 11.6531 46.1294 11.3834 43.6289L11.2469 42.3629H5.60005H-0.0456543L0.0645057 44.1514C0.159748 45.6908 0.258433 46.3566 0.672681 48.2362C1.23381 50.7841 3.95453 55.3233 4.92187 55.3233C5.04466 55.3233 5.21334 55.4424 5.29825 55.5869C5.5289 55.983 6.59722 56.7266 7.30753 56.9842C7.65407 57.1093 7.97996 57.2709 8.03275 57.3426C8.10963 57.4483 10.3759 58.2709 11.1884 58.4896C11.5934 58.5977 13.7232 58.9756 14.7261 59.1165C16.8834 59.4203 22.5176 59.2818 24.6715 58.8723C24.9343 58.8225 25.6228 58.6937 26.2011 58.5868C32.3678 57.4459 36.1763 53.3416 37.4053 46.5145C37.4845 46.0686 37.582 36.2502 37.621 24.6956L37.6922 3.6858H31.9524H26.2114L26.1529 24.4927ZM43.0567 5.25558C43.4951 6.11823 44.1136 7.32594 44.4303 7.9383C44.747 8.55066 45.4539 9.9637 46.0012 11.0766C47.7558 14.6439 48.9893 17.1176 49.6767 18.4444C50.3273 19.7007 51.1776 21.3896 51.5746 22.2145C51.6814 22.4369 51.8845 22.8476 52.0245 23.1258C52.1656 23.404 52.6831 24.4526 53.1743 25.455C55.0091 29.1947 55.3694 29.9116 55.467 30.0112C55.5209 30.0659 55.864 30.7499 56.2277 31.53C56.5915 32.3088 57.1916 33.4934 57.5623 34.1616L58.2359 35.3766L58.3311 47.2229L58.4275 59.0691L64.0216 59.1238L69.6156 59.1773V47.6153V36.0546L70.3168 34.5006C70.7023 33.6465 71.0707 32.9017 71.1361 32.8458C71.2531 32.7462 71.9428 31.3684 73.975 27.1754C74.5419 26.0066 75.3508 24.3663 75.7743 23.5304C76.1977 22.6957 77.1903 20.6909 77.9809 19.0762C78.7715 17.4615 79.7435 15.5017 80.1405 14.7216C81.8262 11.4108 85.489 3.92029 85.489 3.78421C85.489 3.53757 73.4839 3.69066 73.2911 3.93852C72.9732 4.34919 71.3369 7.79736 71.3369 8.05615C71.3369 8.18737 71.2084 8.40607 71.0523 8.54337C70.8951 8.68188 70.809 8.86777 70.8618 8.95647C70.9135 9.04516 70.8917 9.14965 70.8113 9.1861C70.6174 9.27844 68.9329 12.8554 68.9937 13.0498C69.0201 13.1349 68.9558 13.2029 68.8502 13.2029C68.7447 13.2029 68.6586 13.3669 68.6586 13.5674C68.6586 13.7679 68.584 14.0194 68.4934 14.1251C68.3178 14.3268 67.1428 17.34 67.0361 17.8612C66.9833 18.1176 66.6356 19.0422 65.7795 21.2025C65.6912 21.4248 65.433 22.1076 65.2035 22.7212C64.9751 23.3336 64.6699 24.1221 64.5242 24.4732C64.3796 24.8232 64.2602 25.2107 64.2602 25.3335C64.2602 25.8887 63.9378 25.4562 63.558 24.3918C63.0382 22.9302 61.6669 19.3763 61.3123 18.5695C61.0312 17.928 60.7661 17.2245 60.7386 17.0447C60.6755 16.628 57.7872 10.152 57.5818 9.9637C57.3982 9.79482 56.7499 8.37448 56.8256 8.30644C56.8635 8.27121 56.7177 7.96867 56.4997 7.63455C56.2817 7.30042 55.7676 6.27496 55.3568 5.35642L54.6098 3.6858H48.4339H42.2581L43.0567 5.25558ZM132.537 8.34289V12.7983H139.039H145.541V35.8833V58.9683H151.183H156.826V35.8833V12.7983H163.424H170.022V8.34289V3.8887H151.279H132.537V8.34289ZM176.333 31.53V59.1712H182.071H187.808V31.53V3.8887H182.071H176.333V31.53ZM109.617 11.9976C113.953 12.4885 115.783 13.52 116.847 16.0715C117.422 17.4505 117.414 17.2537 117.409 31.2262C117.404 44.6131 117.401 44.7467 117.068 45.6543C116.956 45.9605 116.926 46.212 117.002 46.2144C117.079 46.2157 117.054 46.2837 116.95 46.3663C116.844 46.4477 116.592 46.8304 116.388 47.218C115.148 49.5691 112.791 50.4682 107.578 50.5787C101.751 50.7027 99.1752 49.5557 98.0002 46.3116C97.6514 45.3494 97.633 44.6119 97.633 31.2092V17.1188L98.1023 16.0217C98.9331 14.0777 100.839 12.6416 103.101 12.2576C104.971 11.9393 105.573 11.8664 106.623 11.8287C107.254 11.8069 108.601 11.8822 109.617 11.9976Z" fill="#347CCC"/>
<path fill-rule="evenodd" clip-rule="evenodd" d="M179.154 3.83766C180.758 3.87168 183.382 3.87168 184.986 3.83766C186.59 3.80364 185.278 3.7757 182.071 3.7757C178.862 3.7757 177.549 3.80364 179.154 3.83766ZM156.917 35.8833C156.917 48.6359 156.94 53.8531 156.969 47.4768C156.996 41.1005 156.996 30.6661 156.969 24.2898C156.94 17.9134 156.917 23.1306 156.917 35.8833ZM86.1521 31.2262C86.1521 37.741 86.1762 40.4067 86.206 37.1493C86.2359 33.8907 86.2359 28.5605 86.206 25.3031C86.1762 22.0444 86.1521 24.7101 86.1521 31.2262Z" fill="#347CC4"/>
<path fill-rule="evenodd" clip-rule="evenodd" d="M381.594 54.0512C381.885 54.0974 382.315 54.0961 382.55 54.0488C382.785 54.0002 382.548 53.9625 382.022 53.9637C381.496 53.9649 381.304 54.005 381.594 54.0512Z" fill="#686870"/>
</g>
<defs>
<clipPath id="clip0_8_287">
<rect width="459" height="81" fill="white"/>
</clipPath>
</defs>
</svg>
