<svg width="23" height="25" viewBox="0 0 23 25" fill="none" xmlns="http://www.w3.org/2000/svg">
<path d="M0.513905 13.1023C0.171302 13.1023 0 12.7112 0 12.3201C0 11.3423 0.342603 9.19119 1.54172 6.8445C1.71302 6.45339 2.05562 6.45339 2.39822 6.64895C2.74083 6.8445 2.91213 7.43118 2.56953 7.62673C1.54172 9.97342 1.19911 11.7334 1.19911 12.5157C1.19911 12.9068 0.856509 13.1023 0.513905 13.1023ZM2.91213 6.64895C2.74083 6.64895 2.56953 6.64895 2.56953 6.45339C2.22692 6.25783 2.22692 5.67116 2.39822 5.4756C3.59734 3.71559 5.13905 2.34669 6.68077 1.3689C7.02337 1.17334 7.36598 1.3689 7.53728 1.76002C7.70858 2.15113 7.53728 2.54224 7.19467 2.7378C5.82426 3.52003 4.62515 4.69337 3.42604 6.25783C3.42604 6.45339 3.25473 6.64895 2.91213 6.64895ZM9.07899 1.95557C8.73639 1.95557 8.56509 1.76002 8.39379 1.3689C8.39379 0.977786 8.56509 0.586672 8.90769 0.391115C9.9355 0 11.1346 0 12.3337 0C12.8476 0.195557 13.0189 0.586672 13.0189 0.977786C13.0189 1.3689 12.6763 1.76002 12.3337 1.76002C11.3059 1.56446 10.2781 1.56446 9.07899 1.95557C9.25029 1.95557 9.25029 1.95557 9.07899 1.95557ZM17.3015 3.32447C17.1302 3.32447 17.1302 3.32447 16.9589 3.12892C15.9311 2.34669 14.732 1.95557 13.5328 1.56446C13.3615 1.76002 13.0189 1.3689 13.1902 0.977786C13.1902 0.586672 13.5328 0.391115 13.8754 0.391115C15.2459 0.782229 16.445 1.17334 17.6441 2.15113C17.9867 2.34669 17.9867 2.7378 17.8154 3.12892C17.8154 3.32447 17.4728 3.32447 17.3015 3.32447ZM22.4405 15.0579C22.0979 15.0579 21.7553 14.6668 21.7553 14.2757C21.584 9.97342 20.3849 6.64895 18.3293 4.49782C17.9867 4.30226 17.9867 3.71559 18.3293 3.52003C18.5006 3.12892 19.0145 3.12892 19.1858 3.52003C21.4127 5.86672 22.7831 9.58231 22.9544 14.2757C23.1257 14.6668 22.7831 15.0579 22.4405 15.0579Z" fill="white"/>
<path d="M18.5006 23.4669H18.3293C17.9867 23.2713 17.8154 22.8802 17.9867 22.4891C17.9867 22.4891 18.3293 21.3157 18.8432 18.9691C19.3571 16.6224 19.0145 13.4935 19.0145 13.4935C19.0145 10.169 17.3015 7.04006 14.5606 5.67116C14.218 5.4756 14.0467 5.08449 14.218 4.69337C14.3893 4.30226 14.7319 4.1067 15.0746 4.30226C18.158 5.86672 20.2136 9.38675 20.2136 13.2979C20.2136 13.2979 20.5562 16.6224 20.0423 19.1646C19.5284 21.7069 19.0145 22.8802 19.0145 22.8802C18.8432 23.2713 18.6719 23.4669 18.5006 23.4669ZM7.02337 6.45339C6.85207 6.45339 6.68077 6.25783 6.50947 6.06228C6.33816 5.86672 6.50947 5.4756 6.68077 5.28005C8.56509 3.71559 10.792 3.12892 13.0189 3.71559C13.3615 3.71559 13.5328 4.1067 13.5328 4.49782C13.5328 4.88893 13.1902 5.08449 12.8476 5.08449C10.9633 4.69337 9.07899 5.08449 7.53728 6.45339H7.02337ZM0.685207 17.6002C0.342603 17.6002 0.171302 17.4046 0 17.0135C0 16.6224 0.171302 16.2313 0.513905 16.2313C0.513905 16.2313 1.19911 16.0357 1.88432 15.2535C2.39822 14.6668 2.91213 13.689 3.08343 13.2979C3.08343 11.1468 3.76864 8.99564 4.96775 7.23562C5.13905 6.84451 5.65296 6.64895 5.82426 7.04006C6.16686 7.23562 6.16686 7.62673 5.99556 8.01785C4.96775 9.58231 4.28254 11.3423 4.28254 13.2979V13.4935C4.28254 13.689 3.76864 15.449 2.74083 16.2313C1.71302 17.209 0.856509 17.6002 0.856509 17.6002H0.685207Z" fill="white"/>
<path d="M2.05562 20.1424C1.88432 20.1424 1.71302 19.9468 1.54172 19.7513C1.37042 19.3602 1.37042 18.9691 1.71302 18.7735C1.71302 18.7735 3.93994 17.0135 4.62515 16.4268C4.79645 16.2313 5.31036 15.2535 5.48166 14.2757C5.48166 12.7112 6.33817 9.97343 7.19468 8.80008C7.19468 8.80008 7.53728 8.21341 8.39379 7.62674C9.079 7.23562 9.9355 6.84451 10.792 6.84451C11.1346 6.64895 11.4772 6.84451 11.4772 7.23562C11.4772 7.62674 11.3059 8.01785 10.9633 8.01785C10.2781 8.01785 9.7642 8.21341 9.2503 8.60452C8.56509 9.1912 8.22249 9.58231 8.22249 9.58231C7.53728 10.5601 6.68077 13.1023 6.68077 14.4712V14.6668C6.50947 15.2535 5.99556 17.0135 5.31036 17.7957C4.79645 18.1868 2.56953 19.9468 2.39823 20.1424H2.05562ZM15.5885 10.7557C15.4172 10.7557 15.2459 10.7557 15.0746 10.5601C14.5606 9.58231 13.7041 8.80008 12.6763 8.40897C12.3337 8.21341 12.1624 7.8223 12.3337 7.43118C12.3337 7.04007 12.8476 6.84451 13.1902 7.04007C14.3893 7.62674 15.5885 8.60453 16.2737 9.58231C16.445 9.97343 16.445 10.3645 16.1024 10.5601C15.9311 10.7557 15.7598 10.7557 15.5885 10.7557ZM16.1024 18.1868C15.5885 17.9913 15.4172 17.6002 15.4172 17.209C15.5885 16.6224 15.5885 16.2313 15.7598 16.0357C15.9311 15.2535 15.9311 13.4935 15.9311 13.4935C15.9311 13.1023 15.9311 12.5157 15.7598 12.1246C15.7598 11.7334 15.9311 11.3423 16.2737 11.1468C16.6163 10.9512 16.9589 11.3423 17.1302 11.7334C17.3015 12.3201 17.3015 12.9068 17.3015 13.4935C17.3015 13.4935 17.1302 15.449 17.1302 16.2313C17.1302 16.4268 16.9589 16.8179 16.9589 17.4046C16.6163 17.7957 16.445 18.1868 16.1024 18.1868Z" fill="white"/>
<path d="M14.732 23.858H14.5607C14.2181 23.6624 14.0468 23.2713 14.2181 22.8802C14.2181 22.8802 14.732 20.7291 15.2459 18.7735C15.2459 18.3824 15.7598 18.1868 16.1024 18.1868C16.445 18.1868 16.6163 18.5779 16.6163 19.1646C16.2737 21.1202 15.5885 23.2713 15.5885 23.2713C15.2459 23.6624 15.0746 23.858 14.732 23.858Z" fill="white"/>
<path d="M11.9915 24.0535C11.4776 23.858 11.3063 23.4669 11.3063 23.0758L13.1906 14.2757C13.5332 13.1023 12.848 11.929 11.8202 11.5379C10.7924 11.3423 9.59326 12.1246 9.42196 13.2979L7.70894 18.9691L4.28291 22.098C3.94031 22.4891 3.4264 22.4891 3.2551 22.098C3.0838 21.7069 3.0838 21.3157 3.4264 21.1202L6.68113 18.1868L8.22285 13.1023C8.22285 12.1246 8.90806 11.1468 9.59326 10.7557C10.2785 10.169 11.3063 9.97342 12.1628 10.3645C13.8758 10.7557 15.0749 12.7112 14.561 14.8624L12.6767 23.6624C12.6767 23.858 12.3341 24.0535 11.9915 24.0535Z" fill="white"/>
<path d="M8.22213 24.2491H7.87952C7.53692 24.0535 7.53692 23.6624 7.70822 23.2713L9.59254 19.3602L10.6204 13.8846C10.6204 13.4935 10.963 13.2979 11.3056 13.2979C11.6482 13.2979 11.8195 13.689 11.8195 14.0801L10.7917 19.9468L8.73603 24.0535C8.73603 24.0535 8.39343 24.2491 8.22213 24.2491Z" fill="white"/>
</svg>
