<svg width="30" height="27" viewBox="0 0 30 27" fill="none" xmlns="http://www.w3.org/2000/svg">
<path d="M17.3438 0.575256H28.5938C29.3704 0.575256 30 1.19885 30 1.96811V11.2538C30 12.0231 29.3704 12.6467 28.5938 12.6467H17.3438C16.5671 12.6467 15.9375 12.0231 15.9375 11.2538V1.96811C15.9375 1.19885 16.5671 0.575256 17.3438 0.575256ZM12.6562 0.575256H1.40625C0.62959 0.575256 0 1.19885 0 1.96811V11.2538C0 12.0231 0.62959 12.6467 1.40625 12.6467H12.6562C13.4329 12.6467 14.0625 12.0231 14.0625 11.2538V1.96811C14.0625 1.19885 13.4329 0.575256 12.6562 0.575256ZM0 15.8967V25.1824C0 25.9517 0.62959 26.5753 1.40625 26.5753H12.6562C13.4329 26.5753 14.0625 25.9517 14.0625 25.1824V15.8967C14.0625 15.1274 13.4329 14.5038 12.6562 14.5038H1.40625C0.62959 14.5038 0 15.1274 0 15.8967ZM17.3438 26.5753H28.5938C29.3704 26.5753 30 25.9517 30 25.1824V15.8967C30 15.1274 29.3704 14.5038 28.5938 14.5038H17.3438C16.5671 14.5038 15.9375 15.1274 15.9375 15.8967V25.1824C15.9375 25.9517 16.5671 26.5753 17.3438 26.5753Z" fill="white"/>
</svg>
