<svg width="745" height="111" viewBox="0 0 745 111" fill="none" xmlns="http://www.w3.org/2000/svg">
<path d="M0.912109 12.4277H43.2578V26.877H15.5723V40.9043H43.2578V55.0898H15.5723V75.498H43.2578V90H0.912109V12.4277Z" fill="#9BC31C"/>
<path d="M55.3867 32.625H69.8359V39.2168C72.2969 36.5098 75.0215 34.4883 78.0098 33.1523C81.0332 31.8164 84.3203 31.1484 87.8711 31.1484C91.457 31.1484 94.6914 32.0273 97.5742 33.7852C100.457 35.543 102.777 38.1094 104.535 41.4844C106.82 38.1094 109.615 35.543 112.92 33.7852C116.26 32.0273 119.898 31.1484 123.836 31.1484C127.914 31.1484 131.5 32.0977 134.594 33.9961C137.688 35.8945 139.902 38.373 141.238 41.4316C142.609 44.4902 143.295 49.4648 143.295 56.3555V90H128.793V60.8906C128.793 54.3867 127.984 49.9922 126.367 47.707C124.75 45.3867 122.324 44.2266 119.09 44.2266C116.629 44.2266 114.414 44.9297 112.445 46.3359C110.512 47.7422 109.07 49.6934 108.121 52.1895C107.172 54.6504 106.697 58.623 106.697 64.1074V90H92.1953V62.209C92.1953 57.0762 91.8086 53.3672 91.0352 51.082C90.2969 48.7617 89.1719 47.0391 87.6602 45.9141C86.1484 44.7891 84.3203 44.2266 82.1758 44.2266C79.7852 44.2266 77.6055 44.9473 75.6367 46.3887C73.7031 47.7949 72.2441 49.7812 71.2598 52.3477C70.3105 54.9141 69.8359 58.957 69.8359 64.4766V90H55.3867V32.625Z" fill="#9BC31C"/>
<path d="M171.35 32.625V38.9531C173.951 36.3516 176.764 34.4004 179.787 33.0996C182.811 31.7988 186.045 31.1484 189.49 31.1484C196.979 31.1484 203.342 33.9785 208.58 39.6387C213.818 45.2988 216.438 52.5586 216.438 61.418C216.438 69.9609 213.73 77.1152 208.316 82.8809C202.902 88.6113 196.486 91.4766 189.068 91.4766C185.764 91.4766 182.688 90.8965 179.84 89.7363C176.992 88.541 174.162 86.6074 171.35 83.9355V110.988H157.059V32.625H171.35ZM186.484 44.4375C181.949 44.4375 178.188 45.9844 175.199 49.0781C172.211 52.1719 170.717 56.2148 170.717 61.207C170.717 66.3047 172.211 70.4355 175.199 73.5996C178.188 76.7285 181.949 78.293 186.484 78.293C190.879 78.293 194.57 76.6934 197.559 73.4941C200.582 70.2949 202.094 66.2168 202.094 61.2598C202.094 56.3379 200.617 52.3125 197.664 49.1836C194.711 46.0195 190.984 44.4375 186.484 44.4375Z" fill="#9BC31C"/>
<path d="M226.826 10.4766H241.223V90H226.826V10.4766Z" fill="#9BC31C"/>
<path d="M338.729 32.625H353.441L368.365 68.6426L384.818 32.625H399.584L363.619 110.988H348.748L360.561 85.7285L338.729 32.625Z" fill="#9BC31C"/>
<path d="M465.238 65.4785H418.99C419.658 69.5566 421.434 72.8086 424.316 75.2344C427.234 77.625 430.943 78.8203 435.443 78.8203C440.822 78.8203 445.445 76.9395 449.312 73.1777L461.441 78.873C458.418 83.1621 454.797 86.3438 450.578 88.418C446.359 90.457 441.35 91.4766 435.549 91.4766C426.549 91.4766 419.219 88.6465 413.559 82.9863C407.898 77.291 405.068 70.1719 405.068 61.6289C405.068 52.875 407.881 45.6152 413.506 39.8496C419.166 34.0488 426.25 31.1484 434.758 31.1484C443.793 31.1484 451.141 34.0488 456.801 39.8496C462.461 45.6152 465.291 53.2441 465.291 62.7363L465.238 65.4785ZM450.789 54.1406C449.84 50.9414 447.959 48.3398 445.146 46.3359C442.369 44.332 439.135 43.3301 435.443 43.3301C431.436 43.3301 427.92 44.4551 424.896 46.7051C422.998 48.1113 421.24 50.5898 419.623 54.1406H450.789Z" fill="#9BC31C"/>
<path d="M534.426 65.4785H488.178C488.846 69.5566 490.621 72.8086 493.504 75.2344C496.422 77.625 500.131 78.8203 504.631 78.8203C510.01 78.8203 514.633 76.9395 518.5 73.1777L530.629 78.873C527.605 83.1621 523.984 86.3438 519.766 88.418C515.547 90.457 510.537 91.4766 504.736 91.4766C495.736 91.4766 488.406 88.6465 482.746 82.9863C477.086 77.291 474.256 70.1719 474.256 61.6289C474.256 52.875 477.068 45.6152 482.693 39.8496C488.354 34.0488 495.438 31.1484 503.945 31.1484C512.98 31.1484 520.328 34.0488 525.988 39.8496C531.648 45.6152 534.479 53.2441 534.479 62.7363L534.426 65.4785ZM519.977 54.1406C519.027 50.9414 517.146 48.3398 514.334 46.3359C511.557 44.332 508.322 43.3301 504.631 43.3301C500.623 43.3301 497.107 44.4551 494.084 46.7051C492.186 48.1113 490.428 50.5898 488.811 54.1406H519.977Z" fill="#9BC31C"/>
<path d="M541.809 12.4277H556.996L576.508 67.5352L596.283 12.4277H611.471L583.521 90H569.283L541.809 12.4277Z" fill="#9BC31C"/>
<path d="M621.701 32.625H636.256V60.2578C636.256 65.6367 636.625 69.3809 637.363 71.4902C638.102 73.5645 639.279 75.1816 640.896 76.3418C642.549 77.502 644.57 78.082 646.961 78.082C649.352 78.082 651.373 77.5195 653.025 76.3945C654.713 75.2344 655.961 73.5469 656.77 71.332C657.367 69.6797 657.666 66.1465 657.666 60.7324V32.625H672.115V56.9355C672.115 66.9551 671.324 73.8105 669.742 77.502C667.809 82.002 664.961 85.4648 661.199 87.8906C657.438 90.2812 652.656 91.4766 646.855 91.4766C640.562 91.4766 635.465 90.0703 631.562 87.2578C627.695 84.4453 624.971 80.5254 623.389 75.498C622.264 72.0176 621.701 65.6895 621.701 56.5137V32.625Z" fill="#9BC31C"/>
<path d="M744.098 65.4785H697.85C698.518 69.5566 700.293 72.8086 703.176 75.2344C706.094 77.625 709.803 78.8203 714.303 78.8203C719.682 78.8203 724.305 76.9395 728.172 73.1777L740.301 78.873C737.277 83.1621 733.656 86.3438 729.438 88.418C725.219 90.457 720.209 91.4766 714.408 91.4766C705.408 91.4766 698.078 88.6465 692.418 82.9863C686.758 77.291 683.928 70.1719 683.928 61.6289C683.928 52.875 686.74 45.6152 692.365 39.8496C698.025 34.0488 705.109 31.1484 713.617 31.1484C722.652 31.1484 730 34.0488 735.66 39.8496C741.32 45.6152 744.15 53.2441 744.15 62.7363L744.098 65.4785ZM729.648 54.1406C728.699 50.9414 726.818 48.3398 724.006 46.3359C721.229 44.332 717.994 43.3301 714.303 43.3301C710.295 43.3301 706.779 44.4551 703.756 46.7051C701.857 48.1113 700.1 50.5898 698.482 54.1406H729.648Z" fill="#9BC31C"/>
<path d="M290.5 77C311.763 77 329 59.763 329 38.5C329 17.237 311.763 0 290.5 0C269.237 0 252 17.237 252 38.5C252 59.763 269.237 77 290.5 77Z" fill="#9BC31C"/>
<path d="M292.031 83.001H290.656C283.964 83.056 277.509 85.487 272.443 89.86C267.377 94.234 264.03 100.265 263 106.877C263 108.08 263.344 111 267.638 111H314.362C318.656 111 319 108.423 319 106.877C318.256 100.266 315.087 94.165 310.106 89.755C305.124 85.345 298.684 82.9383 292.031 83.001Z" fill="#9BC31C"/>
<path d="M294.859 102.54L292.525 88.1076L293.473 84.5915C293.511 84.4505 293.481 84.2998 293.392 84.1839C293.303 84.068 293.166 84 293.02 84H287.98C287.834 84 287.697 84.068 287.608 84.1839C287.519 84.2998 287.489 84.4505 287.527 84.5915L288.475 88.1076L286.141 102.54C286.117 102.689 286.165 102.84 286.271 102.946L290.167 106.862C290.255 106.95 290.375 107 290.5 107C290.625 107 290.745 106.95 290.833 106.862L294.729 102.946C294.835 102.84 294.883 102.689 294.859 102.54ZM292.407 84.9388L291.686 87.6133H289.314L288.593 84.9388H292.407ZM291.663 88.655L288.886 91.4464L289.354 88.5522H291.646L291.663 88.655ZM288.629 93.0357L291.848 89.7999L292.067 91.1543L288.325 94.9157L288.629 93.0357ZM288.068 96.5049L292.252 92.2991L292.44 93.4574L287.808 98.1128L288.068 96.5049ZM287.551 99.702L292.625 94.6024L292.913 96.3842L287.151 102.175L287.551 99.702ZM290.5 105.865L289.471 104.831L291.692 102.598C291.875 102.415 291.874 102.117 291.691 101.935C291.507 101.752 291.21 101.752 291.027 101.936L288.809 104.165L287.652 103.003L293.098 97.5291L293.894 102.454L290.5 105.865Z" fill="white"/>
<path d="M292.881 100.738C292.698 100.555 292.4 100.556 292.218 100.739L292.073 100.885C291.89 101.069 291.891 101.366 292.075 101.549C292.166 101.64 292.286 101.685 292.406 101.685C292.526 101.685 292.647 101.639 292.738 101.547L292.883 101.402C293.066 101.218 293.065 100.921 292.881 100.738Z" fill="white"/>
</svg>
