<svg width="125" height="129" viewBox="0 0 125 129" fill="none" xmlns="http://www.w3.org/2000/svg">
<path d="M123.984 64.2408C123.984 99.1939 96.4271 127.482 62.4919 127.482C28.5567 127.482 1 99.1939 1 64.2408C1 29.2877 28.5567 1 62.4919 1C96.4271 1 123.984 29.2877 123.984 64.2408Z" stroke="#5E6E82" stroke-width="2"/>
<ellipse cx="62.4919" cy="64.2408" rx="55.7963" ry="57.3579" fill="#164FA1" fill-opacity="0.54"/>
<path fill-rule="evenodd" clip-rule="evenodd" d="M38 45.5C38 32.5213 48.5213 22 61.5 22C74.4787 22 85 32.5213 85 45.5C85 58.4787 74.4787 69 61.5 69C48.5213 69 38 58.4787 38 45.5Z" fill="white"/>
<path fill-rule="evenodd" clip-rule="evenodd" d="M36.1892 79.4596C42.4509 76.8483 50.8031 76 61.5031 76C72.1812 76 80.5206 76.8449 86.7768 79.4427C93.4919 82.2311 97.6136 86.9683 99.8109 93.8584C100.627 96.419 98.6965 99 96.0275 99H26.9548C24.2968 99 22.3776 96.4305 23.1873 93.884C25.3779 86.9944 29.485 82.2552 36.1892 79.4596Z" fill="white"/>
</svg>
