<svg width="25" height="22" viewBox="0 0 25 22" fill="none" xmlns="http://www.w3.org/2000/svg">
<path d="M23.5339 0.891146C21.1554 1.03153 16.428 1.5425 13.5095 3.40042C13.3082 3.52861 13.194 3.75656 13.194 3.9949V20.4196C13.194 20.9409 13.7422 21.2705 14.2044 21.0285C17.207 19.4568 21.5495 19.028 23.6966 18.9106C24.4297 18.8704 24.9996 18.2592 24.9996 17.5266V2.27691C25 1.4775 24.3333 0.844202 23.5339 0.891146ZM11.49 3.40042C8.57205 1.5425 3.84462 1.03198 1.46615 0.891146C0.666667 0.844202 0 1.4775 0 2.27691V17.5271C0 18.2601 0.569879 18.8713 1.30295 18.911C3.45095 19.0284 7.79557 19.4577 10.7982 21.0303C11.2591 21.2718 11.8056 20.9427 11.8056 20.4227V3.98677C11.8056 3.74799 11.6918 3.52906 11.49 3.40042Z" fill="rgb(94, 110, 130)"/>
</svg>
